G04 EAGLE Gerber RS-274X export*
G75*
%MOMM*%
%FSLAX34Y34*%
%LPD*%
%INBottom Copper*%
%IPPOS*%
%AMOC8*
5,1,8,0,0,1.08239X$1,22.5*%
G01*
%ADD10C,1.524000*%
%ADD11R,1.650000X1.650000*%
%ADD12C,1.650000*%
%ADD13R,1.408000X1.408000*%
%ADD14C,1.408000*%
%ADD15C,1.508000*%
%ADD16R,1.508000X1.508000*%
%ADD17C,0.756400*%
%ADD18C,0.508000*%
%ADD19C,0.304800*%

G36*
X1588342Y10164D02*
X1588342Y10164D01*
X1588368Y10162D01*
X1588515Y10184D01*
X1588662Y10201D01*
X1588687Y10209D01*
X1588713Y10213D01*
X1588851Y10268D01*
X1588990Y10318D01*
X1589012Y10332D01*
X1589037Y10342D01*
X1589158Y10427D01*
X1589283Y10507D01*
X1589301Y10526D01*
X1589323Y10541D01*
X1589422Y10651D01*
X1589525Y10758D01*
X1589539Y10780D01*
X1589556Y10800D01*
X1589628Y10930D01*
X1589704Y11057D01*
X1589712Y11082D01*
X1589725Y11105D01*
X1589765Y11248D01*
X1589810Y11389D01*
X1589812Y11415D01*
X1589820Y11440D01*
X1589839Y11684D01*
X1589839Y988316D01*
X1589836Y988342D01*
X1589838Y988368D01*
X1589816Y988515D01*
X1589799Y988662D01*
X1589791Y988687D01*
X1589787Y988713D01*
X1589732Y988851D01*
X1589682Y988990D01*
X1589668Y989012D01*
X1589658Y989037D01*
X1589573Y989158D01*
X1589493Y989283D01*
X1589474Y989301D01*
X1589459Y989323D01*
X1589349Y989422D01*
X1589242Y989525D01*
X1589220Y989539D01*
X1589200Y989556D01*
X1589070Y989628D01*
X1588943Y989704D01*
X1588918Y989712D01*
X1588895Y989725D01*
X1588752Y989765D01*
X1588611Y989810D01*
X1588585Y989812D01*
X1588560Y989820D01*
X1588316Y989839D01*
X11684Y989839D01*
X11658Y989836D01*
X11632Y989838D01*
X11485Y989816D01*
X11338Y989799D01*
X11313Y989791D01*
X11287Y989787D01*
X11149Y989732D01*
X11010Y989682D01*
X10988Y989668D01*
X10963Y989658D01*
X10842Y989573D01*
X10717Y989493D01*
X10699Y989474D01*
X10677Y989459D01*
X10578Y989349D01*
X10475Y989242D01*
X10461Y989220D01*
X10444Y989200D01*
X10372Y989070D01*
X10296Y988943D01*
X10288Y988918D01*
X10275Y988895D01*
X10235Y988752D01*
X10190Y988611D01*
X10188Y988585D01*
X10180Y988560D01*
X10161Y988316D01*
X10161Y11684D01*
X10164Y11658D01*
X10162Y11632D01*
X10184Y11485D01*
X10201Y11338D01*
X10209Y11313D01*
X10213Y11287D01*
X10268Y11149D01*
X10318Y11010D01*
X10332Y10988D01*
X10342Y10963D01*
X10427Y10842D01*
X10507Y10717D01*
X10526Y10699D01*
X10541Y10677D01*
X10651Y10578D01*
X10758Y10475D01*
X10780Y10461D01*
X10800Y10444D01*
X10930Y10372D01*
X11057Y10296D01*
X11082Y10288D01*
X11105Y10275D01*
X11248Y10235D01*
X11389Y10190D01*
X11415Y10188D01*
X11440Y10180D01*
X11684Y10161D01*
X1588316Y10161D01*
X1588342Y10164D01*
G37*
%LPC*%
G36*
X223666Y203989D02*
X223666Y203989D01*
X216689Y210966D01*
X216689Y220834D01*
X287589Y291733D01*
X287668Y291832D01*
X287752Y291926D01*
X287776Y291969D01*
X287806Y292006D01*
X287860Y292121D01*
X287921Y292231D01*
X287934Y292278D01*
X287955Y292322D01*
X287981Y292445D01*
X288016Y292567D01*
X288021Y292628D01*
X288028Y292662D01*
X288027Y292710D01*
X288035Y292811D01*
X288035Y382684D01*
X290416Y385065D01*
X365405Y385065D01*
X365505Y385076D01*
X365605Y385078D01*
X365678Y385096D01*
X365751Y385105D01*
X365846Y385139D01*
X365943Y385163D01*
X366009Y385197D01*
X366080Y385222D01*
X366164Y385277D01*
X366253Y385323D01*
X366310Y385371D01*
X366372Y385411D01*
X366442Y385483D01*
X366519Y385548D01*
X366563Y385608D01*
X366615Y385662D01*
X366666Y385748D01*
X366726Y385829D01*
X366755Y385897D01*
X366793Y385961D01*
X366824Y386057D01*
X366864Y386149D01*
X366877Y386222D01*
X366900Y386293D01*
X366908Y386393D01*
X366925Y386492D01*
X366922Y386566D01*
X366928Y386640D01*
X366913Y386740D01*
X366908Y386840D01*
X366887Y386911D01*
X366876Y386985D01*
X366839Y387078D01*
X366811Y387175D01*
X366775Y387240D01*
X366747Y387309D01*
X366690Y387391D01*
X366641Y387479D01*
X366576Y387555D01*
X366548Y387595D01*
X366522Y387619D01*
X366482Y387665D01*
X365627Y388520D01*
X364235Y391881D01*
X364235Y395519D01*
X365628Y398880D01*
X368200Y401452D01*
X371561Y402845D01*
X390439Y402845D01*
X393800Y401452D01*
X396372Y398880D01*
X397765Y395519D01*
X397765Y391881D01*
X396373Y388520D01*
X395518Y387665D01*
X395455Y387586D01*
X395385Y387514D01*
X395347Y387450D01*
X395301Y387392D01*
X395258Y387301D01*
X395207Y387215D01*
X395184Y387144D01*
X395152Y387077D01*
X395131Y386979D01*
X395100Y386883D01*
X395094Y386809D01*
X395079Y386736D01*
X395080Y386636D01*
X395072Y386536D01*
X395083Y386462D01*
X395085Y386388D01*
X395109Y386291D01*
X395124Y386191D01*
X395152Y386122D01*
X395170Y386050D01*
X395216Y385961D01*
X395253Y385867D01*
X395295Y385806D01*
X395329Y385740D01*
X395394Y385664D01*
X395452Y385581D01*
X395507Y385531D01*
X395555Y385475D01*
X395636Y385415D01*
X395711Y385348D01*
X395776Y385312D01*
X395835Y385267D01*
X395928Y385228D01*
X396016Y385179D01*
X396087Y385159D01*
X396155Y385129D01*
X396254Y385112D01*
X396351Y385084D01*
X396451Y385076D01*
X396498Y385068D01*
X396534Y385070D01*
X396595Y385065D01*
X574788Y385065D01*
X576960Y382892D01*
X577078Y382799D01*
X577193Y382702D01*
X577214Y382691D01*
X577233Y382676D01*
X577369Y382612D01*
X577503Y382543D01*
X577526Y382537D01*
X577548Y382527D01*
X577695Y382495D01*
X577841Y382459D01*
X577865Y382458D01*
X577889Y382453D01*
X578039Y382456D01*
X578190Y382454D01*
X578213Y382459D01*
X578237Y382459D01*
X578383Y382496D01*
X578530Y382528D01*
X578552Y382538D01*
X578575Y382544D01*
X578709Y382613D01*
X578845Y382678D01*
X578864Y382693D01*
X578885Y382704D01*
X578999Y382801D01*
X579117Y382895D01*
X579132Y382914D01*
X579151Y382930D01*
X579240Y383051D01*
X579333Y383169D01*
X579346Y383195D01*
X579358Y383210D01*
X579376Y383253D01*
X579445Y383386D01*
X579701Y384006D01*
X581194Y385499D01*
X583151Y386309D01*
X583253Y386321D01*
X583379Y386328D01*
X583426Y386341D01*
X583474Y386347D01*
X583593Y386389D01*
X583714Y386424D01*
X583756Y386448D01*
X583802Y386464D01*
X583908Y386533D01*
X584018Y386594D01*
X584065Y386634D01*
X584095Y386653D01*
X584128Y386688D01*
X584204Y386753D01*
X605089Y407638D01*
X607916Y410465D01*
X618229Y410465D01*
X618355Y410479D01*
X618481Y410486D01*
X618527Y410499D01*
X618575Y410505D01*
X618694Y410547D01*
X618816Y410582D01*
X618858Y410606D01*
X618903Y410622D01*
X619009Y410691D01*
X619120Y410752D01*
X619166Y410792D01*
X619196Y410811D01*
X619230Y410846D01*
X619290Y410897D01*
X621244Y411707D01*
X623356Y411707D01*
X625306Y410899D01*
X626799Y409406D01*
X627607Y407456D01*
X627607Y405344D01*
X626799Y403394D01*
X625306Y401901D01*
X623356Y401093D01*
X621244Y401093D01*
X619287Y401904D01*
X619207Y401968D01*
X619113Y402052D01*
X619071Y402076D01*
X619033Y402106D01*
X618919Y402160D01*
X618808Y402221D01*
X618762Y402234D01*
X618718Y402255D01*
X618595Y402281D01*
X618473Y402316D01*
X618412Y402321D01*
X618377Y402328D01*
X618329Y402327D01*
X618229Y402335D01*
X611915Y402335D01*
X611789Y402321D01*
X611663Y402314D01*
X611616Y402301D01*
X611568Y402295D01*
X611449Y402253D01*
X611328Y402218D01*
X611286Y402194D01*
X611240Y402178D01*
X611134Y402109D01*
X611024Y402048D01*
X610977Y402008D01*
X610947Y401989D01*
X610914Y401954D01*
X610838Y401889D01*
X589953Y381004D01*
X589874Y380905D01*
X589790Y380812D01*
X589766Y380769D01*
X589736Y380731D01*
X589682Y380617D01*
X589621Y380507D01*
X589608Y380460D01*
X589587Y380416D01*
X589561Y380293D01*
X589526Y380171D01*
X589521Y380110D01*
X589514Y380076D01*
X589515Y380028D01*
X589508Y379949D01*
X589250Y379325D01*
X589209Y379180D01*
X589163Y379037D01*
X589161Y379013D01*
X589154Y378990D01*
X589147Y378839D01*
X589135Y378690D01*
X589139Y378666D01*
X589137Y378642D01*
X589164Y378494D01*
X589187Y378345D01*
X589196Y378323D01*
X589200Y378299D01*
X589260Y378161D01*
X589315Y378021D01*
X589329Y378001D01*
X589339Y377979D01*
X589429Y377858D01*
X589514Y377735D01*
X589532Y377719D01*
X589547Y377699D01*
X589662Y377602D01*
X589773Y377502D01*
X589794Y377490D01*
X589813Y377474D01*
X589946Y377406D01*
X590078Y377333D01*
X590102Y377327D01*
X590123Y377316D01*
X590269Y377279D01*
X590414Y377238D01*
X590443Y377236D01*
X590461Y377231D01*
X590508Y377231D01*
X590657Y377219D01*
X619130Y377219D01*
X621957Y374392D01*
X647668Y348681D01*
X647767Y348602D01*
X647860Y348518D01*
X647903Y348494D01*
X647941Y348464D01*
X648055Y348410D01*
X648165Y348349D01*
X648212Y348336D01*
X648256Y348315D01*
X648379Y348289D01*
X648501Y348254D01*
X648562Y348249D01*
X648596Y348242D01*
X648644Y348243D01*
X648745Y348235D01*
X679189Y348235D01*
X679315Y348249D01*
X679441Y348256D01*
X679487Y348269D01*
X679535Y348275D01*
X679654Y348317D01*
X679776Y348352D01*
X679818Y348376D01*
X679863Y348392D01*
X679969Y348461D01*
X680080Y348522D01*
X680126Y348562D01*
X680156Y348581D01*
X680190Y348616D01*
X680250Y348667D01*
X682204Y349477D01*
X684316Y349477D01*
X686266Y348669D01*
X687759Y347176D01*
X688567Y345226D01*
X688567Y343114D01*
X687759Y341164D01*
X686266Y339671D01*
X684316Y338863D01*
X682204Y338863D01*
X680247Y339674D01*
X680167Y339738D01*
X680073Y339822D01*
X680031Y339846D01*
X679993Y339876D01*
X679879Y339930D01*
X679768Y339991D01*
X679722Y340004D01*
X679678Y340025D01*
X679555Y340051D01*
X679433Y340086D01*
X679372Y340091D01*
X679337Y340098D01*
X679289Y340097D01*
X679189Y340105D01*
X644746Y340105D01*
X641919Y342932D01*
X616208Y368643D01*
X616109Y368722D01*
X616016Y368806D01*
X615973Y368830D01*
X615935Y368860D01*
X615821Y368914D01*
X615711Y368975D01*
X615664Y368988D01*
X615620Y369009D01*
X615497Y369035D01*
X615375Y369070D01*
X615314Y369075D01*
X615280Y369082D01*
X615232Y369081D01*
X615131Y369089D01*
X579266Y369089D01*
X576439Y371916D01*
X571867Y376489D01*
X571768Y376568D01*
X571674Y376652D01*
X571631Y376676D01*
X571594Y376706D01*
X571479Y376760D01*
X571369Y376821D01*
X571322Y376834D01*
X571278Y376855D01*
X571155Y376881D01*
X571033Y376916D01*
X570972Y376921D01*
X570938Y376928D01*
X570890Y376927D01*
X570789Y376935D01*
X397895Y376935D01*
X397741Y376917D01*
X397586Y376904D01*
X397568Y376898D01*
X397549Y376895D01*
X397403Y376843D01*
X397255Y376794D01*
X397239Y376784D01*
X397221Y376778D01*
X397090Y376694D01*
X396958Y376613D01*
X396944Y376599D01*
X396928Y376589D01*
X396820Y376477D01*
X396709Y376368D01*
X396699Y376352D01*
X396686Y376338D01*
X396606Y376205D01*
X396523Y376074D01*
X396517Y376056D01*
X396507Y376039D01*
X396460Y375891D01*
X396409Y375745D01*
X396407Y375726D01*
X396401Y375707D01*
X396388Y375553D01*
X396372Y375398D01*
X396374Y375379D01*
X396373Y375360D01*
X396396Y375205D01*
X396415Y375052D01*
X396421Y375034D01*
X396424Y375015D01*
X396482Y374870D01*
X396535Y374725D01*
X396547Y374706D01*
X396553Y374691D01*
X396578Y374655D01*
X396663Y374517D01*
X397310Y373625D01*
X398036Y372200D01*
X398479Y370839D01*
X382016Y370839D01*
X381990Y370836D01*
X381964Y370838D01*
X381817Y370816D01*
X381670Y370799D01*
X381645Y370791D01*
X381619Y370787D01*
X381482Y370732D01*
X381342Y370682D01*
X381320Y370668D01*
X381295Y370658D01*
X381174Y370573D01*
X381049Y370493D01*
X381031Y370474D01*
X381009Y370459D01*
X380995Y370443D01*
X380910Y370525D01*
X380887Y370539D01*
X380868Y370556D01*
X380738Y370628D01*
X380611Y370704D01*
X380586Y370712D01*
X380563Y370725D01*
X380420Y370765D01*
X380279Y370810D01*
X380253Y370812D01*
X380228Y370820D01*
X379984Y370839D01*
X363521Y370839D01*
X363964Y372200D01*
X364690Y373625D01*
X365337Y374517D01*
X365413Y374652D01*
X365493Y374785D01*
X365499Y374803D01*
X365509Y374820D01*
X365552Y374969D01*
X365599Y375117D01*
X365601Y375136D01*
X365606Y375155D01*
X365615Y375310D01*
X365627Y375464D01*
X365625Y375483D01*
X365626Y375503D01*
X365599Y375656D01*
X365576Y375809D01*
X365569Y375827D01*
X365565Y375846D01*
X365504Y375989D01*
X365447Y376133D01*
X365436Y376149D01*
X365428Y376166D01*
X365337Y376292D01*
X365248Y376419D01*
X365234Y376432D01*
X365222Y376447D01*
X365104Y376549D01*
X364989Y376652D01*
X364972Y376662D01*
X364958Y376674D01*
X364820Y376746D01*
X364684Y376821D01*
X364666Y376826D01*
X364648Y376835D01*
X364499Y376873D01*
X364349Y376916D01*
X364326Y376918D01*
X364311Y376921D01*
X364267Y376922D01*
X364105Y376935D01*
X297688Y376935D01*
X297662Y376932D01*
X297636Y376934D01*
X297489Y376912D01*
X297342Y376895D01*
X297317Y376887D01*
X297291Y376883D01*
X297153Y376828D01*
X297014Y376778D01*
X296992Y376764D01*
X296967Y376754D01*
X296846Y376669D01*
X296721Y376589D01*
X296703Y376570D01*
X296681Y376555D01*
X296582Y376445D01*
X296479Y376338D01*
X296465Y376316D01*
X296448Y376296D01*
X296376Y376166D01*
X296300Y376039D01*
X296292Y376014D01*
X296279Y375991D01*
X296239Y375848D01*
X296194Y375707D01*
X296192Y375681D01*
X296184Y375656D01*
X296165Y375412D01*
X296165Y292891D01*
X296176Y292791D01*
X296178Y292690D01*
X296196Y292618D01*
X296205Y292544D01*
X296238Y292450D01*
X296263Y292352D01*
X296297Y292286D01*
X296322Y292216D01*
X296377Y292132D01*
X296423Y292043D01*
X296471Y291986D01*
X296511Y291923D01*
X296583Y291854D01*
X296648Y291777D01*
X296708Y291733D01*
X296762Y291681D01*
X296848Y291630D01*
X296929Y291570D01*
X296997Y291541D01*
X297061Y291502D01*
X297157Y291472D01*
X297249Y291432D01*
X297322Y291419D01*
X297393Y291396D01*
X297493Y291388D01*
X297592Y291370D01*
X297666Y291374D01*
X297740Y291368D01*
X297840Y291383D01*
X297940Y291388D01*
X298011Y291409D01*
X298085Y291420D01*
X298178Y291457D01*
X298275Y291485D01*
X298340Y291521D01*
X298409Y291549D01*
X298491Y291606D01*
X298579Y291655D01*
X298655Y291720D01*
X298695Y291748D01*
X298719Y291774D01*
X298765Y291813D01*
X362773Y355822D01*
X365938Y358986D01*
X365952Y358995D01*
X366021Y359067D01*
X366098Y359132D01*
X366142Y359192D01*
X366194Y359246D01*
X366245Y359332D01*
X366305Y359413D01*
X366334Y359481D01*
X366373Y359545D01*
X366403Y359640D01*
X366443Y359733D01*
X366456Y359806D01*
X366479Y359877D01*
X366487Y359977D01*
X366505Y360076D01*
X366501Y360150D01*
X366507Y360224D01*
X366492Y360323D01*
X366487Y360424D01*
X366466Y360495D01*
X366455Y360569D01*
X366418Y360662D01*
X366390Y360759D01*
X366354Y360824D01*
X366326Y360893D01*
X366269Y360975D01*
X366220Y361063D01*
X366155Y361139D01*
X366127Y361179D01*
X366101Y361203D01*
X366061Y361249D01*
X365630Y361681D01*
X364690Y362975D01*
X363964Y364400D01*
X363521Y365761D01*
X379984Y365761D01*
X380010Y365764D01*
X380036Y365762D01*
X380183Y365784D01*
X380330Y365801D01*
X380355Y365809D01*
X380381Y365813D01*
X380518Y365868D01*
X380658Y365918D01*
X380680Y365932D01*
X380705Y365942D01*
X380826Y366027D01*
X380951Y366107D01*
X380969Y366126D01*
X380991Y366141D01*
X381005Y366157D01*
X381090Y366075D01*
X381113Y366061D01*
X381132Y366044D01*
X381262Y365972D01*
X381389Y365896D01*
X381414Y365888D01*
X381437Y365875D01*
X381580Y365835D01*
X381721Y365790D01*
X381747Y365787D01*
X381772Y365780D01*
X382016Y365761D01*
X398479Y365761D01*
X398036Y364400D01*
X397310Y362975D01*
X396370Y361681D01*
X395318Y360628D01*
X395301Y360608D01*
X395282Y360591D01*
X395194Y360472D01*
X395101Y360355D01*
X395090Y360332D01*
X395074Y360311D01*
X395016Y360175D01*
X394952Y360040D01*
X394947Y360015D01*
X394936Y359991D01*
X394910Y359844D01*
X394879Y359700D01*
X394879Y359674D01*
X394875Y359648D01*
X394882Y359499D01*
X394885Y359351D01*
X394891Y359326D01*
X394893Y359300D01*
X394934Y359157D01*
X394970Y359013D01*
X394982Y358990D01*
X394989Y358965D01*
X395062Y358835D01*
X395130Y358703D01*
X395147Y358683D01*
X395159Y358660D01*
X395318Y358474D01*
X397971Y355822D01*
X419081Y334711D01*
X419180Y334632D01*
X419274Y334548D01*
X419316Y334524D01*
X419354Y334494D01*
X419468Y334440D01*
X419579Y334379D01*
X419626Y334366D01*
X419669Y334345D01*
X419793Y334319D01*
X419915Y334284D01*
X419975Y334279D01*
X420010Y334272D01*
X420058Y334273D01*
X420158Y334265D01*
X734285Y334265D01*
X734411Y334279D01*
X734537Y334286D01*
X734584Y334299D01*
X734632Y334305D01*
X734751Y334347D01*
X734872Y334382D01*
X734914Y334406D01*
X734960Y334422D01*
X735066Y334491D01*
X735176Y334552D01*
X735222Y334592D01*
X735252Y334611D01*
X735286Y334646D01*
X735362Y334711D01*
X743547Y342896D01*
X743626Y342995D01*
X743710Y343088D01*
X743734Y343131D01*
X743764Y343169D01*
X743818Y343283D01*
X743879Y343393D01*
X743892Y343440D01*
X743913Y343484D01*
X743939Y343607D01*
X743974Y343729D01*
X743979Y343790D01*
X743986Y343824D01*
X743985Y343872D01*
X743992Y343951D01*
X744801Y345906D01*
X746294Y347399D01*
X748244Y348207D01*
X750356Y348207D01*
X752306Y347399D01*
X753799Y345906D01*
X754251Y344814D01*
X754324Y344683D01*
X754393Y344549D01*
X754409Y344531D01*
X754420Y344509D01*
X754521Y344398D01*
X754619Y344284D01*
X754638Y344269D01*
X754655Y344251D01*
X754778Y344166D01*
X754899Y344076D01*
X754921Y344067D01*
X754941Y344053D01*
X755081Y343998D01*
X755219Y343938D01*
X755243Y343934D01*
X755265Y343925D01*
X755414Y343903D01*
X755562Y343877D01*
X755586Y343878D01*
X755610Y343874D01*
X755760Y343887D01*
X755910Y343895D01*
X755933Y343901D01*
X755958Y343903D01*
X756101Y343950D01*
X756245Y343991D01*
X756266Y344003D01*
X756289Y344010D01*
X756418Y344088D01*
X756549Y344161D01*
X756571Y344180D01*
X756588Y344190D01*
X756622Y344223D01*
X756736Y344320D01*
X782889Y370473D01*
X782968Y370572D01*
X783052Y370666D01*
X783076Y370709D01*
X783106Y370746D01*
X783160Y370861D01*
X783221Y370971D01*
X783234Y371018D01*
X783255Y371062D01*
X783281Y371185D01*
X783316Y371307D01*
X783321Y371368D01*
X783328Y371402D01*
X783327Y371450D01*
X783335Y371551D01*
X783335Y388112D01*
X783332Y388138D01*
X783334Y388164D01*
X783312Y388311D01*
X783295Y388458D01*
X783287Y388483D01*
X783283Y388509D01*
X783228Y388647D01*
X783178Y388786D01*
X783164Y388808D01*
X783154Y388833D01*
X783069Y388954D01*
X782989Y389079D01*
X782970Y389097D01*
X782955Y389119D01*
X782845Y389218D01*
X782738Y389321D01*
X782716Y389335D01*
X782696Y389352D01*
X782566Y389424D01*
X782439Y389500D01*
X782414Y389508D01*
X782391Y389521D01*
X782248Y389561D01*
X782107Y389606D01*
X782081Y389608D01*
X782056Y389616D01*
X781812Y389635D01*
X766071Y389635D01*
X765946Y389621D01*
X765819Y389614D01*
X765773Y389601D01*
X765725Y389595D01*
X765606Y389553D01*
X765484Y389518D01*
X765442Y389494D01*
X765397Y389478D01*
X765290Y389409D01*
X765180Y389348D01*
X765134Y389308D01*
X765104Y389289D01*
X765070Y389254D01*
X765010Y389203D01*
X763056Y388393D01*
X760944Y388393D01*
X758994Y389201D01*
X757501Y390694D01*
X756693Y392644D01*
X756693Y394756D01*
X756950Y395375D01*
X756991Y395520D01*
X757037Y395663D01*
X757039Y395687D01*
X757046Y395710D01*
X757053Y395860D01*
X757065Y396010D01*
X757061Y396034D01*
X757063Y396058D01*
X757036Y396206D01*
X757013Y396355D01*
X757004Y396377D01*
X757000Y396401D01*
X756940Y396539D01*
X756885Y396679D01*
X756871Y396699D01*
X756861Y396721D01*
X756771Y396842D01*
X756686Y396965D01*
X756668Y396981D01*
X756653Y397000D01*
X756538Y397098D01*
X756427Y397198D01*
X756406Y397210D01*
X756387Y397226D01*
X756254Y397294D01*
X756122Y397367D01*
X756099Y397373D01*
X756077Y397384D01*
X755931Y397421D01*
X755786Y397462D01*
X755757Y397464D01*
X755739Y397469D01*
X755692Y397469D01*
X755543Y397481D01*
X701670Y397481D01*
X698504Y400647D01*
X698405Y400726D01*
X698312Y400810D01*
X698269Y400834D01*
X698231Y400864D01*
X698117Y400918D01*
X698007Y400979D01*
X697960Y400992D01*
X697916Y401013D01*
X697793Y401039D01*
X697671Y401074D01*
X697610Y401079D01*
X697576Y401086D01*
X697528Y401085D01*
X697449Y401092D01*
X695494Y401901D01*
X694001Y403394D01*
X693193Y405344D01*
X693193Y407456D01*
X694001Y409406D01*
X695494Y410899D01*
X697444Y411707D01*
X699556Y411707D01*
X701506Y410899D01*
X702999Y409406D01*
X703809Y407449D01*
X703821Y407347D01*
X703828Y407221D01*
X703841Y407174D01*
X703847Y407126D01*
X703889Y407007D01*
X703924Y406886D01*
X703948Y406844D01*
X703964Y406798D01*
X704033Y406692D01*
X704094Y406582D01*
X704134Y406536D01*
X704153Y406506D01*
X704188Y406472D01*
X704253Y406396D01*
X704592Y406057D01*
X704691Y405978D01*
X704784Y405894D01*
X704827Y405870D01*
X704865Y405840D01*
X704979Y405786D01*
X705089Y405725D01*
X705136Y405712D01*
X705180Y405691D01*
X705303Y405665D01*
X705425Y405630D01*
X705486Y405625D01*
X705520Y405618D01*
X705568Y405619D01*
X705669Y405611D01*
X790577Y405611D01*
X810677Y385511D01*
X810776Y385432D01*
X810870Y385348D01*
X810912Y385324D01*
X810950Y385294D01*
X811064Y385240D01*
X811175Y385179D01*
X811221Y385166D01*
X811265Y385145D01*
X811389Y385119D01*
X811510Y385084D01*
X811571Y385079D01*
X811606Y385072D01*
X811654Y385073D01*
X811754Y385065D01*
X846829Y385065D01*
X846955Y385079D01*
X847081Y385086D01*
X847127Y385099D01*
X847175Y385105D01*
X847294Y385147D01*
X847416Y385182D01*
X847458Y385206D01*
X847503Y385222D01*
X847609Y385291D01*
X847720Y385352D01*
X847766Y385392D01*
X847796Y385411D01*
X847830Y385446D01*
X847890Y385497D01*
X849844Y386307D01*
X851956Y386307D01*
X853906Y385499D01*
X855399Y384006D01*
X856207Y382056D01*
X856207Y379944D01*
X855399Y377994D01*
X853906Y376501D01*
X851956Y375693D01*
X849844Y375693D01*
X847887Y376504D01*
X847807Y376568D01*
X847713Y376652D01*
X847671Y376676D01*
X847633Y376706D01*
X847519Y376760D01*
X847408Y376821D01*
X847362Y376834D01*
X847318Y376855D01*
X847195Y376881D01*
X847073Y376916D01*
X847012Y376921D01*
X846977Y376928D01*
X846929Y376927D01*
X846829Y376935D01*
X807756Y376935D01*
X794065Y390626D01*
X793987Y390688D01*
X793914Y390758D01*
X793850Y390796D01*
X793792Y390843D01*
X793701Y390886D01*
X793615Y390937D01*
X793544Y390960D01*
X793477Y390992D01*
X793379Y391013D01*
X793283Y391043D01*
X793209Y391049D01*
X793136Y391065D01*
X793036Y391063D01*
X792936Y391071D01*
X792862Y391060D01*
X792788Y391059D01*
X792691Y391034D01*
X792591Y391020D01*
X792522Y390992D01*
X792450Y390974D01*
X792360Y390928D01*
X792267Y390891D01*
X792206Y390848D01*
X792140Y390814D01*
X792063Y390749D01*
X791981Y390692D01*
X791931Y390637D01*
X791875Y390588D01*
X791815Y390508D01*
X791748Y390433D01*
X791712Y390368D01*
X791667Y390308D01*
X791628Y390216D01*
X791579Y390128D01*
X791559Y390056D01*
X791529Y389988D01*
X791512Y389889D01*
X791484Y389793D01*
X791476Y389693D01*
X791468Y389645D01*
X791470Y389609D01*
X791465Y389549D01*
X791465Y367552D01*
X774720Y350807D01*
X774657Y350729D01*
X774587Y350656D01*
X774549Y350592D01*
X774503Y350534D01*
X774460Y350443D01*
X774408Y350357D01*
X774386Y350286D01*
X774354Y350219D01*
X774333Y350121D01*
X774302Y350025D01*
X774296Y349951D01*
X774281Y349878D01*
X774282Y349778D01*
X774274Y349678D01*
X774285Y349604D01*
X774287Y349530D01*
X774311Y349433D01*
X774326Y349333D01*
X774353Y349264D01*
X774372Y349192D01*
X774418Y349102D01*
X774455Y349009D01*
X774497Y348948D01*
X774531Y348882D01*
X774596Y348805D01*
X774654Y348723D01*
X774709Y348673D01*
X774757Y348617D01*
X774838Y348557D01*
X774912Y348490D01*
X774978Y348454D01*
X775037Y348409D01*
X775130Y348370D01*
X775217Y348321D01*
X775289Y348301D01*
X775357Y348271D01*
X775456Y348254D01*
X775553Y348226D01*
X775653Y348218D01*
X775700Y348210D01*
X775736Y348212D01*
X775746Y348211D01*
X777706Y347399D01*
X779199Y345906D01*
X779643Y344834D01*
X779692Y344747D01*
X779732Y344655D01*
X779776Y344595D01*
X779812Y344530D01*
X779879Y344455D01*
X779939Y344375D01*
X779996Y344327D01*
X780046Y344272D01*
X780129Y344215D01*
X780205Y344150D01*
X780272Y344116D01*
X780333Y344073D01*
X780426Y344037D01*
X780516Y343991D01*
X780588Y343973D01*
X780657Y343946D01*
X780756Y343931D01*
X780854Y343907D01*
X780928Y343906D01*
X781002Y343895D01*
X781102Y343903D01*
X781202Y343902D01*
X781275Y343918D01*
X781349Y343924D01*
X781445Y343955D01*
X781543Y343976D01*
X781610Y344008D01*
X781681Y344031D01*
X781767Y344083D01*
X781858Y344126D01*
X781916Y344172D01*
X781979Y344211D01*
X782051Y344280D01*
X782130Y344343D01*
X782176Y344402D01*
X782229Y344453D01*
X782284Y344538D01*
X782346Y344617D01*
X782392Y344706D01*
X782418Y344747D01*
X782430Y344780D01*
X782457Y344834D01*
X782901Y345906D01*
X784394Y347399D01*
X786344Y348207D01*
X788456Y348207D01*
X790406Y347399D01*
X791899Y345906D01*
X792709Y343949D01*
X792721Y343847D01*
X792728Y343721D01*
X792741Y343674D01*
X792747Y343626D01*
X792789Y343507D01*
X792824Y343386D01*
X792848Y343344D01*
X792864Y343298D01*
X792933Y343192D01*
X792994Y343082D01*
X793034Y343036D01*
X793053Y343006D01*
X793088Y342972D01*
X793153Y342896D01*
X807434Y328615D01*
X807533Y328536D01*
X807626Y328452D01*
X807669Y328428D01*
X807707Y328398D01*
X807821Y328344D01*
X807931Y328283D01*
X807978Y328270D01*
X808022Y328249D01*
X808145Y328223D01*
X808267Y328188D01*
X808328Y328183D01*
X808362Y328176D01*
X808410Y328177D01*
X808511Y328169D01*
X1148305Y328169D01*
X1148405Y328180D01*
X1148506Y328182D01*
X1148578Y328200D01*
X1148652Y328209D01*
X1148746Y328242D01*
X1148844Y328267D01*
X1148910Y328301D01*
X1148980Y328326D01*
X1149064Y328381D01*
X1149153Y328427D01*
X1149210Y328475D01*
X1149273Y328515D01*
X1149342Y328587D01*
X1149419Y328652D01*
X1149463Y328712D01*
X1149515Y328766D01*
X1149566Y328852D01*
X1149626Y328933D01*
X1149655Y329001D01*
X1149694Y329065D01*
X1149724Y329161D01*
X1149764Y329253D01*
X1149777Y329326D01*
X1149800Y329397D01*
X1149808Y329497D01*
X1149826Y329596D01*
X1149822Y329670D01*
X1149828Y329744D01*
X1149813Y329844D01*
X1149808Y329944D01*
X1149787Y330015D01*
X1149776Y330089D01*
X1149739Y330182D01*
X1149711Y330279D01*
X1149675Y330344D01*
X1149647Y330413D01*
X1149590Y330495D01*
X1149541Y330583D01*
X1149476Y330659D01*
X1149448Y330699D01*
X1149422Y330723D01*
X1149383Y330769D01*
X1146335Y333816D01*
X1138935Y341216D01*
X1138935Y353285D01*
X1138921Y353411D01*
X1138914Y353537D01*
X1138901Y353584D01*
X1138895Y353632D01*
X1138853Y353751D01*
X1138818Y353872D01*
X1138794Y353914D01*
X1138778Y353960D01*
X1138709Y354066D01*
X1138648Y354176D01*
X1138608Y354222D01*
X1138589Y354252D01*
X1138554Y354286D01*
X1138489Y354362D01*
X1090962Y401889D01*
X1090863Y401968D01*
X1090770Y402052D01*
X1090727Y402076D01*
X1090689Y402106D01*
X1090575Y402160D01*
X1090465Y402221D01*
X1090418Y402234D01*
X1090374Y402255D01*
X1090251Y402281D01*
X1090129Y402316D01*
X1090068Y402321D01*
X1090034Y402328D01*
X1089986Y402327D01*
X1089885Y402335D01*
X1058171Y402335D01*
X1058045Y402321D01*
X1057919Y402314D01*
X1057873Y402301D01*
X1057825Y402295D01*
X1057706Y402253D01*
X1057584Y402218D01*
X1057542Y402194D01*
X1057497Y402178D01*
X1057391Y402109D01*
X1057280Y402048D01*
X1057234Y402008D01*
X1057204Y401989D01*
X1057170Y401954D01*
X1057110Y401903D01*
X1055156Y401093D01*
X1053044Y401093D01*
X1051094Y401901D01*
X1049601Y403394D01*
X1048793Y405344D01*
X1048793Y407456D01*
X1049601Y409406D01*
X1051094Y410899D01*
X1053044Y411707D01*
X1055156Y411707D01*
X1057113Y410896D01*
X1057193Y410832D01*
X1057287Y410748D01*
X1057329Y410724D01*
X1057367Y410694D01*
X1057481Y410640D01*
X1057592Y410579D01*
X1057638Y410566D01*
X1057682Y410545D01*
X1057805Y410519D01*
X1057927Y410484D01*
X1057988Y410479D01*
X1058023Y410472D01*
X1058071Y410473D01*
X1058171Y410465D01*
X1093884Y410465D01*
X1147065Y357284D01*
X1147065Y345215D01*
X1147079Y345089D01*
X1147086Y344963D01*
X1147099Y344916D01*
X1147105Y344868D01*
X1147147Y344749D01*
X1147182Y344628D01*
X1147206Y344586D01*
X1147222Y344540D01*
X1147291Y344434D01*
X1147352Y344324D01*
X1147392Y344278D01*
X1147411Y344248D01*
X1147446Y344214D01*
X1147511Y344138D01*
X1152084Y339565D01*
X1152183Y339486D01*
X1152276Y339402D01*
X1152319Y339378D01*
X1152357Y339348D01*
X1152471Y339294D01*
X1152581Y339233D01*
X1152628Y339220D01*
X1152672Y339199D01*
X1152795Y339173D01*
X1152917Y339138D01*
X1152978Y339133D01*
X1153012Y339126D01*
X1153060Y339127D01*
X1153161Y339119D01*
X1161943Y339119D01*
X1162092Y339136D01*
X1162242Y339148D01*
X1162265Y339156D01*
X1162289Y339159D01*
X1162430Y339209D01*
X1162573Y339255D01*
X1162594Y339268D01*
X1162617Y339276D01*
X1162743Y339358D01*
X1162872Y339435D01*
X1162889Y339452D01*
X1162910Y339465D01*
X1163015Y339574D01*
X1163122Y339678D01*
X1163135Y339698D01*
X1163152Y339716D01*
X1163229Y339845D01*
X1163310Y339971D01*
X1163318Y339994D01*
X1163331Y340015D01*
X1163376Y340158D01*
X1163427Y340300D01*
X1163430Y340324D01*
X1163437Y340347D01*
X1163449Y340496D01*
X1163466Y340646D01*
X1163463Y340670D01*
X1163465Y340694D01*
X1163443Y340843D01*
X1163425Y340992D01*
X1163416Y341020D01*
X1163413Y341039D01*
X1163396Y341083D01*
X1163350Y341225D01*
X1163093Y341844D01*
X1163093Y343956D01*
X1163901Y345906D01*
X1165394Y347399D01*
X1167351Y348209D01*
X1167453Y348221D01*
X1167579Y348228D01*
X1167626Y348241D01*
X1167674Y348247D01*
X1167793Y348289D01*
X1167914Y348324D01*
X1167956Y348348D01*
X1168002Y348364D01*
X1168108Y348433D01*
X1168218Y348494D01*
X1168265Y348534D01*
X1168295Y348553D01*
X1168328Y348588D01*
X1168404Y348653D01*
X1182685Y362934D01*
X1182764Y363033D01*
X1182848Y363126D01*
X1182872Y363169D01*
X1182902Y363207D01*
X1182956Y363321D01*
X1183017Y363431D01*
X1183030Y363478D01*
X1183051Y363522D01*
X1183077Y363645D01*
X1183112Y363767D01*
X1183117Y363828D01*
X1183124Y363862D01*
X1183123Y363910D01*
X1183131Y364011D01*
X1183131Y387523D01*
X1192453Y396845D01*
X1192459Y396847D01*
X1192526Y396881D01*
X1192596Y396906D01*
X1192680Y396961D01*
X1192769Y397007D01*
X1192826Y397055D01*
X1192888Y397095D01*
X1192958Y397167D01*
X1193035Y397232D01*
X1193079Y397292D01*
X1193131Y397346D01*
X1193182Y397432D01*
X1193242Y397513D01*
X1193271Y397581D01*
X1193309Y397645D01*
X1193340Y397741D01*
X1193380Y397833D01*
X1193393Y397906D01*
X1193416Y397977D01*
X1193424Y398077D01*
X1193441Y398176D01*
X1193438Y398250D01*
X1193444Y398324D01*
X1193429Y398424D01*
X1193424Y398524D01*
X1193403Y398595D01*
X1193392Y398669D01*
X1193355Y398762D01*
X1193327Y398859D01*
X1193291Y398924D01*
X1193263Y398993D01*
X1193206Y399075D01*
X1193157Y399163D01*
X1193092Y399239D01*
X1193064Y399279D01*
X1193038Y399303D01*
X1192998Y399349D01*
X1191127Y401220D01*
X1189735Y404581D01*
X1189735Y408219D01*
X1191128Y411580D01*
X1193700Y414152D01*
X1197061Y415545D01*
X1215939Y415545D01*
X1219300Y414152D01*
X1221872Y411580D01*
X1223265Y408219D01*
X1223265Y407191D01*
X1223276Y407091D01*
X1223278Y406990D01*
X1223296Y406918D01*
X1223305Y406844D01*
X1223338Y406750D01*
X1223363Y406652D01*
X1223397Y406586D01*
X1223422Y406516D01*
X1223477Y406432D01*
X1223523Y406343D01*
X1223571Y406286D01*
X1223611Y406223D01*
X1223683Y406154D01*
X1223748Y406077D01*
X1223808Y406033D01*
X1223862Y405981D01*
X1223948Y405930D01*
X1224029Y405870D01*
X1224097Y405841D01*
X1224161Y405802D01*
X1224257Y405772D01*
X1224349Y405732D01*
X1224422Y405719D01*
X1224493Y405696D01*
X1224593Y405688D01*
X1224692Y405670D01*
X1224766Y405674D01*
X1224840Y405668D01*
X1224940Y405683D01*
X1225040Y405688D01*
X1225111Y405709D01*
X1225185Y405720D01*
X1225278Y405757D01*
X1225375Y405785D01*
X1225440Y405821D01*
X1225509Y405849D01*
X1225591Y405906D01*
X1225679Y405955D01*
X1225755Y406020D01*
X1225795Y406048D01*
X1225819Y406074D01*
X1225865Y406113D01*
X1230216Y410465D01*
X1251712Y410465D01*
X1251738Y410468D01*
X1251764Y410466D01*
X1251911Y410488D01*
X1252058Y410505D01*
X1252083Y410513D01*
X1252109Y410517D01*
X1252247Y410572D01*
X1252386Y410622D01*
X1252408Y410636D01*
X1252433Y410646D01*
X1252554Y410731D01*
X1252679Y410811D01*
X1252697Y410830D01*
X1252719Y410845D01*
X1252818Y410955D01*
X1252921Y411062D01*
X1252935Y411084D01*
X1252952Y411104D01*
X1253024Y411234D01*
X1253100Y411361D01*
X1253108Y411386D01*
X1253121Y411409D01*
X1253161Y411552D01*
X1253206Y411693D01*
X1253208Y411719D01*
X1253216Y411744D01*
X1253235Y411988D01*
X1253235Y636684D01*
X1256062Y639511D01*
X1264247Y647696D01*
X1264326Y647795D01*
X1264410Y647888D01*
X1264434Y647931D01*
X1264464Y647969D01*
X1264518Y648083D01*
X1264579Y648193D01*
X1264592Y648240D01*
X1264613Y648284D01*
X1264639Y648407D01*
X1264674Y648529D01*
X1264679Y648590D01*
X1264686Y648624D01*
X1264685Y648672D01*
X1264692Y648751D01*
X1265501Y650706D01*
X1266994Y652199D01*
X1268944Y653007D01*
X1271056Y653007D01*
X1273006Y652199D01*
X1274499Y650706D01*
X1275307Y648756D01*
X1275307Y646644D01*
X1274499Y644694D01*
X1273006Y643201D01*
X1271049Y642391D01*
X1270947Y642379D01*
X1270821Y642372D01*
X1270774Y642359D01*
X1270726Y642353D01*
X1270607Y642311D01*
X1270486Y642276D01*
X1270444Y642252D01*
X1270398Y642236D01*
X1270292Y642167D01*
X1270182Y642106D01*
X1270135Y642066D01*
X1270105Y642047D01*
X1270072Y642012D01*
X1269996Y641947D01*
X1261811Y633762D01*
X1261732Y633663D01*
X1261648Y633570D01*
X1261624Y633527D01*
X1261594Y633489D01*
X1261540Y633375D01*
X1261479Y633265D01*
X1261466Y633218D01*
X1261445Y633174D01*
X1261419Y633051D01*
X1261384Y632929D01*
X1261379Y632868D01*
X1261372Y632834D01*
X1261373Y632786D01*
X1261365Y632685D01*
X1261365Y404716D01*
X1258984Y402335D01*
X1234215Y402335D01*
X1234089Y402321D01*
X1233963Y402314D01*
X1233916Y402301D01*
X1233868Y402295D01*
X1233749Y402253D01*
X1233628Y402218D01*
X1233586Y402194D01*
X1233540Y402178D01*
X1233434Y402109D01*
X1233324Y402048D01*
X1233278Y402008D01*
X1233248Y401989D01*
X1233214Y401954D01*
X1233138Y401889D01*
X1220728Y389479D01*
X1220711Y389459D01*
X1220691Y389442D01*
X1220603Y389322D01*
X1220511Y389206D01*
X1220500Y389183D01*
X1220484Y389161D01*
X1220425Y389025D01*
X1220362Y388891D01*
X1220357Y388865D01*
X1220346Y388841D01*
X1220320Y388695D01*
X1220289Y388550D01*
X1220289Y388524D01*
X1220284Y388498D01*
X1220292Y388350D01*
X1220295Y388202D01*
X1220301Y388176D01*
X1220302Y388150D01*
X1220343Y388008D01*
X1220380Y387864D01*
X1220392Y387841D01*
X1220399Y387815D01*
X1220471Y387686D01*
X1220539Y387554D01*
X1220556Y387534D01*
X1220569Y387511D01*
X1220728Y387325D01*
X1221873Y386180D01*
X1223265Y382819D01*
X1223265Y379181D01*
X1221872Y375820D01*
X1219300Y373248D01*
X1215939Y371855D01*
X1197061Y371855D01*
X1193612Y373284D01*
X1193588Y373303D01*
X1193497Y373346D01*
X1193411Y373397D01*
X1193341Y373420D01*
X1193273Y373452D01*
X1193175Y373473D01*
X1193079Y373504D01*
X1193005Y373510D01*
X1192933Y373525D01*
X1192832Y373524D01*
X1192732Y373532D01*
X1192658Y373521D01*
X1192584Y373519D01*
X1192487Y373495D01*
X1192387Y373480D01*
X1192318Y373452D01*
X1192246Y373434D01*
X1192157Y373388D01*
X1192063Y373351D01*
X1192002Y373309D01*
X1191936Y373275D01*
X1191860Y373210D01*
X1191777Y373152D01*
X1191727Y373097D01*
X1191671Y373049D01*
X1191611Y372968D01*
X1191544Y372893D01*
X1191508Y372829D01*
X1191464Y372769D01*
X1191424Y372677D01*
X1191375Y372588D01*
X1191355Y372517D01*
X1191326Y372449D01*
X1191308Y372350D01*
X1191280Y372253D01*
X1191272Y372153D01*
X1191264Y372106D01*
X1191266Y372070D01*
X1191261Y372009D01*
X1191261Y365607D01*
X1191265Y365571D01*
X1191262Y365536D01*
X1191285Y365399D01*
X1191301Y365261D01*
X1191313Y365227D01*
X1191318Y365192D01*
X1191371Y365063D01*
X1191418Y364933D01*
X1191438Y364903D01*
X1191451Y364869D01*
X1191532Y364757D01*
X1191607Y364640D01*
X1191633Y364615D01*
X1191654Y364586D01*
X1191758Y364494D01*
X1191858Y364398D01*
X1191889Y364379D01*
X1191916Y364356D01*
X1192038Y364290D01*
X1192157Y364219D01*
X1192191Y364208D01*
X1192223Y364191D01*
X1192357Y364155D01*
X1192489Y364113D01*
X1192525Y364110D01*
X1192559Y364101D01*
X1192698Y364096D01*
X1192836Y364085D01*
X1192872Y364090D01*
X1192908Y364089D01*
X1193044Y364116D01*
X1193181Y364136D01*
X1193214Y364150D01*
X1193249Y364157D01*
X1193476Y364250D01*
X1194980Y365016D01*
X1196501Y365511D01*
X1198080Y365761D01*
X1203961Y365761D01*
X1203961Y356616D01*
X1203964Y356590D01*
X1203962Y356564D01*
X1203984Y356417D01*
X1204001Y356270D01*
X1204009Y356245D01*
X1204013Y356219D01*
X1204068Y356082D01*
X1204118Y355942D01*
X1204132Y355920D01*
X1204142Y355895D01*
X1204227Y355774D01*
X1204307Y355649D01*
X1204326Y355631D01*
X1204341Y355609D01*
X1204357Y355595D01*
X1204275Y355510D01*
X1204261Y355487D01*
X1204244Y355468D01*
X1204172Y355338D01*
X1204096Y355211D01*
X1204088Y355186D01*
X1204075Y355163D01*
X1204035Y355020D01*
X1203990Y354879D01*
X1203987Y354853D01*
X1203980Y354828D01*
X1203961Y354584D01*
X1203961Y345439D01*
X1198080Y345439D01*
X1196501Y345689D01*
X1194980Y346184D01*
X1193555Y346910D01*
X1192261Y347850D01*
X1191130Y348981D01*
X1190190Y350275D01*
X1189464Y351700D01*
X1188969Y353221D01*
X1188822Y354153D01*
X1188780Y354303D01*
X1188742Y354453D01*
X1188733Y354470D01*
X1188728Y354489D01*
X1188654Y354625D01*
X1188583Y354763D01*
X1188570Y354777D01*
X1188561Y354794D01*
X1188457Y354910D01*
X1188357Y355028D01*
X1188341Y355040D01*
X1188328Y355054D01*
X1188202Y355143D01*
X1188077Y355235D01*
X1188059Y355243D01*
X1188043Y355254D01*
X1187899Y355312D01*
X1187757Y355373D01*
X1187738Y355377D01*
X1187720Y355384D01*
X1187566Y355407D01*
X1187414Y355435D01*
X1187394Y355434D01*
X1187375Y355437D01*
X1187221Y355425D01*
X1187065Y355417D01*
X1187047Y355412D01*
X1187028Y355410D01*
X1186880Y355363D01*
X1186731Y355320D01*
X1186714Y355311D01*
X1186695Y355305D01*
X1186562Y355226D01*
X1186426Y355150D01*
X1186409Y355135D01*
X1186396Y355127D01*
X1186364Y355097D01*
X1186240Y354992D01*
X1174153Y342904D01*
X1174074Y342805D01*
X1173990Y342712D01*
X1173966Y342669D01*
X1173936Y342631D01*
X1173882Y342517D01*
X1173821Y342407D01*
X1173808Y342360D01*
X1173787Y342316D01*
X1173761Y342193D01*
X1173726Y342071D01*
X1173721Y342010D01*
X1173714Y341976D01*
X1173715Y341928D01*
X1173708Y341849D01*
X1173450Y341225D01*
X1173409Y341080D01*
X1173363Y340937D01*
X1173361Y340913D01*
X1173354Y340890D01*
X1173347Y340739D01*
X1173335Y340590D01*
X1173339Y340566D01*
X1173337Y340542D01*
X1173364Y340394D01*
X1173387Y340245D01*
X1173396Y340223D01*
X1173400Y340199D01*
X1173460Y340061D01*
X1173515Y339921D01*
X1173529Y339901D01*
X1173539Y339879D01*
X1173629Y339758D01*
X1173714Y339635D01*
X1173732Y339619D01*
X1173747Y339599D01*
X1173862Y339502D01*
X1173973Y339402D01*
X1173994Y339390D01*
X1174013Y339374D01*
X1174146Y339306D01*
X1174278Y339233D01*
X1174302Y339227D01*
X1174323Y339216D01*
X1174469Y339179D01*
X1174614Y339138D01*
X1174643Y339136D01*
X1174661Y339131D01*
X1174708Y339131D01*
X1174857Y339119D01*
X1261443Y339119D01*
X1261569Y339133D01*
X1261695Y339140D01*
X1261742Y339153D01*
X1261790Y339159D01*
X1261909Y339201D01*
X1262030Y339236D01*
X1262072Y339260D01*
X1262118Y339276D01*
X1262224Y339345D01*
X1262334Y339406D01*
X1262381Y339446D01*
X1262411Y339465D01*
X1262444Y339500D01*
X1262521Y339565D01*
X1315866Y392911D01*
X1414634Y392911D01*
X1535911Y271634D01*
X1535911Y223666D01*
X1524080Y211835D01*
X242011Y211835D01*
X241885Y211821D01*
X241759Y211814D01*
X241712Y211801D01*
X241664Y211795D01*
X241545Y211753D01*
X241424Y211718D01*
X241382Y211694D01*
X241336Y211678D01*
X241230Y211609D01*
X241120Y211548D01*
X241073Y211508D01*
X241043Y211489D01*
X241010Y211454D01*
X240933Y211389D01*
X233534Y203989D01*
X223666Y203989D01*
G37*
%LPD*%
G36*
X1520207Y219979D02*
X1520207Y219979D01*
X1520333Y219986D01*
X1520380Y219999D01*
X1520428Y220005D01*
X1520546Y220047D01*
X1520668Y220082D01*
X1520710Y220106D01*
X1520756Y220122D01*
X1520862Y220191D01*
X1520972Y220252D01*
X1521018Y220292D01*
X1521048Y220311D01*
X1521082Y220346D01*
X1521158Y220411D01*
X1522108Y221360D01*
X1522201Y221478D01*
X1522298Y221593D01*
X1522309Y221614D01*
X1522324Y221633D01*
X1522388Y221769D01*
X1522457Y221903D01*
X1522463Y221926D01*
X1522473Y221948D01*
X1522505Y222095D01*
X1522541Y222241D01*
X1522541Y222265D01*
X1522547Y222289D01*
X1522544Y222439D01*
X1522546Y222590D01*
X1522541Y222613D01*
X1522541Y222637D01*
X1522504Y222783D01*
X1522472Y222930D01*
X1522462Y222952D01*
X1522456Y222975D01*
X1522387Y223109D01*
X1522322Y223245D01*
X1522307Y223264D01*
X1522296Y223285D01*
X1522198Y223400D01*
X1522105Y223517D01*
X1522086Y223532D01*
X1522070Y223551D01*
X1521949Y223640D01*
X1521831Y223733D01*
X1521805Y223746D01*
X1521790Y223758D01*
X1521747Y223776D01*
X1521613Y223845D01*
X1520994Y224101D01*
X1519501Y225594D01*
X1518691Y227551D01*
X1518679Y227653D01*
X1518672Y227779D01*
X1518659Y227826D01*
X1518653Y227874D01*
X1518611Y227993D01*
X1518576Y228114D01*
X1518552Y228156D01*
X1518536Y228202D01*
X1518467Y228308D01*
X1518406Y228418D01*
X1518366Y228464D01*
X1518347Y228494D01*
X1518312Y228528D01*
X1518247Y228604D01*
X1510062Y236789D01*
X1509963Y236868D01*
X1509870Y236952D01*
X1509827Y236976D01*
X1509789Y237006D01*
X1509675Y237060D01*
X1509565Y237121D01*
X1509518Y237134D01*
X1509474Y237155D01*
X1509351Y237181D01*
X1509229Y237216D01*
X1509168Y237221D01*
X1509134Y237228D01*
X1509086Y237227D01*
X1508985Y237235D01*
X1439171Y237235D01*
X1439045Y237221D01*
X1438919Y237214D01*
X1438873Y237201D01*
X1438825Y237195D01*
X1438706Y237153D01*
X1438584Y237118D01*
X1438542Y237094D01*
X1438497Y237078D01*
X1438391Y237009D01*
X1438280Y236948D01*
X1438234Y236908D01*
X1438204Y236889D01*
X1438170Y236854D01*
X1438110Y236803D01*
X1436156Y235993D01*
X1434044Y235993D01*
X1432094Y236801D01*
X1430601Y238294D01*
X1429793Y240244D01*
X1429793Y242356D01*
X1430601Y244306D01*
X1432094Y245799D01*
X1434044Y246607D01*
X1436156Y246607D01*
X1438113Y245796D01*
X1438193Y245732D01*
X1438287Y245648D01*
X1438329Y245624D01*
X1438367Y245594D01*
X1438481Y245540D01*
X1438592Y245479D01*
X1438638Y245466D01*
X1438682Y245445D01*
X1438805Y245419D01*
X1438927Y245384D01*
X1438988Y245379D01*
X1439023Y245372D01*
X1439071Y245373D01*
X1439171Y245365D01*
X1512984Y245365D01*
X1523996Y234353D01*
X1524095Y234274D01*
X1524188Y234190D01*
X1524231Y234166D01*
X1524269Y234136D01*
X1524383Y234082D01*
X1524493Y234021D01*
X1524540Y234008D01*
X1524584Y233987D01*
X1524707Y233961D01*
X1524829Y233926D01*
X1524890Y233921D01*
X1524924Y233914D01*
X1524972Y233915D01*
X1525051Y233908D01*
X1525675Y233650D01*
X1525820Y233609D01*
X1525963Y233563D01*
X1525987Y233561D01*
X1526010Y233554D01*
X1526160Y233547D01*
X1526310Y233535D01*
X1526334Y233539D01*
X1526358Y233537D01*
X1526506Y233564D01*
X1526655Y233587D01*
X1526677Y233596D01*
X1526701Y233600D01*
X1526839Y233660D01*
X1526979Y233715D01*
X1526999Y233729D01*
X1527021Y233739D01*
X1527142Y233829D01*
X1527265Y233914D01*
X1527281Y233932D01*
X1527300Y233947D01*
X1527398Y234062D01*
X1527498Y234173D01*
X1527510Y234194D01*
X1527526Y234213D01*
X1527594Y234346D01*
X1527667Y234478D01*
X1527673Y234501D01*
X1527684Y234523D01*
X1527721Y234669D01*
X1527762Y234814D01*
X1527764Y234843D01*
X1527769Y234861D01*
X1527769Y234908D01*
X1527781Y235057D01*
X1527781Y260243D01*
X1527764Y260392D01*
X1527752Y260542D01*
X1527744Y260565D01*
X1527741Y260589D01*
X1527691Y260731D01*
X1527644Y260873D01*
X1527632Y260894D01*
X1527624Y260917D01*
X1527542Y261044D01*
X1527465Y261172D01*
X1527448Y261189D01*
X1527435Y261210D01*
X1527326Y261315D01*
X1527222Y261422D01*
X1527202Y261435D01*
X1527184Y261452D01*
X1527055Y261529D01*
X1526929Y261610D01*
X1526906Y261618D01*
X1526885Y261631D01*
X1526742Y261677D01*
X1526600Y261727D01*
X1526576Y261730D01*
X1526553Y261737D01*
X1526404Y261749D01*
X1526254Y261766D01*
X1526230Y261763D01*
X1526206Y261765D01*
X1526057Y261743D01*
X1525908Y261725D01*
X1525880Y261716D01*
X1525861Y261713D01*
X1525817Y261696D01*
X1525675Y261650D01*
X1525056Y261393D01*
X1522944Y261393D01*
X1520987Y262204D01*
X1520907Y262268D01*
X1520813Y262352D01*
X1520771Y262376D01*
X1520733Y262406D01*
X1520619Y262460D01*
X1520508Y262521D01*
X1520462Y262534D01*
X1520418Y262555D01*
X1520295Y262581D01*
X1520173Y262616D01*
X1520112Y262621D01*
X1520077Y262628D01*
X1520029Y262627D01*
X1519929Y262635D01*
X1433416Y262635D01*
X1320804Y375247D01*
X1320705Y375326D01*
X1320612Y375410D01*
X1320569Y375434D01*
X1320531Y375464D01*
X1320417Y375518D01*
X1320307Y375579D01*
X1320260Y375592D01*
X1320216Y375613D01*
X1320093Y375639D01*
X1319971Y375674D01*
X1319910Y375679D01*
X1319876Y375686D01*
X1319828Y375685D01*
X1319749Y375692D01*
X1317794Y376501D01*
X1316301Y377994D01*
X1316045Y378614D01*
X1315972Y378745D01*
X1315903Y378879D01*
X1315887Y378897D01*
X1315875Y378918D01*
X1315774Y379029D01*
X1315677Y379144D01*
X1315657Y379158D01*
X1315641Y379176D01*
X1315518Y379262D01*
X1315397Y379351D01*
X1315374Y379361D01*
X1315354Y379374D01*
X1315215Y379430D01*
X1315077Y379489D01*
X1315053Y379493D01*
X1315030Y379502D01*
X1314881Y379524D01*
X1314734Y379551D01*
X1314709Y379550D01*
X1314685Y379553D01*
X1314535Y379541D01*
X1314385Y379533D01*
X1314362Y379526D01*
X1314338Y379524D01*
X1314195Y379478D01*
X1314051Y379436D01*
X1314029Y379425D01*
X1314006Y379417D01*
X1313878Y379340D01*
X1313746Y379266D01*
X1313724Y379247D01*
X1313708Y379237D01*
X1313674Y379205D01*
X1313560Y379108D01*
X1291864Y357411D01*
X1291801Y357333D01*
X1291731Y357260D01*
X1291693Y357196D01*
X1291647Y357138D01*
X1291604Y357047D01*
X1291552Y356961D01*
X1291530Y356890D01*
X1291498Y356823D01*
X1291477Y356725D01*
X1291446Y356629D01*
X1291440Y356555D01*
X1291425Y356482D01*
X1291426Y356382D01*
X1291418Y356282D01*
X1291429Y356208D01*
X1291431Y356134D01*
X1291455Y356037D01*
X1291470Y355937D01*
X1291497Y355868D01*
X1291516Y355796D01*
X1291562Y355706D01*
X1291599Y355613D01*
X1291641Y355552D01*
X1291675Y355486D01*
X1291740Y355409D01*
X1291798Y355327D01*
X1291853Y355277D01*
X1291901Y355221D01*
X1291982Y355161D01*
X1292056Y355094D01*
X1292122Y355058D01*
X1292181Y355013D01*
X1292274Y354974D01*
X1292361Y354925D01*
X1292433Y354905D01*
X1292501Y354875D01*
X1292600Y354858D01*
X1292697Y354830D01*
X1292797Y354822D01*
X1292844Y354814D01*
X1292880Y354816D01*
X1292941Y354811D01*
X1300334Y354811D01*
X1396633Y258511D01*
X1396732Y258432D01*
X1396826Y258348D01*
X1396869Y258324D01*
X1396906Y258294D01*
X1397021Y258240D01*
X1397131Y258179D01*
X1397178Y258166D01*
X1397222Y258145D01*
X1397345Y258119D01*
X1397467Y258084D01*
X1397528Y258079D01*
X1397562Y258072D01*
X1397610Y258073D01*
X1397711Y258065D01*
X1507229Y258065D01*
X1507355Y258079D01*
X1507481Y258086D01*
X1507527Y258099D01*
X1507575Y258105D01*
X1507694Y258147D01*
X1507816Y258182D01*
X1507858Y258206D01*
X1507903Y258222D01*
X1508009Y258291D01*
X1508120Y258352D01*
X1508166Y258392D01*
X1508196Y258411D01*
X1508230Y258446D01*
X1508290Y258497D01*
X1510244Y259307D01*
X1512356Y259307D01*
X1514306Y258499D01*
X1515799Y257006D01*
X1516607Y255056D01*
X1516607Y252944D01*
X1515799Y250994D01*
X1514306Y249501D01*
X1512356Y248693D01*
X1510244Y248693D01*
X1508287Y249504D01*
X1508207Y249568D01*
X1508113Y249652D01*
X1508071Y249676D01*
X1508033Y249706D01*
X1507919Y249760D01*
X1507808Y249821D01*
X1507762Y249834D01*
X1507718Y249855D01*
X1507595Y249881D01*
X1507473Y249916D01*
X1507412Y249921D01*
X1507377Y249928D01*
X1507329Y249927D01*
X1507229Y249935D01*
X1393712Y249935D01*
X1302640Y341008D01*
X1302522Y341101D01*
X1302407Y341198D01*
X1302386Y341209D01*
X1302367Y341224D01*
X1302231Y341288D01*
X1302097Y341357D01*
X1302074Y341363D01*
X1302052Y341373D01*
X1301905Y341405D01*
X1301759Y341441D01*
X1301735Y341442D01*
X1301711Y341447D01*
X1301561Y341444D01*
X1301410Y341446D01*
X1301387Y341441D01*
X1301363Y341441D01*
X1301217Y341404D01*
X1301070Y341372D01*
X1301048Y341362D01*
X1301025Y341356D01*
X1300891Y341287D01*
X1300755Y341222D01*
X1300736Y341207D01*
X1300715Y341196D01*
X1300600Y341099D01*
X1300483Y341005D01*
X1300468Y340986D01*
X1300449Y340970D01*
X1300360Y340849D01*
X1300267Y340731D01*
X1300254Y340705D01*
X1300242Y340690D01*
X1300224Y340647D01*
X1300155Y340514D01*
X1299899Y339894D01*
X1298406Y338401D01*
X1296449Y337591D01*
X1296347Y337579D01*
X1296221Y337572D01*
X1296174Y337559D01*
X1296126Y337553D01*
X1296007Y337511D01*
X1295886Y337476D01*
X1295844Y337452D01*
X1295798Y337436D01*
X1295692Y337367D01*
X1295582Y337306D01*
X1295536Y337266D01*
X1295506Y337247D01*
X1295472Y337212D01*
X1295396Y337147D01*
X1271684Y313435D01*
X798416Y313435D01*
X774704Y337147D01*
X774605Y337226D01*
X774512Y337310D01*
X774469Y337334D01*
X774431Y337364D01*
X774317Y337418D01*
X774207Y337479D01*
X774160Y337492D01*
X774116Y337513D01*
X773993Y337539D01*
X773871Y337574D01*
X773810Y337579D01*
X773776Y337586D01*
X773728Y337585D01*
X773649Y337592D01*
X771694Y338401D01*
X770201Y339894D01*
X769387Y341860D01*
X769382Y341903D01*
X769380Y342004D01*
X769362Y342076D01*
X769353Y342150D01*
X769320Y342244D01*
X769295Y342342D01*
X769261Y342408D01*
X769236Y342478D01*
X769181Y342562D01*
X769135Y342651D01*
X769087Y342708D01*
X769047Y342770D01*
X768975Y342840D01*
X768910Y342917D01*
X768850Y342961D01*
X768796Y343013D01*
X768710Y343064D01*
X768629Y343124D01*
X768561Y343153D01*
X768497Y343192D01*
X768401Y343222D01*
X768309Y343262D01*
X768236Y343275D01*
X768165Y343298D01*
X768065Y343306D01*
X767966Y343324D01*
X767892Y343320D01*
X767818Y343326D01*
X767718Y343311D01*
X767618Y343306D01*
X767547Y343285D01*
X767473Y343274D01*
X767380Y343237D01*
X767283Y343209D01*
X767218Y343173D01*
X767149Y343145D01*
X767067Y343088D01*
X766979Y343039D01*
X766903Y342974D01*
X766863Y342946D01*
X766839Y342920D01*
X766793Y342880D01*
X763745Y339832D01*
X763666Y339733D01*
X763582Y339640D01*
X763558Y339597D01*
X763528Y339559D01*
X763474Y339445D01*
X763413Y339334D01*
X763400Y339288D01*
X763379Y339244D01*
X763353Y339121D01*
X763318Y338999D01*
X763313Y338938D01*
X763306Y338904D01*
X763307Y338856D01*
X763299Y338755D01*
X763299Y325750D01*
X760472Y322923D01*
X736313Y298765D01*
X736251Y298687D01*
X736181Y298614D01*
X736143Y298550D01*
X736097Y298492D01*
X736054Y298401D01*
X736002Y298315D01*
X735980Y298244D01*
X735948Y298177D01*
X735927Y298079D01*
X735896Y297983D01*
X735890Y297909D01*
X735875Y297836D01*
X735876Y297736D01*
X735868Y297636D01*
X735879Y297562D01*
X735881Y297488D01*
X735905Y297391D01*
X735920Y297291D01*
X735947Y297222D01*
X735966Y297150D01*
X736012Y297060D01*
X736049Y296967D01*
X736091Y296906D01*
X736125Y296840D01*
X736190Y296763D01*
X736248Y296681D01*
X736303Y296631D01*
X736351Y296575D01*
X736432Y296515D01*
X736506Y296448D01*
X736571Y296412D01*
X736631Y296367D01*
X736723Y296328D01*
X736811Y296279D01*
X736883Y296259D01*
X736951Y296229D01*
X737050Y296212D01*
X737147Y296184D01*
X737247Y296176D01*
X737294Y296168D01*
X737330Y296170D01*
X737391Y296165D01*
X821429Y296165D01*
X821555Y296179D01*
X821681Y296186D01*
X821727Y296199D01*
X821775Y296205D01*
X821894Y296247D01*
X822016Y296282D01*
X822058Y296306D01*
X822103Y296322D01*
X822209Y296391D01*
X822320Y296452D01*
X822366Y296492D01*
X822396Y296511D01*
X822430Y296546D01*
X822490Y296597D01*
X824444Y297407D01*
X826556Y297407D01*
X828506Y296599D01*
X829999Y295106D01*
X830807Y293156D01*
X830807Y291044D01*
X829999Y289094D01*
X828506Y287601D01*
X826556Y286793D01*
X824444Y286793D01*
X822487Y287604D01*
X822407Y287668D01*
X822313Y287752D01*
X822271Y287776D01*
X822233Y287806D01*
X822119Y287860D01*
X822008Y287921D01*
X821962Y287934D01*
X821918Y287955D01*
X821795Y287981D01*
X821673Y288016D01*
X821612Y288021D01*
X821577Y288028D01*
X821529Y288027D01*
X821429Y288035D01*
X737311Y288035D01*
X737185Y288021D01*
X737059Y288014D01*
X737012Y288001D01*
X736964Y287995D01*
X736845Y287953D01*
X736724Y287918D01*
X736682Y287894D01*
X736636Y287878D01*
X736530Y287809D01*
X736420Y287748D01*
X736373Y287708D01*
X736343Y287689D01*
X736310Y287654D01*
X736233Y287589D01*
X678034Y229389D01*
X668166Y229389D01*
X661189Y236366D01*
X661189Y246234D01*
X669859Y254903D01*
X669938Y255002D01*
X670022Y255096D01*
X670046Y255139D01*
X670076Y255176D01*
X670130Y255291D01*
X670191Y255401D01*
X670204Y255448D01*
X670225Y255492D01*
X670251Y255615D01*
X670286Y255737D01*
X670291Y255798D01*
X670298Y255832D01*
X670297Y255880D01*
X670305Y255981D01*
X670305Y313429D01*
X670291Y313555D01*
X670284Y313681D01*
X670271Y313727D01*
X670265Y313775D01*
X670223Y313894D01*
X670188Y314016D01*
X670164Y314058D01*
X670148Y314103D01*
X670079Y314209D01*
X670018Y314320D01*
X669978Y314366D01*
X669959Y314396D01*
X669924Y314430D01*
X669873Y314490D01*
X669063Y316444D01*
X669063Y318556D01*
X669871Y320506D01*
X671364Y321999D01*
X673314Y322807D01*
X675426Y322807D01*
X677376Y321999D01*
X679008Y320367D01*
X679028Y320351D01*
X679045Y320331D01*
X679165Y320242D01*
X679281Y320150D01*
X679305Y320139D01*
X679326Y320124D01*
X679462Y320065D01*
X679596Y320001D01*
X679622Y319996D01*
X679646Y319986D01*
X679792Y319959D01*
X679937Y319928D01*
X679963Y319928D01*
X679989Y319924D01*
X680137Y319931D01*
X680285Y319934D01*
X680311Y319940D01*
X680337Y319942D01*
X680479Y319983D01*
X680623Y320019D01*
X680646Y320031D01*
X680672Y320038D01*
X680801Y320111D01*
X680933Y320179D01*
X680953Y320196D01*
X680976Y320208D01*
X681162Y320367D01*
X682794Y321999D01*
X684744Y322807D01*
X686856Y322807D01*
X688813Y321996D01*
X688893Y321932D01*
X688987Y321848D01*
X689029Y321824D01*
X689067Y321794D01*
X689181Y321740D01*
X689292Y321679D01*
X689338Y321666D01*
X689382Y321645D01*
X689505Y321619D01*
X689627Y321584D01*
X689688Y321579D01*
X689723Y321572D01*
X689771Y321573D01*
X689871Y321565D01*
X719829Y321565D01*
X719955Y321579D01*
X720081Y321586D01*
X720127Y321599D01*
X720175Y321605D01*
X720294Y321647D01*
X720416Y321682D01*
X720458Y321706D01*
X720503Y321722D01*
X720609Y321791D01*
X720720Y321852D01*
X720766Y321892D01*
X720796Y321911D01*
X720830Y321946D01*
X720890Y321997D01*
X722844Y322807D01*
X724956Y322807D01*
X726906Y321999D01*
X728399Y320506D01*
X729207Y318556D01*
X729207Y316444D01*
X728399Y314494D01*
X726906Y313001D01*
X724956Y312193D01*
X722844Y312193D01*
X720887Y313004D01*
X720807Y313068D01*
X720713Y313152D01*
X720671Y313176D01*
X720633Y313206D01*
X720519Y313260D01*
X720408Y313321D01*
X720362Y313334D01*
X720318Y313355D01*
X720195Y313381D01*
X720073Y313416D01*
X720012Y313421D01*
X719977Y313428D01*
X719929Y313427D01*
X719829Y313435D01*
X689871Y313435D01*
X689745Y313421D01*
X689619Y313414D01*
X689573Y313401D01*
X689525Y313395D01*
X689406Y313353D01*
X689284Y313318D01*
X689242Y313294D01*
X689197Y313278D01*
X689091Y313209D01*
X688980Y313148D01*
X688934Y313108D01*
X688904Y313089D01*
X688870Y313054D01*
X688810Y313003D01*
X686856Y312193D01*
X684744Y312193D01*
X682794Y313001D01*
X681162Y314633D01*
X681141Y314649D01*
X681124Y314669D01*
X681005Y314758D01*
X680889Y314850D01*
X680865Y314861D01*
X680844Y314877D01*
X680708Y314935D01*
X680574Y314999D01*
X680548Y315004D01*
X680524Y315015D01*
X680378Y315041D01*
X680233Y315072D01*
X680207Y315072D01*
X680181Y315076D01*
X680033Y315069D01*
X679885Y315066D01*
X679859Y315060D01*
X679833Y315058D01*
X679691Y315017D01*
X679547Y314981D01*
X679523Y314969D01*
X679498Y314962D01*
X679369Y314889D01*
X679237Y314821D01*
X679217Y314804D01*
X679194Y314791D01*
X679008Y314633D01*
X678881Y314506D01*
X678802Y314407D01*
X678718Y314313D01*
X678694Y314271D01*
X678664Y314233D01*
X678610Y314119D01*
X678549Y314008D01*
X678536Y313961D01*
X678515Y313918D01*
X678489Y313794D01*
X678454Y313673D01*
X678449Y313612D01*
X678442Y313577D01*
X678443Y313529D01*
X678435Y313429D01*
X678435Y256061D01*
X678446Y255961D01*
X678448Y255860D01*
X678466Y255788D01*
X678475Y255714D01*
X678508Y255620D01*
X678533Y255522D01*
X678567Y255456D01*
X678592Y255386D01*
X678647Y255302D01*
X678693Y255213D01*
X678741Y255156D01*
X678781Y255093D01*
X678853Y255024D01*
X678918Y254947D01*
X678978Y254903D01*
X679032Y254851D01*
X679118Y254800D01*
X679199Y254740D01*
X679267Y254711D01*
X679331Y254672D01*
X679427Y254642D01*
X679519Y254602D01*
X679592Y254589D01*
X679663Y254566D01*
X679763Y254558D01*
X679862Y254540D01*
X679936Y254544D01*
X680010Y254538D01*
X680110Y254553D01*
X680210Y254558D01*
X680281Y254579D01*
X680355Y254590D01*
X680448Y254627D01*
X680545Y254655D01*
X680610Y254691D01*
X680679Y254719D01*
X680761Y254776D01*
X680849Y254825D01*
X680925Y254890D01*
X680965Y254918D01*
X680989Y254944D01*
X681035Y254983D01*
X754723Y328672D01*
X754802Y328771D01*
X754886Y328864D01*
X754910Y328907D01*
X754940Y328945D01*
X754994Y329059D01*
X755055Y329169D01*
X755068Y329216D01*
X755089Y329260D01*
X755115Y329383D01*
X755150Y329505D01*
X755155Y329566D01*
X755162Y329600D01*
X755161Y329648D01*
X755169Y329749D01*
X755169Y337587D01*
X755158Y337687D01*
X755156Y337787D01*
X755138Y337859D01*
X755129Y337933D01*
X755096Y338028D01*
X755071Y338125D01*
X755037Y338191D01*
X755012Y338261D01*
X754957Y338346D01*
X754911Y338435D01*
X754863Y338492D01*
X754823Y338554D01*
X754751Y338624D01*
X754686Y338700D01*
X754626Y338745D01*
X754572Y338796D01*
X754486Y338848D01*
X754405Y338908D01*
X754337Y338937D01*
X754273Y338975D01*
X754178Y339006D01*
X754085Y339046D01*
X754012Y339059D01*
X753941Y339081D01*
X753841Y339089D01*
X753742Y339107D01*
X753668Y339103D01*
X753594Y339109D01*
X753495Y339094D01*
X753394Y339089D01*
X753323Y339069D01*
X753249Y339058D01*
X753156Y339021D01*
X753059Y338993D01*
X752994Y338956D01*
X752925Y338929D01*
X752843Y338872D01*
X752755Y338823D01*
X752679Y338757D01*
X752639Y338730D01*
X752615Y338703D01*
X752569Y338664D01*
X752306Y338401D01*
X750349Y337591D01*
X750247Y337579D01*
X750121Y337572D01*
X750074Y337559D01*
X750026Y337553D01*
X749907Y337511D01*
X749786Y337476D01*
X749744Y337452D01*
X749698Y337436D01*
X749592Y337367D01*
X749482Y337306D01*
X749435Y337266D01*
X749405Y337247D01*
X749372Y337212D01*
X749296Y337147D01*
X741111Y328962D01*
X738284Y326135D01*
X416160Y326135D01*
X400365Y341930D01*
X400287Y341993D01*
X400214Y342062D01*
X400150Y342101D01*
X400092Y342147D01*
X400001Y342190D01*
X399915Y342241D01*
X399844Y342264D01*
X399777Y342296D01*
X399679Y342317D01*
X399583Y342347D01*
X399509Y342353D01*
X399436Y342369D01*
X399336Y342367D01*
X399236Y342375D01*
X399162Y342364D01*
X399088Y342363D01*
X398991Y342339D01*
X398891Y342324D01*
X398822Y342296D01*
X398750Y342278D01*
X398660Y342232D01*
X398567Y342195D01*
X398506Y342153D01*
X398440Y342119D01*
X398363Y342053D01*
X398281Y341996D01*
X398231Y341941D01*
X398175Y341893D01*
X398115Y341812D01*
X398048Y341737D01*
X398012Y341672D01*
X397967Y341612D01*
X397928Y341520D01*
X397879Y341432D01*
X397859Y341361D01*
X397829Y341292D01*
X397812Y341195D01*
X396372Y337720D01*
X393800Y335148D01*
X390439Y333755D01*
X371561Y333755D01*
X368200Y335148D01*
X365628Y337720D01*
X364235Y341081D01*
X364235Y342109D01*
X364224Y342209D01*
X364222Y342310D01*
X364204Y342382D01*
X364195Y342456D01*
X364162Y342550D01*
X364137Y342648D01*
X364103Y342714D01*
X364078Y342784D01*
X364023Y342868D01*
X363977Y342957D01*
X363929Y343014D01*
X363889Y343077D01*
X363817Y343146D01*
X363752Y343223D01*
X363692Y343267D01*
X363638Y343319D01*
X363552Y343370D01*
X363471Y343430D01*
X363403Y343459D01*
X363339Y343498D01*
X363243Y343528D01*
X363151Y343568D01*
X363078Y343581D01*
X363007Y343604D01*
X362907Y343612D01*
X362808Y343630D01*
X362734Y343626D01*
X362660Y343632D01*
X362560Y343617D01*
X362460Y343612D01*
X362389Y343591D01*
X362315Y343580D01*
X362222Y343543D01*
X362125Y343515D01*
X362060Y343479D01*
X361991Y343451D01*
X361909Y343394D01*
X361821Y343345D01*
X361745Y343280D01*
X361705Y343252D01*
X361681Y343226D01*
X361635Y343187D01*
X241013Y222565D01*
X240951Y222487D01*
X240881Y222414D01*
X240843Y222350D01*
X240797Y222292D01*
X240754Y222201D01*
X240702Y222115D01*
X240680Y222044D01*
X240648Y221977D01*
X240627Y221879D01*
X240596Y221783D01*
X240590Y221709D01*
X240575Y221636D01*
X240576Y221536D01*
X240568Y221436D01*
X240579Y221362D01*
X240581Y221288D01*
X240605Y221191D01*
X240620Y221091D01*
X240647Y221022D01*
X240666Y220950D01*
X240712Y220860D01*
X240749Y220767D01*
X240791Y220706D01*
X240825Y220640D01*
X240890Y220563D01*
X240948Y220481D01*
X241003Y220431D01*
X241051Y220375D01*
X241132Y220315D01*
X241206Y220248D01*
X241271Y220212D01*
X241331Y220167D01*
X241423Y220128D01*
X241511Y220079D01*
X241583Y220059D01*
X241651Y220029D01*
X241750Y220012D01*
X241847Y219984D01*
X241947Y219976D01*
X241994Y219968D01*
X242030Y219970D01*
X242091Y219965D01*
X1520081Y219965D01*
X1520207Y219979D01*
G37*
%LPC*%
G36*
X672044Y413793D02*
X672044Y413793D01*
X670094Y414601D01*
X668601Y416094D01*
X667793Y418044D01*
X667793Y420156D01*
X668601Y422106D01*
X670099Y423604D01*
X670230Y423677D01*
X670379Y423760D01*
X670380Y423761D01*
X670382Y423762D01*
X670568Y423921D01*
X671208Y424560D01*
X671301Y424678D01*
X671398Y424793D01*
X671409Y424814D01*
X671424Y424833D01*
X671488Y424969D01*
X671557Y425103D01*
X671563Y425126D01*
X671573Y425148D01*
X671605Y425295D01*
X671641Y425441D01*
X671641Y425465D01*
X671647Y425489D01*
X671644Y425639D01*
X671646Y425790D01*
X671641Y425813D01*
X671641Y425837D01*
X671604Y425983D01*
X671572Y426130D01*
X671562Y426152D01*
X671556Y426175D01*
X671487Y426309D01*
X671422Y426445D01*
X671407Y426464D01*
X671396Y426485D01*
X671298Y426600D01*
X671205Y426717D01*
X671186Y426732D01*
X671170Y426751D01*
X671049Y426840D01*
X670931Y426933D01*
X670905Y426946D01*
X670890Y426958D01*
X670847Y426976D01*
X670713Y427045D01*
X670094Y427301D01*
X668601Y428794D01*
X667793Y430744D01*
X667793Y432856D01*
X668601Y434806D01*
X670094Y436299D01*
X672051Y437109D01*
X672153Y437121D01*
X672279Y437128D01*
X672326Y437141D01*
X672374Y437147D01*
X672493Y437189D01*
X672614Y437224D01*
X672656Y437248D01*
X672702Y437264D01*
X672808Y437333D01*
X672918Y437394D01*
X672964Y437434D01*
X672994Y437453D01*
X673028Y437488D01*
X673104Y437553D01*
X681289Y445738D01*
X681368Y445837D01*
X681452Y445930D01*
X681476Y445973D01*
X681506Y446011D01*
X681560Y446125D01*
X681621Y446235D01*
X681634Y446282D01*
X681655Y446326D01*
X681681Y446449D01*
X681716Y446571D01*
X681721Y446632D01*
X681728Y446666D01*
X681727Y446714D01*
X681735Y446815D01*
X681735Y558009D01*
X681724Y558109D01*
X681722Y558210D01*
X681704Y558282D01*
X681695Y558356D01*
X681662Y558450D01*
X681637Y558548D01*
X681603Y558614D01*
X681578Y558684D01*
X681523Y558768D01*
X681477Y558857D01*
X681429Y558914D01*
X681389Y558977D01*
X681317Y559046D01*
X681252Y559123D01*
X681192Y559167D01*
X681138Y559219D01*
X681052Y559270D01*
X680971Y559330D01*
X680903Y559359D01*
X680839Y559398D01*
X680743Y559428D01*
X680651Y559468D01*
X680578Y559481D01*
X680507Y559504D01*
X680407Y559512D01*
X680308Y559530D01*
X680234Y559526D01*
X680160Y559532D01*
X680060Y559517D01*
X679960Y559512D01*
X679889Y559491D01*
X679815Y559480D01*
X679722Y559443D01*
X679625Y559415D01*
X679560Y559379D01*
X679491Y559351D01*
X679409Y559294D01*
X679321Y559245D01*
X679245Y559180D01*
X679205Y559152D01*
X679181Y559126D01*
X679135Y559087D01*
X666153Y546104D01*
X666074Y546005D01*
X665990Y545912D01*
X665966Y545869D01*
X665936Y545831D01*
X665882Y545717D01*
X665821Y545607D01*
X665808Y545560D01*
X665787Y545516D01*
X665761Y545393D01*
X665726Y545271D01*
X665721Y545210D01*
X665714Y545176D01*
X665715Y545128D01*
X665708Y545049D01*
X664899Y543094D01*
X663406Y541601D01*
X661456Y540793D01*
X659344Y540793D01*
X657394Y541601D01*
X655901Y543094D01*
X655093Y545044D01*
X655093Y547156D01*
X655901Y549106D01*
X657394Y550599D01*
X659351Y551409D01*
X659453Y551421D01*
X659579Y551428D01*
X659626Y551441D01*
X659674Y551447D01*
X659793Y551489D01*
X659914Y551524D01*
X659956Y551548D01*
X660002Y551564D01*
X660108Y551633D01*
X660218Y551694D01*
X660264Y551734D01*
X660294Y551753D01*
X660328Y551788D01*
X660404Y551853D01*
X674685Y566134D01*
X674764Y566233D01*
X674848Y566326D01*
X674872Y566369D01*
X674902Y566407D01*
X674956Y566521D01*
X675017Y566631D01*
X675030Y566678D01*
X675051Y566722D01*
X675077Y566845D01*
X675112Y566967D01*
X675117Y567028D01*
X675124Y567062D01*
X675123Y567110D01*
X675131Y567211D01*
X675131Y575919D01*
X681289Y582077D01*
X681368Y582176D01*
X681452Y582270D01*
X681476Y582312D01*
X681506Y582350D01*
X681560Y582464D01*
X681621Y582575D01*
X681634Y582621D01*
X681655Y582665D01*
X681681Y582788D01*
X681716Y582910D01*
X681721Y582971D01*
X681728Y583006D01*
X681727Y583054D01*
X681735Y583154D01*
X681735Y605529D01*
X681721Y605655D01*
X681714Y605781D01*
X681701Y605827D01*
X681695Y605875D01*
X681653Y605994D01*
X681618Y606116D01*
X681594Y606158D01*
X681578Y606203D01*
X681509Y606309D01*
X681448Y606420D01*
X681408Y606466D01*
X681389Y606496D01*
X681354Y606530D01*
X681303Y606590D01*
X680493Y608544D01*
X680493Y610656D01*
X680750Y611275D01*
X680791Y611420D01*
X680837Y611563D01*
X680839Y611587D01*
X680846Y611610D01*
X680853Y611760D01*
X680865Y611910D01*
X680861Y611934D01*
X680863Y611958D01*
X680836Y612106D01*
X680813Y612255D01*
X680804Y612277D01*
X680800Y612301D01*
X680740Y612439D01*
X680685Y612579D01*
X680671Y612599D01*
X680661Y612621D01*
X680571Y612742D01*
X680486Y612865D01*
X680468Y612881D01*
X680453Y612900D01*
X680338Y612998D01*
X680227Y613098D01*
X680206Y613110D01*
X680187Y613126D01*
X680054Y613194D01*
X679922Y613267D01*
X679899Y613273D01*
X679877Y613284D01*
X679731Y613321D01*
X679586Y613362D01*
X679557Y613364D01*
X679539Y613369D01*
X679492Y613369D01*
X679343Y613381D01*
X656257Y613381D01*
X656131Y613367D01*
X656005Y613360D01*
X655958Y613347D01*
X655910Y613341D01*
X655791Y613299D01*
X655670Y613264D01*
X655628Y613240D01*
X655582Y613224D01*
X655476Y613155D01*
X655366Y613094D01*
X655319Y613054D01*
X655289Y613035D01*
X655277Y613022D01*
X655276Y613021D01*
X655253Y612998D01*
X655179Y612935D01*
X652634Y610389D01*
X642766Y610389D01*
X622667Y630489D01*
X622568Y630568D01*
X622474Y630652D01*
X622431Y630676D01*
X622394Y630706D01*
X622279Y630760D01*
X622169Y630821D01*
X622122Y630834D01*
X622078Y630855D01*
X621955Y630881D01*
X621833Y630916D01*
X621772Y630921D01*
X621738Y630928D01*
X621690Y630927D01*
X621589Y630935D01*
X296171Y630935D01*
X296045Y630921D01*
X295919Y630914D01*
X295873Y630901D01*
X295825Y630895D01*
X295706Y630853D01*
X295584Y630818D01*
X295542Y630794D01*
X295497Y630778D01*
X295391Y630709D01*
X295280Y630648D01*
X295234Y630608D01*
X295204Y630589D01*
X295170Y630554D01*
X295110Y630503D01*
X293156Y629693D01*
X291044Y629693D01*
X289094Y630501D01*
X287601Y631994D01*
X286793Y633944D01*
X286793Y636056D01*
X287601Y638006D01*
X289094Y639499D01*
X291044Y640307D01*
X293156Y640307D01*
X295113Y639496D01*
X295193Y639432D01*
X295287Y639348D01*
X295329Y639324D01*
X295367Y639294D01*
X295481Y639240D01*
X295592Y639179D01*
X295638Y639166D01*
X295682Y639145D01*
X295805Y639119D01*
X295927Y639084D01*
X295988Y639079D01*
X296023Y639072D01*
X296071Y639073D01*
X296171Y639065D01*
X625588Y639065D01*
X645688Y618965D01*
X645787Y618886D01*
X645880Y618802D01*
X645923Y618778D01*
X645961Y618748D01*
X646075Y618694D01*
X646186Y618633D01*
X646232Y618620D01*
X646276Y618599D01*
X646399Y618573D01*
X646521Y618538D01*
X646582Y618533D01*
X646616Y618526D01*
X646664Y618527D01*
X646765Y618519D01*
X648635Y618519D01*
X648761Y618533D01*
X648887Y618540D01*
X648934Y618553D01*
X648982Y618559D01*
X649100Y618601D01*
X649222Y618636D01*
X649264Y618660D01*
X649310Y618676D01*
X649416Y618745D01*
X649526Y618806D01*
X649572Y618846D01*
X649602Y618865D01*
X649636Y618900D01*
X649712Y618965D01*
X652258Y621511D01*
X1073338Y621511D01*
X1079496Y615353D01*
X1079595Y615274D01*
X1079688Y615190D01*
X1079731Y615166D01*
X1079769Y615136D01*
X1079883Y615082D01*
X1079993Y615021D01*
X1080040Y615008D01*
X1080084Y614987D01*
X1080207Y614961D01*
X1080329Y614926D01*
X1080390Y614921D01*
X1080424Y614914D01*
X1080472Y614915D01*
X1080551Y614908D01*
X1082506Y614099D01*
X1083999Y612606D01*
X1084809Y610649D01*
X1084821Y610547D01*
X1084828Y610421D01*
X1084841Y610374D01*
X1084847Y610326D01*
X1084889Y610207D01*
X1084924Y610086D01*
X1084948Y610044D01*
X1084964Y609998D01*
X1085033Y609892D01*
X1085094Y609782D01*
X1085134Y609736D01*
X1085153Y609706D01*
X1085188Y609672D01*
X1085253Y609596D01*
X1147990Y546858D01*
X1148108Y546765D01*
X1148223Y546668D01*
X1148244Y546657D01*
X1148263Y546641D01*
X1148399Y546577D01*
X1148533Y546509D01*
X1148557Y546503D01*
X1148578Y546493D01*
X1148725Y546461D01*
X1148871Y546425D01*
X1148896Y546424D01*
X1148919Y546419D01*
X1149069Y546422D01*
X1149220Y546420D01*
X1149244Y546425D01*
X1149268Y546425D01*
X1149413Y546462D01*
X1149560Y546494D01*
X1149582Y546504D01*
X1149606Y546510D01*
X1149740Y546579D01*
X1149875Y546644D01*
X1149894Y546659D01*
X1149915Y546670D01*
X1150030Y546767D01*
X1150147Y546861D01*
X1150162Y546880D01*
X1150181Y546896D01*
X1150270Y547017D01*
X1150363Y547135D01*
X1150377Y547161D01*
X1150388Y547176D01*
X1150407Y547219D01*
X1150475Y547352D01*
X1151204Y549113D01*
X1151268Y549193D01*
X1151352Y549287D01*
X1151376Y549329D01*
X1151406Y549367D01*
X1151460Y549481D01*
X1151521Y549592D01*
X1151534Y549638D01*
X1151555Y549682D01*
X1151581Y549805D01*
X1151616Y549927D01*
X1151621Y549988D01*
X1151628Y550023D01*
X1151627Y550071D01*
X1151635Y550171D01*
X1151635Y567429D01*
X1151621Y567555D01*
X1151614Y567681D01*
X1151601Y567727D01*
X1151595Y567775D01*
X1151553Y567894D01*
X1151518Y568016D01*
X1151494Y568058D01*
X1151478Y568103D01*
X1151409Y568209D01*
X1151348Y568320D01*
X1151308Y568366D01*
X1151289Y568396D01*
X1151254Y568430D01*
X1151203Y568490D01*
X1150393Y570444D01*
X1150393Y572556D01*
X1151201Y574506D01*
X1152694Y575999D01*
X1154644Y576807D01*
X1156756Y576807D01*
X1158706Y575999D01*
X1160199Y574506D01*
X1161007Y572556D01*
X1161007Y570444D01*
X1160196Y568487D01*
X1160132Y568407D01*
X1160048Y568313D01*
X1160024Y568271D01*
X1159994Y568233D01*
X1159940Y568119D01*
X1159879Y568008D01*
X1159866Y567962D01*
X1159845Y567918D01*
X1159819Y567795D01*
X1159784Y567673D01*
X1159779Y567612D01*
X1159772Y567577D01*
X1159773Y567529D01*
X1159765Y567429D01*
X1159765Y550171D01*
X1159779Y550045D01*
X1159786Y549919D01*
X1159799Y549873D01*
X1159805Y549825D01*
X1159847Y549706D01*
X1159882Y549584D01*
X1159906Y549542D01*
X1159922Y549497D01*
X1159991Y549391D01*
X1160052Y549280D01*
X1160092Y549234D01*
X1160111Y549204D01*
X1160146Y549170D01*
X1160197Y549110D01*
X1161007Y547156D01*
X1161007Y545044D01*
X1160199Y543094D01*
X1158706Y541601D01*
X1156952Y540875D01*
X1156821Y540802D01*
X1156687Y540733D01*
X1156669Y540717D01*
X1156648Y540705D01*
X1156536Y540605D01*
X1156422Y540507D01*
X1156407Y540488D01*
X1156389Y540471D01*
X1156304Y540348D01*
X1156215Y540227D01*
X1156205Y540204D01*
X1156191Y540185D01*
X1156136Y540045D01*
X1156077Y539907D01*
X1156072Y539883D01*
X1156063Y539860D01*
X1156042Y539712D01*
X1156015Y539564D01*
X1156016Y539540D01*
X1156013Y539516D01*
X1156025Y539365D01*
X1156033Y539216D01*
X1156040Y539192D01*
X1156042Y539168D01*
X1156088Y539025D01*
X1156129Y538881D01*
X1156141Y538860D01*
X1156149Y538837D01*
X1156226Y538708D01*
X1156300Y538577D01*
X1156318Y538554D01*
X1156328Y538538D01*
X1156361Y538504D01*
X1156458Y538390D01*
X1172465Y522384D01*
X1172465Y473971D01*
X1172479Y473845D01*
X1172486Y473719D01*
X1172499Y473673D01*
X1172505Y473625D01*
X1172547Y473506D01*
X1172582Y473384D01*
X1172606Y473342D01*
X1172622Y473297D01*
X1172691Y473191D01*
X1172752Y473080D01*
X1172792Y473034D01*
X1172811Y473004D01*
X1172846Y472970D01*
X1172897Y472910D01*
X1173707Y470956D01*
X1173707Y468844D01*
X1172899Y466894D01*
X1171406Y465401D01*
X1169456Y464593D01*
X1167344Y464593D01*
X1165394Y465401D01*
X1163901Y466894D01*
X1163093Y468844D01*
X1163093Y470956D01*
X1163904Y472913D01*
X1163968Y472993D01*
X1164052Y473087D01*
X1164076Y473129D01*
X1164106Y473167D01*
X1164160Y473281D01*
X1164221Y473392D01*
X1164234Y473438D01*
X1164255Y473482D01*
X1164281Y473605D01*
X1164316Y473727D01*
X1164321Y473788D01*
X1164328Y473823D01*
X1164327Y473871D01*
X1164335Y473971D01*
X1164335Y518385D01*
X1164321Y518511D01*
X1164314Y518637D01*
X1164301Y518684D01*
X1164295Y518732D01*
X1164253Y518851D01*
X1164218Y518972D01*
X1164194Y519014D01*
X1164178Y519060D01*
X1164109Y519166D01*
X1164048Y519276D01*
X1164008Y519322D01*
X1163989Y519352D01*
X1163954Y519386D01*
X1163889Y519462D01*
X1079504Y603847D01*
X1079405Y603926D01*
X1079312Y604010D01*
X1079269Y604034D01*
X1079231Y604064D01*
X1079117Y604118D01*
X1079007Y604179D01*
X1078960Y604192D01*
X1078916Y604213D01*
X1078793Y604239D01*
X1078671Y604274D01*
X1078610Y604279D01*
X1078576Y604286D01*
X1078528Y604285D01*
X1078449Y604292D01*
X1076494Y605101D01*
X1075001Y606594D01*
X1074191Y608551D01*
X1074179Y608653D01*
X1074172Y608779D01*
X1074159Y608826D01*
X1074153Y608874D01*
X1074111Y608993D01*
X1074076Y609114D01*
X1074052Y609156D01*
X1074036Y609202D01*
X1073967Y609308D01*
X1073906Y609418D01*
X1073866Y609464D01*
X1073847Y609494D01*
X1073812Y609528D01*
X1073747Y609604D01*
X1070416Y612935D01*
X1070317Y613014D01*
X1070224Y613098D01*
X1070181Y613122D01*
X1070143Y613152D01*
X1070029Y613206D01*
X1069919Y613267D01*
X1069872Y613280D01*
X1069828Y613301D01*
X1069705Y613327D01*
X1069583Y613362D01*
X1069522Y613367D01*
X1069488Y613374D01*
X1069440Y613373D01*
X1069339Y613381D01*
X692257Y613381D01*
X692108Y613364D01*
X691958Y613352D01*
X691935Y613344D01*
X691911Y613341D01*
X691769Y613291D01*
X691627Y613244D01*
X691606Y613232D01*
X691583Y613224D01*
X691456Y613142D01*
X691328Y613065D01*
X691311Y613048D01*
X691290Y613035D01*
X691185Y612926D01*
X691078Y612822D01*
X691065Y612802D01*
X691048Y612784D01*
X690971Y612655D01*
X690890Y612529D01*
X690882Y612506D01*
X690869Y612485D01*
X690823Y612342D01*
X690773Y612200D01*
X690770Y612176D01*
X690763Y612153D01*
X690751Y612004D01*
X690734Y611854D01*
X690737Y611830D01*
X690735Y611806D01*
X690757Y611657D01*
X690775Y611508D01*
X690784Y611480D01*
X690787Y611461D01*
X690804Y611417D01*
X690850Y611275D01*
X691107Y610656D01*
X691107Y608544D01*
X690296Y606587D01*
X690232Y606507D01*
X690148Y606413D01*
X690124Y606371D01*
X690094Y606333D01*
X690040Y606219D01*
X689979Y606108D01*
X689966Y606062D01*
X689945Y606018D01*
X689919Y605895D01*
X689884Y605773D01*
X689879Y605712D01*
X689872Y605677D01*
X689873Y605629D01*
X689865Y605529D01*
X689865Y584991D01*
X689876Y584891D01*
X689878Y584790D01*
X689896Y584718D01*
X689905Y584644D01*
X689938Y584550D01*
X689963Y584452D01*
X689997Y584386D01*
X690022Y584316D01*
X690077Y584232D01*
X690123Y584143D01*
X690171Y584086D01*
X690211Y584023D01*
X690283Y583954D01*
X690348Y583877D01*
X690408Y583833D01*
X690462Y583781D01*
X690548Y583730D01*
X690629Y583670D01*
X690697Y583641D01*
X690761Y583602D01*
X690856Y583572D01*
X690949Y583532D01*
X691022Y583519D01*
X691093Y583496D01*
X691193Y583488D01*
X691292Y583470D01*
X691366Y583474D01*
X691440Y583468D01*
X691539Y583483D01*
X691640Y583488D01*
X691711Y583509D01*
X691785Y583520D01*
X691878Y583557D01*
X691975Y583585D01*
X692040Y583621D01*
X692109Y583649D01*
X692191Y583706D01*
X692279Y583755D01*
X692355Y583820D01*
X692395Y583848D01*
X692419Y583874D01*
X692465Y583914D01*
X692747Y584196D01*
X692826Y584295D01*
X692910Y584388D01*
X692934Y584431D01*
X692964Y584469D01*
X693018Y584583D01*
X693079Y584693D01*
X693092Y584740D01*
X693113Y584784D01*
X693139Y584907D01*
X693174Y585029D01*
X693179Y585089D01*
X693186Y585124D01*
X693185Y585173D01*
X693192Y585251D01*
X694001Y587206D01*
X695494Y588699D01*
X697444Y589507D01*
X699556Y589507D01*
X701506Y588699D01*
X702999Y587206D01*
X703807Y585256D01*
X703807Y583144D01*
X702999Y581194D01*
X701506Y579701D01*
X699549Y578891D01*
X699447Y578879D01*
X699321Y578872D01*
X699274Y578859D01*
X699226Y578853D01*
X699107Y578811D01*
X698986Y578776D01*
X698944Y578752D01*
X698898Y578736D01*
X698792Y578667D01*
X698682Y578606D01*
X698636Y578566D01*
X698606Y578547D01*
X698572Y578512D01*
X698496Y578447D01*
X690311Y570262D01*
X690247Y570182D01*
X690187Y570120D01*
X690175Y570100D01*
X690148Y570070D01*
X690124Y570027D01*
X690094Y569989D01*
X690040Y569875D01*
X690036Y569868D01*
X690008Y569821D01*
X690005Y569811D01*
X689979Y569765D01*
X689966Y569718D01*
X689945Y569674D01*
X689919Y569551D01*
X689884Y569429D01*
X689879Y569368D01*
X689872Y569334D01*
X689873Y569286D01*
X689865Y569185D01*
X689865Y483391D01*
X689876Y483291D01*
X689878Y483190D01*
X689896Y483118D01*
X689905Y483044D01*
X689938Y482950D01*
X689963Y482852D01*
X689997Y482786D01*
X690022Y482716D01*
X690077Y482632D01*
X690123Y482543D01*
X690171Y482486D01*
X690211Y482423D01*
X690283Y482354D01*
X690348Y482277D01*
X690408Y482233D01*
X690462Y482181D01*
X690548Y482130D01*
X690629Y482070D01*
X690697Y482041D01*
X690761Y482002D01*
X690857Y481972D01*
X690949Y481932D01*
X691022Y481919D01*
X691093Y481896D01*
X691193Y481888D01*
X691292Y481870D01*
X691366Y481874D01*
X691440Y481868D01*
X691540Y481883D01*
X691640Y481888D01*
X691711Y481909D01*
X691785Y481920D01*
X691878Y481957D01*
X691975Y481985D01*
X692040Y482021D01*
X692109Y482049D01*
X692191Y482106D01*
X692279Y482155D01*
X692355Y482220D01*
X692395Y482248D01*
X692419Y482274D01*
X692465Y482313D01*
X709516Y499365D01*
X814484Y499365D01*
X816865Y496984D01*
X816865Y493616D01*
X816295Y493046D01*
X816216Y492947D01*
X816132Y492854D01*
X816108Y492811D01*
X816078Y492773D01*
X816024Y492659D01*
X815963Y492549D01*
X815950Y492502D01*
X815929Y492458D01*
X815903Y492335D01*
X815868Y492213D01*
X815863Y492152D01*
X815856Y492118D01*
X815857Y492070D01*
X815849Y491969D01*
X815849Y475604D01*
X815863Y475478D01*
X815870Y475352D01*
X815883Y475306D01*
X815889Y475258D01*
X815931Y475139D01*
X815966Y475017D01*
X815990Y474975D01*
X816006Y474929D01*
X816075Y474823D01*
X816136Y474713D01*
X816176Y474667D01*
X816195Y474637D01*
X816230Y474603D01*
X816295Y474527D01*
X817427Y473395D01*
X817526Y473316D01*
X817620Y473232D01*
X817662Y473208D01*
X817700Y473178D01*
X817814Y473124D01*
X817925Y473063D01*
X817971Y473050D01*
X818015Y473029D01*
X818138Y473003D01*
X818260Y472968D01*
X818321Y472963D01*
X818356Y472956D01*
X818404Y472957D01*
X818504Y472949D01*
X833113Y472949D01*
X833239Y472963D01*
X833365Y472970D01*
X833411Y472983D01*
X833459Y472989D01*
X833578Y473031D01*
X833700Y473066D01*
X833742Y473090D01*
X833787Y473106D01*
X833893Y473175D01*
X834004Y473236D01*
X834050Y473276D01*
X834080Y473295D01*
X834114Y473330D01*
X834190Y473395D01*
X835194Y474399D01*
X836266Y474843D01*
X836353Y474891D01*
X836445Y474932D01*
X836505Y474976D01*
X836570Y475012D01*
X836645Y475079D01*
X836725Y475139D01*
X836773Y475196D01*
X836828Y475246D01*
X836885Y475329D01*
X836950Y475405D01*
X836984Y475472D01*
X837027Y475533D01*
X837063Y475626D01*
X837109Y475716D01*
X837127Y475788D01*
X837154Y475857D01*
X837169Y475956D01*
X837193Y476054D01*
X837194Y476128D01*
X837205Y476202D01*
X837197Y476302D01*
X837198Y476402D01*
X837182Y476475D01*
X837176Y476549D01*
X837145Y476645D01*
X837124Y476743D01*
X837092Y476810D01*
X837069Y476881D01*
X837017Y476967D01*
X836974Y477058D01*
X836928Y477116D01*
X836889Y477179D01*
X836820Y477251D01*
X836757Y477330D01*
X836698Y477376D01*
X836647Y477429D01*
X836562Y477484D01*
X836483Y477546D01*
X836394Y477592D01*
X836353Y477618D01*
X836320Y477630D01*
X836266Y477657D01*
X835194Y478101D01*
X833701Y479594D01*
X833257Y480666D01*
X833208Y480753D01*
X833168Y480846D01*
X833124Y480905D01*
X833088Y480970D01*
X833020Y481045D01*
X832961Y481125D01*
X832904Y481173D01*
X832854Y481228D01*
X832771Y481285D01*
X832695Y481350D01*
X832628Y481384D01*
X832567Y481427D01*
X832474Y481463D01*
X832384Y481509D01*
X832312Y481527D01*
X832243Y481554D01*
X832143Y481569D01*
X832046Y481593D01*
X831972Y481594D01*
X831898Y481605D01*
X831798Y481597D01*
X831698Y481598D01*
X831625Y481582D01*
X831551Y481576D01*
X831455Y481545D01*
X831357Y481524D01*
X831290Y481492D01*
X831219Y481469D01*
X831133Y481417D01*
X831042Y481374D01*
X830984Y481328D01*
X830921Y481290D01*
X830849Y481220D01*
X830770Y481157D01*
X830724Y481098D01*
X830671Y481047D01*
X830616Y480962D01*
X830554Y480883D01*
X830508Y480794D01*
X830482Y480753D01*
X830470Y480720D01*
X830443Y480666D01*
X829999Y479594D01*
X828506Y478101D01*
X826556Y477293D01*
X824444Y477293D01*
X822494Y478101D01*
X821001Y479594D01*
X820193Y481544D01*
X820193Y483656D01*
X821004Y485613D01*
X821068Y485693D01*
X821152Y485787D01*
X821176Y485829D01*
X821206Y485867D01*
X821260Y485981D01*
X821321Y486092D01*
X821334Y486138D01*
X821355Y486182D01*
X821381Y486305D01*
X821416Y486427D01*
X821421Y486488D01*
X821428Y486523D01*
X821427Y486571D01*
X821435Y486671D01*
X821435Y529329D01*
X821421Y529455D01*
X821414Y529581D01*
X821401Y529627D01*
X821395Y529675D01*
X821353Y529794D01*
X821318Y529916D01*
X821294Y529958D01*
X821278Y530003D01*
X821209Y530109D01*
X821148Y530220D01*
X821108Y530266D01*
X821089Y530296D01*
X821054Y530330D01*
X821003Y530390D01*
X820193Y532344D01*
X820193Y534456D01*
X821001Y536406D01*
X822494Y537899D01*
X824444Y538707D01*
X826556Y538707D01*
X828506Y537899D01*
X829999Y536406D01*
X830807Y534456D01*
X830807Y532344D01*
X829996Y530387D01*
X829932Y530307D01*
X829848Y530213D01*
X829824Y530171D01*
X829794Y530133D01*
X829740Y530019D01*
X829679Y529908D01*
X829666Y529862D01*
X829645Y529818D01*
X829619Y529695D01*
X829584Y529573D01*
X829579Y529512D01*
X829572Y529477D01*
X829573Y529429D01*
X829565Y529329D01*
X829565Y486671D01*
X829579Y486545D01*
X829586Y486419D01*
X829599Y486373D01*
X829605Y486325D01*
X829647Y486206D01*
X829682Y486084D01*
X829706Y486042D01*
X829722Y485997D01*
X829791Y485891D01*
X829852Y485780D01*
X829892Y485734D01*
X829911Y485704D01*
X829946Y485670D01*
X829997Y485610D01*
X830443Y484534D01*
X830491Y484447D01*
X830531Y484354D01*
X830576Y484295D01*
X830612Y484230D01*
X830679Y484155D01*
X830739Y484075D01*
X830796Y484027D01*
X830846Y483972D01*
X830929Y483915D01*
X831005Y483850D01*
X831072Y483816D01*
X831133Y483773D01*
X831226Y483737D01*
X831316Y483691D01*
X831388Y483673D01*
X831457Y483646D01*
X831557Y483631D01*
X831654Y483607D01*
X831728Y483606D01*
X831802Y483595D01*
X831902Y483603D01*
X832002Y483602D01*
X832075Y483618D01*
X832149Y483624D01*
X832245Y483655D01*
X832343Y483676D01*
X832410Y483708D01*
X832481Y483731D01*
X832567Y483783D01*
X832658Y483826D01*
X832716Y483872D01*
X832779Y483910D01*
X832851Y483980D01*
X832930Y484043D01*
X832976Y484101D01*
X833029Y484153D01*
X833084Y484238D01*
X833146Y484317D01*
X833192Y484406D01*
X833218Y484447D01*
X833230Y484480D01*
X833257Y484534D01*
X833704Y485613D01*
X833768Y485693D01*
X833852Y485787D01*
X833876Y485829D01*
X833906Y485867D01*
X833960Y485981D01*
X834021Y486092D01*
X834034Y486138D01*
X834055Y486182D01*
X834081Y486305D01*
X834116Y486427D01*
X834121Y486488D01*
X834128Y486523D01*
X834127Y486571D01*
X834135Y486671D01*
X834135Y516629D01*
X834121Y516755D01*
X834114Y516881D01*
X834101Y516927D01*
X834095Y516975D01*
X834053Y517094D01*
X834018Y517216D01*
X833994Y517258D01*
X833978Y517303D01*
X833909Y517409D01*
X833848Y517520D01*
X833808Y517566D01*
X833789Y517596D01*
X833754Y517630D01*
X833703Y517690D01*
X832893Y519644D01*
X832893Y521756D01*
X833701Y523706D01*
X835194Y525199D01*
X837144Y526007D01*
X839256Y526007D01*
X841206Y525199D01*
X842699Y523706D01*
X843507Y521756D01*
X843507Y519644D01*
X842696Y517687D01*
X842632Y517607D01*
X842548Y517513D01*
X842524Y517471D01*
X842494Y517433D01*
X842440Y517319D01*
X842379Y517208D01*
X842366Y517162D01*
X842345Y517118D01*
X842319Y516995D01*
X842284Y516873D01*
X842279Y516812D01*
X842272Y516777D01*
X842273Y516729D01*
X842265Y516629D01*
X842265Y486671D01*
X842279Y486545D01*
X842286Y486419D01*
X842299Y486373D01*
X842305Y486325D01*
X842347Y486206D01*
X842382Y486084D01*
X842406Y486042D01*
X842422Y485997D01*
X842491Y485891D01*
X842552Y485780D01*
X842592Y485734D01*
X842611Y485704D01*
X842646Y485670D01*
X842697Y485610D01*
X843507Y483656D01*
X843507Y481544D01*
X842699Y479594D01*
X841206Y478101D01*
X840134Y477657D01*
X840108Y477642D01*
X840104Y477641D01*
X840096Y477636D01*
X840047Y477608D01*
X839955Y477569D01*
X839895Y477524D01*
X839830Y477488D01*
X839755Y477420D01*
X839675Y477361D01*
X839627Y477304D01*
X839572Y477254D01*
X839515Y477171D01*
X839450Y477095D01*
X839416Y477028D01*
X839373Y476967D01*
X839337Y476874D01*
X839291Y476784D01*
X839273Y476712D01*
X839246Y476643D01*
X839231Y476544D01*
X839207Y476446D01*
X839206Y476372D01*
X839195Y476298D01*
X839203Y476198D01*
X839202Y476098D01*
X839218Y476025D01*
X839224Y475951D01*
X839255Y475855D01*
X839276Y475757D01*
X839308Y475690D01*
X839331Y475619D01*
X839383Y475533D01*
X839426Y475442D01*
X839472Y475384D01*
X839510Y475321D01*
X839581Y475248D01*
X839643Y475170D01*
X839701Y475124D01*
X839753Y475071D01*
X839838Y475016D01*
X839917Y474954D01*
X840006Y474908D01*
X840047Y474882D01*
X840080Y474870D01*
X840134Y474843D01*
X841206Y474399D01*
X842699Y472906D01*
X843507Y470956D01*
X843507Y468844D01*
X842699Y466894D01*
X841206Y465401D01*
X840134Y464957D01*
X840047Y464909D01*
X839955Y464868D01*
X839895Y464824D01*
X839830Y464788D01*
X839755Y464721D01*
X839675Y464661D01*
X839627Y464604D01*
X839572Y464554D01*
X839515Y464471D01*
X839450Y464395D01*
X839416Y464328D01*
X839373Y464267D01*
X839337Y464174D01*
X839291Y464084D01*
X839273Y464012D01*
X839246Y463943D01*
X839231Y463844D01*
X839207Y463746D01*
X839206Y463672D01*
X839195Y463598D01*
X839203Y463498D01*
X839202Y463398D01*
X839218Y463325D01*
X839224Y463251D01*
X839255Y463155D01*
X839276Y463057D01*
X839308Y462990D01*
X839331Y462919D01*
X839383Y462833D01*
X839426Y462742D01*
X839472Y462684D01*
X839511Y462621D01*
X839580Y462549D01*
X839643Y462470D01*
X839702Y462424D01*
X839753Y462371D01*
X839838Y462316D01*
X839917Y462254D01*
X840006Y462208D01*
X840047Y462182D01*
X840080Y462170D01*
X840134Y462143D01*
X841206Y461699D01*
X842699Y460206D01*
X843507Y458256D01*
X843507Y456144D01*
X842699Y454194D01*
X841206Y452701D01*
X839256Y451893D01*
X837144Y451893D01*
X835187Y452704D01*
X835107Y452768D01*
X835013Y452852D01*
X834971Y452876D01*
X834933Y452906D01*
X834819Y452960D01*
X834708Y453021D01*
X834662Y453034D01*
X834618Y453055D01*
X834495Y453081D01*
X834373Y453116D01*
X834312Y453121D01*
X834277Y453128D01*
X834229Y453127D01*
X834129Y453135D01*
X798416Y453135D01*
X773462Y478089D01*
X773363Y478168D01*
X773270Y478252D01*
X773227Y478276D01*
X773189Y478306D01*
X773075Y478360D01*
X772965Y478421D01*
X772918Y478434D01*
X772874Y478455D01*
X772751Y478481D01*
X772629Y478516D01*
X772568Y478521D01*
X772534Y478528D01*
X772486Y478527D01*
X772385Y478535D01*
X713515Y478535D01*
X713389Y478521D01*
X713263Y478514D01*
X713216Y478501D01*
X713168Y478495D01*
X713049Y478453D01*
X712928Y478418D01*
X712886Y478394D01*
X712840Y478378D01*
X712734Y478309D01*
X712624Y478248D01*
X712578Y478208D01*
X712548Y478189D01*
X712514Y478154D01*
X712438Y478089D01*
X703519Y469170D01*
X703440Y469071D01*
X703356Y468978D01*
X703332Y468935D01*
X703302Y468897D01*
X703248Y468783D01*
X703187Y468673D01*
X703174Y468626D01*
X703153Y468582D01*
X703127Y468459D01*
X703092Y468337D01*
X703087Y468276D01*
X703080Y468242D01*
X703081Y468194D01*
X703073Y468093D01*
X703073Y435589D01*
X690811Y423327D01*
X690763Y423267D01*
X690709Y423214D01*
X690655Y423131D01*
X690594Y423054D01*
X690562Y422985D01*
X690520Y422921D01*
X690487Y422828D01*
X690445Y422739D01*
X690429Y422664D01*
X690404Y422592D01*
X690393Y422494D01*
X690372Y422398D01*
X690373Y422322D01*
X690365Y422246D01*
X690376Y422148D01*
X690378Y422050D01*
X690397Y421976D01*
X690406Y421900D01*
X690451Y421758D01*
X690463Y421712D01*
X690472Y421695D01*
X690481Y421667D01*
X691107Y420156D01*
X691107Y418044D01*
X690299Y416094D01*
X688806Y414601D01*
X686856Y413793D01*
X684744Y413793D01*
X682794Y414601D01*
X681301Y416094D01*
X680857Y417166D01*
X680808Y417253D01*
X680769Y417345D01*
X680724Y417405D01*
X680688Y417470D01*
X680620Y417545D01*
X680561Y417625D01*
X680504Y417673D01*
X680454Y417728D01*
X680371Y417785D01*
X680295Y417850D01*
X680228Y417884D01*
X680167Y417927D01*
X680074Y417963D01*
X679984Y418009D01*
X679912Y418027D01*
X679843Y418054D01*
X679744Y418069D01*
X679646Y418093D01*
X679572Y418094D01*
X679498Y418105D01*
X679398Y418097D01*
X679298Y418098D01*
X679225Y418082D01*
X679151Y418076D01*
X679055Y418045D01*
X678957Y418024D01*
X678890Y417992D01*
X678819Y417969D01*
X678733Y417917D01*
X678642Y417874D01*
X678584Y417828D01*
X678521Y417790D01*
X678448Y417719D01*
X678370Y417657D01*
X678324Y417599D01*
X678271Y417547D01*
X678216Y417462D01*
X678154Y417383D01*
X678108Y417294D01*
X678082Y417253D01*
X678070Y417220D01*
X678043Y417166D01*
X677599Y416094D01*
X676106Y414601D01*
X674156Y413793D01*
X672044Y413793D01*
G37*
%LPD*%
%LPC*%
G36*
X710144Y807493D02*
X710144Y807493D01*
X708194Y808301D01*
X706701Y809794D01*
X705893Y811744D01*
X705893Y813856D01*
X706701Y815806D01*
X708194Y817299D01*
X710144Y818107D01*
X712256Y818107D01*
X714213Y817296D01*
X714293Y817232D01*
X714387Y817148D01*
X714429Y817124D01*
X714467Y817094D01*
X714581Y817040D01*
X714692Y816979D01*
X714738Y816966D01*
X714782Y816945D01*
X714905Y816919D01*
X715027Y816884D01*
X715088Y816879D01*
X715123Y816872D01*
X715171Y816873D01*
X715271Y816865D01*
X1102585Y816865D01*
X1102711Y816879D01*
X1102837Y816886D01*
X1102884Y816899D01*
X1102932Y816905D01*
X1103051Y816947D01*
X1103172Y816982D01*
X1103214Y817006D01*
X1103260Y817022D01*
X1103366Y817091D01*
X1103476Y817152D01*
X1103522Y817192D01*
X1103552Y817211D01*
X1103586Y817246D01*
X1103662Y817311D01*
X1162647Y876296D01*
X1162726Y876395D01*
X1162810Y876488D01*
X1162834Y876531D01*
X1162864Y876569D01*
X1162918Y876683D01*
X1162979Y876793D01*
X1162992Y876840D01*
X1163013Y876884D01*
X1163039Y877007D01*
X1163074Y877129D01*
X1163079Y877190D01*
X1163086Y877224D01*
X1163085Y877272D01*
X1163092Y877351D01*
X1163901Y879306D01*
X1165394Y880799D01*
X1167344Y881607D01*
X1169456Y881607D01*
X1171406Y880799D01*
X1172899Y879306D01*
X1173707Y877356D01*
X1173707Y875244D01*
X1172899Y873294D01*
X1171406Y871801D01*
X1169449Y870991D01*
X1169347Y870979D01*
X1169221Y870972D01*
X1169174Y870959D01*
X1169126Y870953D01*
X1169007Y870911D01*
X1168886Y870876D01*
X1168844Y870852D01*
X1168798Y870836D01*
X1168692Y870767D01*
X1168582Y870706D01*
X1168536Y870666D01*
X1168506Y870647D01*
X1168472Y870612D01*
X1168396Y870547D01*
X1106584Y808735D01*
X715271Y808735D01*
X715145Y808721D01*
X715019Y808714D01*
X714973Y808701D01*
X714925Y808695D01*
X714806Y808653D01*
X714684Y808618D01*
X714642Y808594D01*
X714597Y808578D01*
X714491Y808509D01*
X714380Y808448D01*
X714334Y808408D01*
X714304Y808389D01*
X714270Y808354D01*
X714210Y808303D01*
X712256Y807493D01*
X710144Y807493D01*
G37*
%LPD*%
%LPC*%
G36*
X141417Y867898D02*
X141417Y867898D01*
X131509Y872946D01*
X123646Y880809D01*
X118598Y890717D01*
X116858Y901700D01*
X118598Y912683D01*
X123646Y922591D01*
X131509Y930454D01*
X141417Y935502D01*
X152400Y937242D01*
X163383Y935502D01*
X173291Y930454D01*
X181154Y922591D01*
X186202Y912683D01*
X187942Y901700D01*
X186202Y890717D01*
X181154Y880809D01*
X173291Y872946D01*
X163383Y867898D01*
X152400Y866158D01*
X141417Y867898D01*
G37*
%LPD*%
%LPC*%
G36*
X243017Y474198D02*
X243017Y474198D01*
X233109Y479246D01*
X225246Y487109D01*
X220198Y497017D01*
X218458Y508000D01*
X220198Y518983D01*
X225246Y528891D01*
X233109Y536754D01*
X243017Y541802D01*
X254000Y543542D01*
X264983Y541802D01*
X274891Y536754D01*
X282754Y528891D01*
X287802Y518983D01*
X289542Y508000D01*
X287802Y497017D01*
X282754Y487109D01*
X274891Y479246D01*
X264983Y474198D01*
X254000Y472458D01*
X243017Y474198D01*
G37*
%LPD*%
%LPC*%
G36*
X1436817Y867898D02*
X1436817Y867898D01*
X1426909Y872946D01*
X1419046Y880809D01*
X1413998Y890717D01*
X1412258Y901700D01*
X1413998Y912683D01*
X1419046Y922591D01*
X1426909Y930454D01*
X1436817Y935502D01*
X1447800Y937242D01*
X1458783Y935502D01*
X1468691Y930454D01*
X1476554Y922591D01*
X1481602Y912683D01*
X1483342Y901700D01*
X1481602Y890717D01*
X1476554Y880809D01*
X1468691Y872946D01*
X1458783Y867898D01*
X1447800Y866158D01*
X1436817Y867898D01*
G37*
%LPD*%
%LPC*%
G36*
X141417Y67798D02*
X141417Y67798D01*
X131509Y72846D01*
X123646Y80709D01*
X118598Y90617D01*
X116858Y101600D01*
X118598Y112583D01*
X123646Y122491D01*
X131509Y130354D01*
X141417Y135402D01*
X152400Y137142D01*
X163383Y135402D01*
X173291Y130354D01*
X181154Y122491D01*
X186202Y112583D01*
X187942Y101600D01*
X186202Y90617D01*
X181154Y80709D01*
X173291Y72846D01*
X163383Y67798D01*
X152400Y66058D01*
X141417Y67798D01*
G37*
%LPD*%
%LPC*%
G36*
X1436817Y80498D02*
X1436817Y80498D01*
X1426909Y85546D01*
X1419046Y93409D01*
X1413998Y103317D01*
X1412258Y114300D01*
X1413998Y125283D01*
X1419046Y135191D01*
X1426909Y143054D01*
X1436817Y148102D01*
X1447800Y149842D01*
X1458783Y148102D01*
X1468691Y143054D01*
X1476554Y135191D01*
X1481602Y125283D01*
X1483342Y114300D01*
X1481602Y103317D01*
X1476554Y93409D01*
X1468691Y85546D01*
X1458783Y80498D01*
X1447800Y78758D01*
X1436817Y80498D01*
G37*
%LPD*%
%LPC*%
G36*
X757756Y924425D02*
X757756Y924425D01*
X754163Y925913D01*
X751413Y928663D01*
X749925Y932256D01*
X749925Y936144D01*
X751413Y939737D01*
X754288Y942611D01*
X754381Y942729D01*
X754478Y942844D01*
X754489Y942865D01*
X754504Y942884D01*
X754569Y943020D01*
X754637Y943154D01*
X754643Y943177D01*
X754653Y943199D01*
X754685Y943346D01*
X754721Y943492D01*
X754721Y943516D01*
X754726Y943540D01*
X754724Y943690D01*
X754726Y943841D01*
X754721Y943864D01*
X754721Y943888D01*
X754684Y944034D01*
X754652Y944181D01*
X754641Y944203D01*
X754636Y944226D01*
X754567Y944360D01*
X754502Y944496D01*
X754487Y944515D01*
X754476Y944536D01*
X754378Y944651D01*
X754285Y944768D01*
X754266Y944783D01*
X754250Y944802D01*
X754129Y944891D01*
X754011Y944984D01*
X753985Y944997D01*
X753970Y945009D01*
X753926Y945027D01*
X753793Y945096D01*
X750829Y946323D01*
X746423Y950729D01*
X744039Y956485D01*
X744039Y962715D01*
X746423Y968471D01*
X750829Y972877D01*
X756585Y975261D01*
X762815Y975261D01*
X768571Y972877D01*
X771323Y970125D01*
X771343Y970108D01*
X771360Y970088D01*
X771480Y970000D01*
X771596Y969908D01*
X771620Y969897D01*
X771641Y969881D01*
X771777Y969823D01*
X771911Y969759D01*
X771937Y969754D01*
X771961Y969743D01*
X772107Y969717D01*
X772252Y969686D01*
X772278Y969686D01*
X772304Y969682D01*
X772452Y969689D01*
X772600Y969692D01*
X772626Y969698D01*
X772652Y969700D01*
X772794Y969741D01*
X772938Y969777D01*
X772961Y969789D01*
X772987Y969796D01*
X773116Y969869D01*
X773248Y969936D01*
X773268Y969953D01*
X773291Y969966D01*
X773477Y970125D01*
X776229Y972877D01*
X781985Y975261D01*
X788215Y975261D01*
X793971Y972877D01*
X798377Y968471D01*
X800761Y962715D01*
X800761Y956485D01*
X798377Y950729D01*
X793879Y946231D01*
X793863Y946211D01*
X793843Y946194D01*
X793754Y946074D01*
X793662Y945958D01*
X793651Y945935D01*
X793636Y945914D01*
X793577Y945777D01*
X793514Y945643D01*
X793508Y945618D01*
X793498Y945594D01*
X793471Y945447D01*
X793440Y945303D01*
X793441Y945277D01*
X793436Y945251D01*
X793444Y945102D01*
X793446Y944954D01*
X793453Y944929D01*
X793454Y944903D01*
X793495Y944760D01*
X793531Y944616D01*
X793543Y944593D01*
X793550Y944568D01*
X793623Y944438D01*
X793691Y944306D01*
X793708Y944286D01*
X793721Y944263D01*
X793879Y944077D01*
X794875Y943082D01*
X794875Y925318D01*
X793982Y924425D01*
X776218Y924425D01*
X775325Y925318D01*
X775325Y943082D01*
X776321Y944077D01*
X776337Y944098D01*
X776357Y944115D01*
X776445Y944234D01*
X776538Y944350D01*
X776549Y944374D01*
X776564Y944395D01*
X776623Y944531D01*
X776686Y944665D01*
X776692Y944691D01*
X776702Y944715D01*
X776729Y944861D01*
X776760Y945006D01*
X776759Y945032D01*
X776764Y945058D01*
X776756Y945207D01*
X776754Y945354D01*
X776747Y945380D01*
X776746Y945406D01*
X776705Y945549D01*
X776669Y945692D01*
X776657Y945716D01*
X776650Y945741D01*
X776577Y945871D01*
X776509Y946002D01*
X776492Y946022D01*
X776479Y946045D01*
X776321Y946231D01*
X773477Y949075D01*
X773457Y949092D01*
X773440Y949112D01*
X773320Y949200D01*
X773204Y949292D01*
X773180Y949303D01*
X773159Y949319D01*
X773023Y949377D01*
X772889Y949441D01*
X772863Y949446D01*
X772839Y949457D01*
X772693Y949483D01*
X772548Y949514D01*
X772522Y949514D01*
X772496Y949518D01*
X772348Y949511D01*
X772200Y949508D01*
X772174Y949502D01*
X772148Y949500D01*
X772006Y949459D01*
X771862Y949423D01*
X771839Y949411D01*
X771813Y949404D01*
X771684Y949332D01*
X771552Y949264D01*
X771532Y949247D01*
X771509Y949234D01*
X771323Y949075D01*
X768571Y946323D01*
X765607Y945096D01*
X765475Y945023D01*
X765342Y944954D01*
X765323Y944938D01*
X765302Y944926D01*
X765191Y944825D01*
X765076Y944728D01*
X765062Y944708D01*
X765044Y944692D01*
X764958Y944568D01*
X764869Y944448D01*
X764859Y944425D01*
X764846Y944405D01*
X764790Y944265D01*
X764731Y944127D01*
X764727Y944104D01*
X764718Y944081D01*
X764696Y943933D01*
X764669Y943784D01*
X764671Y943760D01*
X764667Y943736D01*
X764680Y943586D01*
X764687Y943436D01*
X764694Y943413D01*
X764696Y943389D01*
X764742Y943246D01*
X764784Y943102D01*
X764796Y943080D01*
X764803Y943057D01*
X764881Y942929D01*
X764954Y942797D01*
X764973Y942775D01*
X764983Y942759D01*
X765016Y942725D01*
X765112Y942611D01*
X767987Y939737D01*
X769475Y936144D01*
X769475Y932256D01*
X767987Y928663D01*
X765237Y925913D01*
X761644Y924425D01*
X757756Y924425D01*
G37*
%LPD*%
%LPC*%
G36*
X519644Y680493D02*
X519644Y680493D01*
X517694Y681301D01*
X516201Y682794D01*
X515393Y684744D01*
X515393Y686856D01*
X516204Y688813D01*
X516268Y688893D01*
X516352Y688987D01*
X516376Y689029D01*
X516406Y689067D01*
X516460Y689181D01*
X516521Y689292D01*
X516534Y689338D01*
X516555Y689382D01*
X516581Y689505D01*
X516616Y689627D01*
X516621Y689688D01*
X516628Y689723D01*
X516627Y689771D01*
X516635Y689871D01*
X516635Y712884D01*
X603847Y800096D01*
X603926Y800195D01*
X604010Y800288D01*
X604034Y800331D01*
X604064Y800369D01*
X604118Y800483D01*
X604179Y800593D01*
X604192Y800640D01*
X604213Y800684D01*
X604239Y800807D01*
X604274Y800929D01*
X604279Y800990D01*
X604286Y801024D01*
X604285Y801072D01*
X604292Y801151D01*
X605101Y803106D01*
X606594Y804599D01*
X608544Y805407D01*
X610656Y805407D01*
X612606Y804599D01*
X614099Y803106D01*
X614907Y801156D01*
X614907Y799044D01*
X614099Y797094D01*
X612606Y795601D01*
X610649Y794791D01*
X610547Y794779D01*
X610421Y794772D01*
X610374Y794759D01*
X610326Y794753D01*
X610207Y794711D01*
X610086Y794676D01*
X610044Y794652D01*
X609998Y794636D01*
X609892Y794567D01*
X609782Y794506D01*
X609736Y794466D01*
X609706Y794447D01*
X609672Y794412D01*
X609596Y794347D01*
X525211Y709962D01*
X525132Y709863D01*
X525048Y709770D01*
X525024Y709727D01*
X524994Y709689D01*
X524940Y709575D01*
X524879Y709465D01*
X524866Y709418D01*
X524845Y709374D01*
X524819Y709251D01*
X524784Y709129D01*
X524779Y709068D01*
X524772Y709034D01*
X524773Y708986D01*
X524765Y708885D01*
X524765Y689871D01*
X524779Y689745D01*
X524786Y689619D01*
X524799Y689573D01*
X524805Y689525D01*
X524847Y689406D01*
X524882Y689284D01*
X524906Y689242D01*
X524922Y689197D01*
X524991Y689091D01*
X525052Y688980D01*
X525092Y688934D01*
X525111Y688904D01*
X525146Y688870D01*
X525197Y688810D01*
X526007Y686856D01*
X526007Y684744D01*
X525199Y682794D01*
X523706Y681301D01*
X521756Y680493D01*
X519644Y680493D01*
G37*
%LPD*%
%LPC*%
G36*
X633944Y528093D02*
X633944Y528093D01*
X631987Y528904D01*
X631907Y528968D01*
X631813Y529052D01*
X631771Y529076D01*
X631733Y529106D01*
X631619Y529160D01*
X631508Y529221D01*
X631462Y529234D01*
X631418Y529255D01*
X631295Y529281D01*
X631173Y529316D01*
X631112Y529321D01*
X631077Y529328D01*
X631029Y529327D01*
X630929Y529335D01*
X620616Y529335D01*
X558804Y591147D01*
X558705Y591226D01*
X558612Y591310D01*
X558569Y591334D01*
X558531Y591364D01*
X558417Y591418D01*
X558307Y591479D01*
X558260Y591492D01*
X558216Y591513D01*
X558093Y591539D01*
X557971Y591574D01*
X557910Y591579D01*
X557876Y591586D01*
X557828Y591585D01*
X557749Y591592D01*
X555794Y592401D01*
X554301Y593894D01*
X553493Y595844D01*
X553493Y597956D01*
X554301Y599906D01*
X555794Y601399D01*
X557744Y602207D01*
X559856Y602207D01*
X561806Y601399D01*
X563299Y599906D01*
X564109Y597949D01*
X564121Y597847D01*
X564128Y597721D01*
X564141Y597674D01*
X564147Y597626D01*
X564189Y597507D01*
X564224Y597386D01*
X564248Y597344D01*
X564264Y597298D01*
X564333Y597192D01*
X564394Y597082D01*
X564434Y597036D01*
X564453Y597006D01*
X564488Y596972D01*
X564553Y596896D01*
X623538Y537911D01*
X623637Y537832D01*
X623730Y537748D01*
X623773Y537724D01*
X623811Y537694D01*
X623925Y537640D01*
X624035Y537579D01*
X624082Y537566D01*
X624126Y537545D01*
X624249Y537519D01*
X624371Y537484D01*
X624432Y537479D01*
X624466Y537472D01*
X624514Y537473D01*
X624615Y537465D01*
X630929Y537465D01*
X631055Y537479D01*
X631181Y537486D01*
X631227Y537499D01*
X631275Y537505D01*
X631394Y537547D01*
X631516Y537582D01*
X631558Y537606D01*
X631603Y537622D01*
X631709Y537691D01*
X631820Y537752D01*
X631866Y537792D01*
X631896Y537811D01*
X631930Y537846D01*
X631990Y537897D01*
X633944Y538707D01*
X636056Y538707D01*
X638006Y537899D01*
X639499Y536406D01*
X640307Y534456D01*
X640307Y532344D01*
X639499Y530394D01*
X638006Y528901D01*
X636056Y528093D01*
X633944Y528093D01*
G37*
%LPD*%
%LPC*%
G36*
X849844Y488723D02*
X849844Y488723D01*
X847894Y489531D01*
X846401Y491024D01*
X845593Y492974D01*
X845593Y495086D01*
X846404Y497043D01*
X846468Y497123D01*
X846552Y497217D01*
X846576Y497259D01*
X846606Y497297D01*
X846660Y497411D01*
X846721Y497522D01*
X846734Y497568D01*
X846755Y497612D01*
X846781Y497735D01*
X846816Y497857D01*
X846821Y497918D01*
X846828Y497953D01*
X846827Y498001D01*
X846835Y498101D01*
X846835Y556485D01*
X846821Y556611D01*
X846814Y556737D01*
X846801Y556784D01*
X846795Y556832D01*
X846753Y556951D01*
X846718Y557072D01*
X846694Y557114D01*
X846678Y557160D01*
X846609Y557266D01*
X846548Y557376D01*
X846508Y557422D01*
X846489Y557452D01*
X846454Y557486D01*
X846389Y557562D01*
X838204Y565747D01*
X838105Y565826D01*
X838012Y565910D01*
X837969Y565934D01*
X837931Y565964D01*
X837817Y566018D01*
X837707Y566079D01*
X837660Y566092D01*
X837616Y566113D01*
X837493Y566139D01*
X837371Y566174D01*
X837310Y566179D01*
X837276Y566186D01*
X837228Y566185D01*
X837149Y566192D01*
X835194Y567001D01*
X833701Y568494D01*
X832893Y570444D01*
X832893Y572556D01*
X833701Y574506D01*
X835194Y575999D01*
X837144Y576807D01*
X839256Y576807D01*
X841206Y575999D01*
X842699Y574506D01*
X843509Y572549D01*
X843521Y572447D01*
X843528Y572321D01*
X843541Y572274D01*
X843547Y572226D01*
X843589Y572107D01*
X843624Y571986D01*
X843648Y571944D01*
X843664Y571898D01*
X843733Y571792D01*
X843794Y571682D01*
X843834Y571636D01*
X843853Y571606D01*
X843888Y571572D01*
X843953Y571496D01*
X854965Y560484D01*
X854965Y498101D01*
X854979Y497975D01*
X854986Y497849D01*
X854999Y497803D01*
X855005Y497755D01*
X855047Y497636D01*
X855082Y497514D01*
X855106Y497472D01*
X855122Y497427D01*
X855191Y497321D01*
X855252Y497210D01*
X855292Y497164D01*
X855311Y497134D01*
X855346Y497100D01*
X855397Y497040D01*
X856207Y495086D01*
X856207Y492974D01*
X855399Y491024D01*
X853906Y489531D01*
X851956Y488723D01*
X849844Y488723D01*
G37*
%LPD*%
%LPC*%
G36*
X1421344Y693193D02*
X1421344Y693193D01*
X1419394Y694001D01*
X1417901Y695494D01*
X1417093Y697444D01*
X1417093Y699556D01*
X1417901Y701506D01*
X1419394Y702999D01*
X1421344Y703807D01*
X1423456Y703807D01*
X1425413Y702996D01*
X1425493Y702932D01*
X1425587Y702848D01*
X1425629Y702824D01*
X1425667Y702794D01*
X1425781Y702740D01*
X1425892Y702679D01*
X1425938Y702666D01*
X1425982Y702645D01*
X1426105Y702619D01*
X1426227Y702584D01*
X1426288Y702579D01*
X1426323Y702572D01*
X1426371Y702573D01*
X1426471Y702565D01*
X1483585Y702565D01*
X1483711Y702579D01*
X1483837Y702586D01*
X1483884Y702599D01*
X1483932Y702605D01*
X1484051Y702647D01*
X1484172Y702682D01*
X1484214Y702706D01*
X1484260Y702722D01*
X1484366Y702791D01*
X1484476Y702852D01*
X1484522Y702892D01*
X1484552Y702911D01*
X1484586Y702946D01*
X1484662Y703011D01*
X1492847Y711196D01*
X1492926Y711295D01*
X1493010Y711388D01*
X1493034Y711431D01*
X1493064Y711469D01*
X1493118Y711583D01*
X1493179Y711693D01*
X1493192Y711740D01*
X1493213Y711784D01*
X1493239Y711907D01*
X1493274Y712029D01*
X1493279Y712090D01*
X1493286Y712124D01*
X1493285Y712172D01*
X1493292Y712251D01*
X1494101Y714206D01*
X1495594Y715699D01*
X1497544Y716507D01*
X1499656Y716507D01*
X1501606Y715699D01*
X1503099Y714206D01*
X1503907Y712256D01*
X1503907Y710144D01*
X1503099Y708194D01*
X1501606Y706701D01*
X1499649Y705891D01*
X1499547Y705879D01*
X1499421Y705872D01*
X1499374Y705859D01*
X1499326Y705853D01*
X1499207Y705811D01*
X1499086Y705776D01*
X1499044Y705752D01*
X1498998Y705736D01*
X1498892Y705667D01*
X1498782Y705606D01*
X1498736Y705566D01*
X1498706Y705547D01*
X1498672Y705512D01*
X1498596Y705447D01*
X1487584Y694435D01*
X1426471Y694435D01*
X1426345Y694421D01*
X1426219Y694414D01*
X1426173Y694401D01*
X1426125Y694395D01*
X1426006Y694353D01*
X1425884Y694318D01*
X1425842Y694294D01*
X1425797Y694278D01*
X1425691Y694209D01*
X1425580Y694148D01*
X1425534Y694108D01*
X1425504Y694089D01*
X1425470Y694054D01*
X1425410Y694003D01*
X1423456Y693193D01*
X1421344Y693193D01*
G37*
%LPD*%
%LPC*%
G36*
X672044Y185193D02*
X672044Y185193D01*
X670094Y186001D01*
X668601Y187494D01*
X667793Y189444D01*
X667793Y191556D01*
X668601Y193506D01*
X670094Y194999D01*
X672044Y195807D01*
X674156Y195807D01*
X676113Y194996D01*
X676193Y194932D01*
X676287Y194848D01*
X676329Y194824D01*
X676367Y194794D01*
X676481Y194740D01*
X676592Y194679D01*
X676638Y194666D01*
X676682Y194645D01*
X676805Y194619D01*
X676927Y194584D01*
X676988Y194579D01*
X677023Y194572D01*
X677071Y194573D01*
X677171Y194565D01*
X732529Y194565D01*
X732655Y194579D01*
X732781Y194586D01*
X732827Y194599D01*
X732875Y194605D01*
X732994Y194647D01*
X733116Y194682D01*
X733158Y194706D01*
X733203Y194722D01*
X733309Y194791D01*
X733420Y194852D01*
X733466Y194892D01*
X733496Y194911D01*
X733530Y194946D01*
X733590Y194997D01*
X735544Y195807D01*
X737656Y195807D01*
X739606Y194999D01*
X741099Y193506D01*
X741907Y191556D01*
X741907Y189444D01*
X741099Y187494D01*
X739606Y186001D01*
X737656Y185193D01*
X735544Y185193D01*
X733587Y186004D01*
X733507Y186068D01*
X733413Y186152D01*
X733371Y186176D01*
X733333Y186206D01*
X733219Y186260D01*
X733108Y186321D01*
X733062Y186334D01*
X733018Y186355D01*
X732895Y186381D01*
X732773Y186416D01*
X732712Y186421D01*
X732677Y186428D01*
X732629Y186427D01*
X732529Y186435D01*
X677171Y186435D01*
X677046Y186421D01*
X676919Y186414D01*
X676873Y186401D01*
X676825Y186395D01*
X676706Y186353D01*
X676584Y186318D01*
X676542Y186294D01*
X676497Y186278D01*
X676390Y186209D01*
X676280Y186148D01*
X676234Y186108D01*
X676204Y186089D01*
X676170Y186054D01*
X676110Y186003D01*
X674156Y185193D01*
X672044Y185193D01*
G37*
%LPD*%
%LPC*%
G36*
X1019261Y371855D02*
X1019261Y371855D01*
X1015900Y373248D01*
X1013328Y375820D01*
X1011935Y379181D01*
X1011935Y382819D01*
X1013328Y386180D01*
X1015900Y388752D01*
X1019261Y390145D01*
X1038139Y390145D01*
X1041500Y388752D01*
X1044072Y386180D01*
X1045465Y382819D01*
X1045465Y379181D01*
X1044072Y375820D01*
X1041500Y373248D01*
X1038139Y371855D01*
X1019261Y371855D01*
G37*
%LPD*%
%LPC*%
G36*
X1019261Y346455D02*
X1019261Y346455D01*
X1015900Y347848D01*
X1013328Y350420D01*
X1011935Y353781D01*
X1011935Y357419D01*
X1013328Y360780D01*
X1015900Y363352D01*
X1019261Y364745D01*
X1038139Y364745D01*
X1041500Y363352D01*
X1044072Y360780D01*
X1045465Y357419D01*
X1045465Y353781D01*
X1044072Y350420D01*
X1041500Y347848D01*
X1038139Y346455D01*
X1019261Y346455D01*
G37*
%LPD*%
%LPC*%
G36*
X785581Y21335D02*
X785581Y21335D01*
X782220Y22728D01*
X779648Y25300D01*
X778255Y28661D01*
X778255Y47539D01*
X779648Y50900D01*
X782220Y53472D01*
X785581Y54865D01*
X789219Y54865D01*
X792580Y53472D01*
X795152Y50900D01*
X796545Y47539D01*
X796545Y28661D01*
X795152Y25300D01*
X792580Y22728D01*
X789219Y21335D01*
X785581Y21335D01*
G37*
%LPD*%
%LPC*%
G36*
X1019261Y397255D02*
X1019261Y397255D01*
X1015900Y398648D01*
X1013328Y401220D01*
X1011935Y404581D01*
X1011935Y408219D01*
X1013328Y411580D01*
X1015900Y414152D01*
X1019261Y415545D01*
X1038139Y415545D01*
X1041500Y414152D01*
X1044072Y411580D01*
X1045465Y408219D01*
X1045465Y404581D01*
X1044072Y401220D01*
X1041500Y398648D01*
X1038139Y397255D01*
X1019261Y397255D01*
G37*
%LPD*%
%LPC*%
G36*
X760181Y21335D02*
X760181Y21335D01*
X756820Y22728D01*
X754248Y25300D01*
X752855Y28661D01*
X752855Y47539D01*
X754248Y50900D01*
X756820Y53472D01*
X760181Y54865D01*
X763819Y54865D01*
X767180Y53472D01*
X769752Y50900D01*
X771145Y47539D01*
X771145Y28661D01*
X769752Y25300D01*
X767180Y22728D01*
X763819Y21335D01*
X760181Y21335D01*
G37*
%LPD*%
%LPC*%
G36*
X371561Y409955D02*
X371561Y409955D01*
X368200Y411348D01*
X365628Y413920D01*
X364235Y417281D01*
X364235Y420919D01*
X365628Y424280D01*
X368200Y426852D01*
X371561Y428245D01*
X390439Y428245D01*
X393800Y426852D01*
X396372Y424280D01*
X397765Y420919D01*
X397765Y417281D01*
X396372Y413920D01*
X393800Y411348D01*
X390439Y409955D01*
X371561Y409955D01*
G37*
%LPD*%
%LPC*%
G36*
X1019261Y422655D02*
X1019261Y422655D01*
X1015900Y424048D01*
X1013328Y426620D01*
X1011935Y429981D01*
X1011935Y433619D01*
X1013328Y436980D01*
X1015900Y439552D01*
X1019261Y440945D01*
X1038139Y440945D01*
X1041500Y439552D01*
X1044072Y436980D01*
X1045465Y433619D01*
X1045465Y429981D01*
X1044072Y426620D01*
X1041500Y424048D01*
X1038139Y422655D01*
X1019261Y422655D01*
G37*
%LPD*%
%LPC*%
G36*
X810981Y21335D02*
X810981Y21335D01*
X807620Y22728D01*
X805048Y25300D01*
X803655Y28661D01*
X803655Y47539D01*
X805048Y50900D01*
X807620Y53472D01*
X810981Y54865D01*
X814619Y54865D01*
X817980Y53472D01*
X820552Y50900D01*
X821945Y47539D01*
X821945Y28661D01*
X820552Y25300D01*
X817980Y22728D01*
X814619Y21335D01*
X810981Y21335D01*
G37*
%LPD*%
%LPC*%
G36*
X1197061Y524255D02*
X1197061Y524255D01*
X1193700Y525648D01*
X1191128Y528220D01*
X1189735Y531581D01*
X1189735Y535219D01*
X1191128Y538580D01*
X1193700Y541152D01*
X1197061Y542545D01*
X1215939Y542545D01*
X1219300Y541152D01*
X1221872Y538580D01*
X1223265Y535219D01*
X1223265Y531581D01*
X1221872Y528220D01*
X1219300Y525648D01*
X1215939Y524255D01*
X1197061Y524255D01*
G37*
%LPD*%
%LPC*%
G36*
X1197061Y422655D02*
X1197061Y422655D01*
X1193700Y424048D01*
X1191128Y426620D01*
X1189735Y429981D01*
X1189735Y433619D01*
X1191128Y436980D01*
X1193700Y439552D01*
X1197061Y440945D01*
X1215939Y440945D01*
X1219300Y439552D01*
X1221872Y436980D01*
X1223265Y433619D01*
X1223265Y429981D01*
X1221872Y426620D01*
X1219300Y424048D01*
X1215939Y422655D01*
X1197061Y422655D01*
G37*
%LPD*%
%LPC*%
G36*
X371561Y435355D02*
X371561Y435355D01*
X368200Y436748D01*
X365628Y439320D01*
X364235Y442681D01*
X364235Y446319D01*
X365628Y449680D01*
X368200Y452252D01*
X371561Y453645D01*
X390439Y453645D01*
X393800Y452252D01*
X396372Y449680D01*
X397765Y446319D01*
X397765Y442681D01*
X396372Y439320D01*
X393800Y436748D01*
X390439Y435355D01*
X371561Y435355D01*
G37*
%LPD*%
%LPC*%
G36*
X371561Y511555D02*
X371561Y511555D01*
X368200Y512948D01*
X365628Y515520D01*
X364235Y518881D01*
X364235Y522519D01*
X365628Y525880D01*
X368200Y528452D01*
X371561Y529845D01*
X390439Y529845D01*
X393800Y528452D01*
X396372Y525880D01*
X397765Y522519D01*
X397765Y518881D01*
X396372Y515520D01*
X393800Y512948D01*
X390439Y511555D01*
X371561Y511555D01*
G37*
%LPD*%
%LPC*%
G36*
X1197061Y498855D02*
X1197061Y498855D01*
X1193700Y500248D01*
X1191128Y502820D01*
X1189735Y506181D01*
X1189735Y509819D01*
X1191128Y513180D01*
X1193700Y515752D01*
X1197061Y517145D01*
X1215939Y517145D01*
X1219300Y515752D01*
X1221872Y513180D01*
X1223265Y509819D01*
X1223265Y506181D01*
X1221872Y502820D01*
X1219300Y500248D01*
X1215939Y498855D01*
X1197061Y498855D01*
G37*
%LPD*%
%LPC*%
G36*
X1019261Y498855D02*
X1019261Y498855D01*
X1015900Y500248D01*
X1013328Y502820D01*
X1011935Y506181D01*
X1011935Y509819D01*
X1013328Y513180D01*
X1015900Y515752D01*
X1019261Y517145D01*
X1038139Y517145D01*
X1041500Y515752D01*
X1044072Y513180D01*
X1045465Y509819D01*
X1045465Y506181D01*
X1044072Y502820D01*
X1041500Y500248D01*
X1038139Y498855D01*
X1019261Y498855D01*
G37*
%LPD*%
%LPC*%
G36*
X1019261Y448055D02*
X1019261Y448055D01*
X1015900Y449448D01*
X1013328Y452020D01*
X1011935Y455381D01*
X1011935Y459019D01*
X1013328Y462380D01*
X1015900Y464952D01*
X1019261Y466345D01*
X1038139Y466345D01*
X1041500Y464952D01*
X1044072Y462380D01*
X1045465Y459019D01*
X1045465Y455381D01*
X1044072Y452020D01*
X1041500Y449448D01*
X1038139Y448055D01*
X1019261Y448055D01*
G37*
%LPD*%
%LPC*%
G36*
X1197061Y448055D02*
X1197061Y448055D01*
X1193700Y449448D01*
X1191128Y452020D01*
X1189735Y455381D01*
X1189735Y459019D01*
X1191128Y462380D01*
X1193700Y464952D01*
X1197061Y466345D01*
X1215939Y466345D01*
X1219300Y464952D01*
X1221872Y462380D01*
X1223265Y459019D01*
X1223265Y455381D01*
X1221872Y452020D01*
X1219300Y449448D01*
X1215939Y448055D01*
X1197061Y448055D01*
G37*
%LPD*%
%LPC*%
G36*
X371561Y460755D02*
X371561Y460755D01*
X368200Y462148D01*
X365628Y464720D01*
X364235Y468081D01*
X364235Y471719D01*
X365628Y475080D01*
X368200Y477652D01*
X371561Y479045D01*
X390439Y479045D01*
X393800Y477652D01*
X396372Y475080D01*
X397765Y471719D01*
X397765Y468081D01*
X396372Y464720D01*
X393800Y462148D01*
X390439Y460755D01*
X371561Y460755D01*
G37*
%LPD*%
%LPC*%
G36*
X1019261Y473455D02*
X1019261Y473455D01*
X1015900Y474848D01*
X1013328Y477420D01*
X1011935Y480781D01*
X1011935Y484419D01*
X1013328Y487780D01*
X1015900Y490352D01*
X1019261Y491745D01*
X1038139Y491745D01*
X1041500Y490352D01*
X1044072Y487780D01*
X1045465Y484419D01*
X1045465Y480781D01*
X1044072Y477420D01*
X1041500Y474848D01*
X1038139Y473455D01*
X1019261Y473455D01*
G37*
%LPD*%
%LPC*%
G36*
X1484844Y464593D02*
X1484844Y464593D01*
X1482894Y465401D01*
X1481401Y466894D01*
X1480593Y468844D01*
X1480593Y470956D01*
X1481401Y472906D01*
X1482894Y474399D01*
X1484844Y475207D01*
X1486956Y475207D01*
X1488913Y474396D01*
X1488993Y474332D01*
X1489087Y474248D01*
X1489129Y474224D01*
X1489167Y474194D01*
X1489281Y474140D01*
X1489392Y474079D01*
X1489438Y474066D01*
X1489482Y474045D01*
X1489605Y474019D01*
X1489727Y473984D01*
X1489788Y473979D01*
X1489823Y473972D01*
X1489871Y473973D01*
X1489971Y473965D01*
X1532629Y473965D01*
X1532755Y473979D01*
X1532881Y473986D01*
X1532927Y473999D01*
X1532975Y474005D01*
X1533094Y474047D01*
X1533216Y474082D01*
X1533258Y474106D01*
X1533303Y474122D01*
X1533409Y474191D01*
X1533520Y474252D01*
X1533566Y474292D01*
X1533596Y474311D01*
X1533630Y474346D01*
X1533690Y474397D01*
X1535644Y475207D01*
X1537756Y475207D01*
X1539706Y474399D01*
X1541199Y472906D01*
X1542007Y470956D01*
X1542007Y468844D01*
X1541199Y466894D01*
X1539706Y465401D01*
X1537756Y464593D01*
X1535644Y464593D01*
X1533687Y465404D01*
X1533607Y465468D01*
X1533513Y465552D01*
X1533471Y465576D01*
X1533433Y465606D01*
X1533319Y465660D01*
X1533208Y465721D01*
X1533162Y465734D01*
X1533118Y465755D01*
X1532995Y465781D01*
X1532873Y465816D01*
X1532812Y465821D01*
X1532777Y465828D01*
X1532729Y465827D01*
X1532629Y465835D01*
X1489971Y465835D01*
X1489845Y465821D01*
X1489719Y465814D01*
X1489673Y465801D01*
X1489625Y465795D01*
X1489506Y465753D01*
X1489384Y465718D01*
X1489342Y465694D01*
X1489297Y465678D01*
X1489191Y465609D01*
X1489080Y465548D01*
X1489034Y465508D01*
X1489004Y465489D01*
X1488970Y465454D01*
X1488910Y465403D01*
X1486956Y464593D01*
X1484844Y464593D01*
G37*
%LPD*%
%LPC*%
G36*
X341844Y693193D02*
X341844Y693193D01*
X339894Y694001D01*
X338401Y695494D01*
X337593Y697444D01*
X337593Y699556D01*
X338404Y701513D01*
X338468Y701593D01*
X338552Y701687D01*
X338576Y701729D01*
X338606Y701767D01*
X338660Y701881D01*
X338721Y701992D01*
X338734Y702038D01*
X338755Y702082D01*
X338781Y702205D01*
X338816Y702327D01*
X338821Y702388D01*
X338828Y702423D01*
X338827Y702471D01*
X338835Y702571D01*
X338835Y732529D01*
X338821Y732655D01*
X338814Y732781D01*
X338801Y732827D01*
X338795Y732875D01*
X338753Y732994D01*
X338718Y733116D01*
X338694Y733158D01*
X338678Y733203D01*
X338609Y733309D01*
X338548Y733420D01*
X338508Y733466D01*
X338489Y733496D01*
X338454Y733530D01*
X338403Y733590D01*
X337593Y735544D01*
X337593Y737656D01*
X338401Y739606D01*
X339894Y741099D01*
X341844Y741907D01*
X343956Y741907D01*
X345906Y741099D01*
X347399Y739606D01*
X348207Y737656D01*
X348207Y735544D01*
X347396Y733587D01*
X347332Y733507D01*
X347248Y733413D01*
X347224Y733371D01*
X347194Y733333D01*
X347140Y733219D01*
X347079Y733108D01*
X347066Y733062D01*
X347045Y733018D01*
X347019Y732895D01*
X346984Y732773D01*
X346979Y732712D01*
X346972Y732677D01*
X346973Y732629D01*
X346965Y732529D01*
X346965Y702571D01*
X346979Y702445D01*
X346986Y702319D01*
X346999Y702273D01*
X347005Y702225D01*
X347047Y702106D01*
X347082Y701984D01*
X347106Y701942D01*
X347122Y701897D01*
X347191Y701791D01*
X347252Y701680D01*
X347292Y701634D01*
X347311Y701604D01*
X347346Y701570D01*
X347397Y701510D01*
X348207Y699556D01*
X348207Y697444D01*
X347399Y695494D01*
X345906Y694001D01*
X343956Y693193D01*
X341844Y693193D01*
G37*
%LPD*%
%LPC*%
G36*
X291044Y667793D02*
X291044Y667793D01*
X289094Y668601D01*
X287601Y670094D01*
X286793Y672044D01*
X286793Y674156D01*
X287601Y676106D01*
X289094Y677599D01*
X291044Y678407D01*
X293156Y678407D01*
X295113Y677596D01*
X295193Y677532D01*
X295287Y677448D01*
X295329Y677424D01*
X295367Y677394D01*
X295481Y677340D01*
X295592Y677279D01*
X295638Y677266D01*
X295682Y677245D01*
X295805Y677219D01*
X295927Y677184D01*
X295988Y677179D01*
X296023Y677172D01*
X296071Y677173D01*
X296171Y677165D01*
X326129Y677165D01*
X326255Y677179D01*
X326381Y677186D01*
X326427Y677199D01*
X326475Y677205D01*
X326594Y677247D01*
X326716Y677282D01*
X326758Y677306D01*
X326803Y677322D01*
X326909Y677391D01*
X327020Y677452D01*
X327066Y677492D01*
X327096Y677511D01*
X327130Y677546D01*
X327190Y677597D01*
X329144Y678407D01*
X331256Y678407D01*
X333206Y677599D01*
X334699Y676106D01*
X335507Y674156D01*
X335507Y672044D01*
X334699Y670094D01*
X333206Y668601D01*
X331256Y667793D01*
X329144Y667793D01*
X327187Y668604D01*
X327107Y668668D01*
X327013Y668752D01*
X326971Y668776D01*
X326933Y668806D01*
X326819Y668860D01*
X326708Y668921D01*
X326662Y668934D01*
X326618Y668955D01*
X326495Y668981D01*
X326373Y669016D01*
X326312Y669021D01*
X326277Y669028D01*
X326229Y669027D01*
X326129Y669035D01*
X296171Y669035D01*
X296045Y669021D01*
X295919Y669014D01*
X295873Y669001D01*
X295825Y668995D01*
X295706Y668953D01*
X295584Y668918D01*
X295542Y668894D01*
X295497Y668878D01*
X295391Y668809D01*
X295280Y668748D01*
X295234Y668708D01*
X295204Y668689D01*
X295170Y668654D01*
X295110Y668603D01*
X293156Y667793D01*
X291044Y667793D01*
G37*
%LPD*%
%LPC*%
G36*
X1409078Y752935D02*
X1409078Y752935D01*
X1408185Y753828D01*
X1408185Y770172D01*
X1409078Y771065D01*
X1425422Y771065D01*
X1426315Y770172D01*
X1426315Y753828D01*
X1425422Y752935D01*
X1409078Y752935D01*
G37*
%LPD*%
%LPC*%
G36*
X875244Y540793D02*
X875244Y540793D01*
X873294Y541601D01*
X871801Y543094D01*
X870993Y545044D01*
X870993Y547156D01*
X871804Y549113D01*
X871868Y549193D01*
X871952Y549287D01*
X871976Y549329D01*
X872006Y549367D01*
X872060Y549481D01*
X872121Y549592D01*
X872134Y549638D01*
X872155Y549682D01*
X872181Y549805D01*
X872216Y549927D01*
X872221Y549988D01*
X872228Y550023D01*
X872227Y550071D01*
X872235Y550171D01*
X872235Y567429D01*
X872221Y567555D01*
X872214Y567681D01*
X872201Y567727D01*
X872195Y567775D01*
X872153Y567894D01*
X872118Y568016D01*
X872094Y568058D01*
X872078Y568103D01*
X872009Y568209D01*
X871948Y568320D01*
X871908Y568366D01*
X871889Y568396D01*
X871854Y568430D01*
X871803Y568490D01*
X870993Y570444D01*
X870993Y572556D01*
X871801Y574506D01*
X873294Y575999D01*
X875244Y576807D01*
X877356Y576807D01*
X879306Y575999D01*
X880799Y574506D01*
X881607Y572556D01*
X881607Y570444D01*
X880796Y568487D01*
X880732Y568407D01*
X880648Y568313D01*
X880624Y568271D01*
X880594Y568233D01*
X880540Y568119D01*
X880479Y568008D01*
X880466Y567962D01*
X880445Y567918D01*
X880419Y567795D01*
X880384Y567673D01*
X880379Y567612D01*
X880372Y567577D01*
X880373Y567529D01*
X880365Y567429D01*
X880365Y550171D01*
X880379Y550045D01*
X880386Y549919D01*
X880399Y549873D01*
X880405Y549825D01*
X880447Y549706D01*
X880482Y549584D01*
X880506Y549542D01*
X880522Y549497D01*
X880591Y549391D01*
X880652Y549280D01*
X880692Y549234D01*
X880711Y549204D01*
X880746Y549170D01*
X880797Y549110D01*
X881607Y547156D01*
X881607Y545044D01*
X880799Y543094D01*
X879306Y541601D01*
X877356Y540793D01*
X875244Y540793D01*
G37*
%LPD*%
%LPC*%
G36*
X1554428Y257135D02*
X1554428Y257135D01*
X1553535Y258028D01*
X1553535Y273372D01*
X1554428Y274265D01*
X1569772Y274265D01*
X1570665Y273372D01*
X1570665Y258028D01*
X1569772Y257135D01*
X1554428Y257135D01*
G37*
%LPD*%
%LPC*%
G36*
X30428Y132135D02*
X30428Y132135D01*
X29535Y133028D01*
X29535Y148372D01*
X30428Y149265D01*
X45772Y149265D01*
X46665Y148372D01*
X46665Y133028D01*
X45772Y132135D01*
X30428Y132135D01*
G37*
%LPD*%
%LPC*%
G36*
X1501947Y752935D02*
X1501947Y752935D01*
X1498615Y754315D01*
X1496065Y756865D01*
X1494685Y760197D01*
X1494685Y763803D01*
X1496065Y767135D01*
X1498615Y769685D01*
X1501947Y771065D01*
X1505553Y771065D01*
X1508885Y769685D01*
X1511435Y767135D01*
X1512815Y763803D01*
X1512815Y760197D01*
X1511435Y756865D01*
X1508885Y754315D01*
X1505553Y752935D01*
X1501947Y752935D01*
G37*
%LPD*%
%LPC*%
G36*
X1560297Y778335D02*
X1560297Y778335D01*
X1556965Y779715D01*
X1554415Y782265D01*
X1553035Y785597D01*
X1553035Y789203D01*
X1554415Y792535D01*
X1556965Y795085D01*
X1560297Y796465D01*
X1563903Y796465D01*
X1567235Y795085D01*
X1569785Y792535D01*
X1571165Y789203D01*
X1571165Y785597D01*
X1569785Y782265D01*
X1567235Y779715D01*
X1563903Y778335D01*
X1560297Y778335D01*
G37*
%LPD*%
%LPC*%
G36*
X36396Y157135D02*
X36396Y157135D01*
X33248Y158439D01*
X30839Y160848D01*
X29535Y163996D01*
X29535Y167404D01*
X30839Y170552D01*
X33248Y172961D01*
X36396Y174265D01*
X39804Y174265D01*
X42952Y172961D01*
X45361Y170552D01*
X46665Y167404D01*
X46665Y163996D01*
X45361Y160848D01*
X42952Y158439D01*
X39804Y157135D01*
X36396Y157135D01*
G37*
%LPD*%
%LPC*%
G36*
X1560396Y132135D02*
X1560396Y132135D01*
X1557248Y133439D01*
X1554839Y135848D01*
X1553535Y138996D01*
X1553535Y142404D01*
X1554839Y145552D01*
X1557248Y147961D01*
X1560396Y149265D01*
X1563804Y149265D01*
X1566952Y147961D01*
X1569361Y145552D01*
X1570665Y142404D01*
X1570665Y138996D01*
X1569361Y135848D01*
X1566952Y133439D01*
X1563804Y132135D01*
X1560396Y132135D01*
G37*
%LPD*%
%LPC*%
G36*
X1560396Y207135D02*
X1560396Y207135D01*
X1557248Y208439D01*
X1554839Y210848D01*
X1553535Y213996D01*
X1553535Y217404D01*
X1554839Y220552D01*
X1557248Y222961D01*
X1560396Y224265D01*
X1563804Y224265D01*
X1566952Y222961D01*
X1569361Y220552D01*
X1570665Y217404D01*
X1570665Y213996D01*
X1569361Y210848D01*
X1566952Y208439D01*
X1563804Y207135D01*
X1560396Y207135D01*
G37*
%LPD*%
%LPC*%
G36*
X36396Y207135D02*
X36396Y207135D01*
X33248Y208439D01*
X30839Y210848D01*
X29535Y213996D01*
X29535Y217404D01*
X30839Y220552D01*
X33248Y222961D01*
X36396Y224265D01*
X39804Y224265D01*
X42952Y222961D01*
X45361Y220552D01*
X46665Y217404D01*
X46665Y213996D01*
X45361Y210848D01*
X42952Y208439D01*
X39804Y207135D01*
X36396Y207135D01*
G37*
%LPD*%
%LPC*%
G36*
X1560396Y232135D02*
X1560396Y232135D01*
X1557248Y233439D01*
X1554839Y235848D01*
X1553535Y238996D01*
X1553535Y242404D01*
X1554839Y245552D01*
X1557248Y247961D01*
X1560396Y249265D01*
X1563804Y249265D01*
X1566952Y247961D01*
X1569361Y245552D01*
X1570665Y242404D01*
X1570665Y238996D01*
X1569361Y235848D01*
X1566952Y233439D01*
X1563804Y232135D01*
X1560396Y232135D01*
G37*
%LPD*%
%LPC*%
G36*
X1560396Y182135D02*
X1560396Y182135D01*
X1557248Y183439D01*
X1554839Y185848D01*
X1553535Y188996D01*
X1553535Y192404D01*
X1554839Y195552D01*
X1557248Y197961D01*
X1560396Y199265D01*
X1563804Y199265D01*
X1566952Y197961D01*
X1569361Y195552D01*
X1570665Y192404D01*
X1570665Y188996D01*
X1569361Y185848D01*
X1566952Y183439D01*
X1563804Y182135D01*
X1560396Y182135D01*
G37*
%LPD*%
%LPC*%
G36*
X36396Y182135D02*
X36396Y182135D01*
X33248Y183439D01*
X30839Y185848D01*
X29535Y188996D01*
X29535Y192404D01*
X30839Y195552D01*
X33248Y197961D01*
X36396Y199265D01*
X39804Y199265D01*
X42952Y197961D01*
X45361Y195552D01*
X46665Y192404D01*
X46665Y188996D01*
X45361Y185848D01*
X42952Y183439D01*
X39804Y182135D01*
X36396Y182135D01*
G37*
%LPD*%
%LPC*%
G36*
X36396Y257135D02*
X36396Y257135D01*
X33248Y258439D01*
X30839Y260848D01*
X29535Y263996D01*
X29535Y267404D01*
X30839Y270552D01*
X33248Y272961D01*
X36396Y274265D01*
X39804Y274265D01*
X42952Y272961D01*
X45361Y270552D01*
X46665Y267404D01*
X46665Y263996D01*
X45361Y260848D01*
X42952Y258439D01*
X39804Y257135D01*
X36396Y257135D01*
G37*
%LPD*%
%LPC*%
G36*
X840739Y40639D02*
X840739Y40639D01*
X840739Y55579D01*
X842100Y55136D01*
X843525Y54410D01*
X844819Y53470D01*
X845950Y52339D01*
X846890Y51045D01*
X847616Y49620D01*
X848111Y48099D01*
X848361Y46520D01*
X848361Y40639D01*
X840739Y40639D01*
G37*
%LPD*%
%LPC*%
G36*
X1209039Y358139D02*
X1209039Y358139D01*
X1209039Y365761D01*
X1214920Y365761D01*
X1216499Y365511D01*
X1218020Y365016D01*
X1219445Y364290D01*
X1220739Y363350D01*
X1221870Y362219D01*
X1222810Y360925D01*
X1223536Y359500D01*
X1223979Y358139D01*
X1209039Y358139D01*
G37*
%LPD*%
%LPC*%
G36*
X383539Y497839D02*
X383539Y497839D01*
X383539Y505461D01*
X389420Y505461D01*
X390999Y505211D01*
X392520Y504716D01*
X393945Y503990D01*
X395239Y503050D01*
X396370Y501919D01*
X397310Y500625D01*
X398036Y499200D01*
X398479Y497839D01*
X383539Y497839D01*
G37*
%LPD*%
%LPC*%
G36*
X1031239Y535939D02*
X1031239Y535939D01*
X1031239Y543561D01*
X1037120Y543561D01*
X1038699Y543311D01*
X1040220Y542816D01*
X1041645Y542090D01*
X1042939Y541150D01*
X1044070Y540019D01*
X1045010Y538725D01*
X1045736Y537300D01*
X1046179Y535939D01*
X1031239Y535939D01*
G37*
%LPD*%
%LPC*%
G36*
X1209039Y485139D02*
X1209039Y485139D01*
X1209039Y492761D01*
X1214920Y492761D01*
X1216499Y492511D01*
X1218020Y492016D01*
X1219445Y491290D01*
X1220739Y490350D01*
X1221870Y489219D01*
X1222810Y487925D01*
X1223536Y486500D01*
X1223979Y485139D01*
X1209039Y485139D01*
G37*
%LPD*%
%LPC*%
G36*
X1011221Y535939D02*
X1011221Y535939D01*
X1011664Y537300D01*
X1012390Y538725D01*
X1013330Y540019D01*
X1014461Y541150D01*
X1015755Y542090D01*
X1017180Y542816D01*
X1018701Y543311D01*
X1020280Y543561D01*
X1026161Y543561D01*
X1026161Y535939D01*
X1011221Y535939D01*
G37*
%LPD*%
%LPC*%
G36*
X1189021Y485139D02*
X1189021Y485139D01*
X1189464Y486500D01*
X1190190Y487925D01*
X1191130Y489219D01*
X1192261Y490350D01*
X1193555Y491290D01*
X1194980Y492016D01*
X1196501Y492511D01*
X1198080Y492761D01*
X1203961Y492761D01*
X1203961Y485139D01*
X1189021Y485139D01*
G37*
%LPD*%
%LPC*%
G36*
X363521Y497839D02*
X363521Y497839D01*
X363964Y499200D01*
X364690Y500625D01*
X365630Y501919D01*
X366761Y503050D01*
X368055Y503990D01*
X369480Y504716D01*
X371001Y505211D01*
X372580Y505461D01*
X378461Y505461D01*
X378461Y497839D01*
X363521Y497839D01*
G37*
%LPD*%
%LPC*%
G36*
X840739Y35561D02*
X840739Y35561D01*
X848361Y35561D01*
X848361Y29680D01*
X848111Y28101D01*
X847616Y26580D01*
X846890Y25155D01*
X845950Y23861D01*
X844819Y22730D01*
X843525Y21790D01*
X842100Y21064D01*
X840739Y20621D01*
X840739Y35561D01*
G37*
%LPD*%
%LPC*%
G36*
X383539Y485139D02*
X383539Y485139D01*
X383539Y492761D01*
X398479Y492761D01*
X398036Y491400D01*
X397310Y489975D01*
X396370Y488681D01*
X395239Y487550D01*
X393945Y486610D01*
X392520Y485884D01*
X390999Y485389D01*
X389420Y485139D01*
X383539Y485139D01*
G37*
%LPD*%
%LPC*%
G36*
X828039Y40639D02*
X828039Y40639D01*
X828039Y46520D01*
X828289Y48099D01*
X828784Y49620D01*
X829510Y51045D01*
X830450Y52339D01*
X831581Y53470D01*
X832875Y54410D01*
X834300Y55136D01*
X835661Y55579D01*
X835661Y40639D01*
X828039Y40639D01*
G37*
%LPD*%
%LPC*%
G36*
X1209039Y472439D02*
X1209039Y472439D01*
X1209039Y480061D01*
X1223979Y480061D01*
X1223536Y478700D01*
X1222810Y477275D01*
X1221870Y475981D01*
X1220739Y474850D01*
X1219445Y473910D01*
X1218020Y473184D01*
X1216499Y472689D01*
X1214920Y472439D01*
X1209039Y472439D01*
G37*
%LPD*%
%LPC*%
G36*
X1031239Y523239D02*
X1031239Y523239D01*
X1031239Y530861D01*
X1046179Y530861D01*
X1045736Y529500D01*
X1045010Y528075D01*
X1044070Y526781D01*
X1042939Y525650D01*
X1041645Y524710D01*
X1040220Y523984D01*
X1038699Y523489D01*
X1037120Y523239D01*
X1031239Y523239D01*
G37*
%LPD*%
%LPC*%
G36*
X1209039Y345439D02*
X1209039Y345439D01*
X1209039Y353061D01*
X1223979Y353061D01*
X1223536Y351700D01*
X1222810Y350275D01*
X1221870Y348981D01*
X1220739Y347850D01*
X1219445Y346910D01*
X1218020Y346184D01*
X1216499Y345689D01*
X1214920Y345439D01*
X1209039Y345439D01*
G37*
%LPD*%
%LPC*%
G36*
X834300Y21064D02*
X834300Y21064D01*
X832875Y21790D01*
X831581Y22730D01*
X830450Y23861D01*
X829510Y25155D01*
X828784Y26580D01*
X828289Y28101D01*
X828039Y29680D01*
X828039Y35561D01*
X835661Y35561D01*
X835661Y20621D01*
X834300Y21064D01*
G37*
%LPD*%
%LPC*%
G36*
X1020280Y523239D02*
X1020280Y523239D01*
X1018701Y523489D01*
X1017180Y523984D01*
X1015755Y524710D01*
X1014461Y525650D01*
X1013330Y526781D01*
X1012390Y528075D01*
X1011664Y529500D01*
X1011221Y530861D01*
X1026161Y530861D01*
X1026161Y523239D01*
X1020280Y523239D01*
G37*
%LPD*%
%LPC*%
G36*
X372580Y485139D02*
X372580Y485139D01*
X371001Y485389D01*
X369480Y485884D01*
X368055Y486610D01*
X366761Y487550D01*
X365630Y488681D01*
X364690Y489975D01*
X363964Y491400D01*
X363521Y492761D01*
X378461Y492761D01*
X378461Y485139D01*
X372580Y485139D01*
G37*
%LPD*%
%LPC*%
G36*
X1198080Y472439D02*
X1198080Y472439D01*
X1196501Y472689D01*
X1194980Y473184D01*
X1193555Y473910D01*
X1192261Y474850D01*
X1191130Y475981D01*
X1190190Y477275D01*
X1189464Y478700D01*
X1189021Y480061D01*
X1203961Y480061D01*
X1203961Y472439D01*
X1198080Y472439D01*
G37*
%LPD*%
%LPC*%
G36*
X1564599Y814899D02*
X1564599Y814899D01*
X1564599Y822187D01*
X1565970Y821742D01*
X1567383Y821022D01*
X1568667Y820089D01*
X1569789Y818967D01*
X1570722Y817683D01*
X1571442Y816270D01*
X1571887Y814899D01*
X1564599Y814899D01*
G37*
%LPD*%
%LPC*%
G36*
X1552313Y814899D02*
X1552313Y814899D01*
X1552758Y816270D01*
X1553478Y817683D01*
X1554411Y818967D01*
X1555533Y820089D01*
X1556817Y821022D01*
X1558230Y821742D01*
X1559601Y822187D01*
X1559601Y814899D01*
X1552313Y814899D01*
G37*
%LPD*%
%LPC*%
G36*
X1564599Y809901D02*
X1564599Y809901D01*
X1571887Y809901D01*
X1571442Y808530D01*
X1570722Y807117D01*
X1569789Y805833D01*
X1568667Y804711D01*
X1567383Y803778D01*
X1565970Y803058D01*
X1564599Y802613D01*
X1564599Y809901D01*
G37*
%LPD*%
%LPC*%
G36*
X1558230Y803058D02*
X1558230Y803058D01*
X1556817Y803778D01*
X1555533Y804711D01*
X1554411Y805833D01*
X1553478Y807117D01*
X1552758Y808530D01*
X1552313Y809901D01*
X1559601Y809901D01*
X1559601Y802613D01*
X1558230Y803058D01*
G37*
%LPD*%
%LPC*%
G36*
X40349Y242949D02*
X40349Y242949D01*
X40349Y250043D01*
X41778Y249579D01*
X43121Y248894D01*
X44342Y248008D01*
X45408Y246942D01*
X46294Y245721D01*
X46979Y244378D01*
X47443Y242949D01*
X40349Y242949D01*
G37*
%LPD*%
%LPC*%
G36*
X1564349Y167949D02*
X1564349Y167949D01*
X1564349Y175043D01*
X1565778Y174579D01*
X1567121Y173894D01*
X1568342Y173008D01*
X1569408Y171942D01*
X1570294Y170721D01*
X1570979Y169378D01*
X1571443Y167949D01*
X1564349Y167949D01*
G37*
%LPD*%
%LPC*%
G36*
X1552757Y167949D02*
X1552757Y167949D01*
X1553221Y169378D01*
X1553906Y170721D01*
X1554792Y171942D01*
X1555858Y173008D01*
X1557079Y173894D01*
X1558422Y174579D01*
X1559851Y175043D01*
X1559851Y167949D01*
X1552757Y167949D01*
G37*
%LPD*%
%LPC*%
G36*
X28757Y242949D02*
X28757Y242949D01*
X29221Y244378D01*
X29906Y245721D01*
X30792Y246942D01*
X31858Y248008D01*
X33079Y248894D01*
X34422Y249579D01*
X35851Y250043D01*
X35851Y242949D01*
X28757Y242949D01*
G37*
%LPD*%
%LPC*%
G36*
X1564349Y163451D02*
X1564349Y163451D01*
X1571443Y163451D01*
X1570979Y162022D01*
X1570294Y160679D01*
X1569408Y159458D01*
X1568342Y158392D01*
X1567121Y157506D01*
X1565778Y156821D01*
X1564349Y156357D01*
X1564349Y163451D01*
G37*
%LPD*%
%LPC*%
G36*
X40349Y238451D02*
X40349Y238451D01*
X47443Y238451D01*
X46979Y237022D01*
X46294Y235679D01*
X45408Y234458D01*
X44342Y233392D01*
X43121Y232506D01*
X41778Y231821D01*
X40349Y231357D01*
X40349Y238451D01*
G37*
%LPD*%
%LPC*%
G36*
X1558422Y156821D02*
X1558422Y156821D01*
X1557079Y157506D01*
X1555858Y158392D01*
X1554792Y159458D01*
X1553906Y160679D01*
X1553221Y162022D01*
X1552757Y163451D01*
X1559851Y163451D01*
X1559851Y156357D01*
X1558422Y156821D01*
G37*
%LPD*%
%LPC*%
G36*
X34422Y231821D02*
X34422Y231821D01*
X33079Y232506D01*
X31858Y233392D01*
X30792Y234458D01*
X29906Y235679D01*
X29221Y237022D01*
X28757Y238451D01*
X35851Y238451D01*
X35851Y231357D01*
X34422Y231821D01*
G37*
%LPD*%
D10*
X388620Y342900D02*
X373380Y342900D01*
X373380Y368300D02*
X388620Y368300D01*
X388620Y393700D02*
X373380Y393700D01*
X373380Y419100D02*
X388620Y419100D01*
X388620Y444500D02*
X373380Y444500D01*
X373380Y469900D02*
X388620Y469900D01*
X388620Y495300D02*
X373380Y495300D01*
X373380Y520700D02*
X388620Y520700D01*
D11*
X785100Y934200D03*
D12*
X759700Y934200D03*
D13*
X38100Y140700D03*
D14*
X38100Y165700D03*
X38100Y190700D03*
X38100Y215700D03*
X38100Y240700D03*
X38100Y265700D03*
D10*
X1198880Y533400D02*
X1214120Y533400D01*
X1214120Y508000D02*
X1198880Y508000D01*
X1198880Y482600D02*
X1214120Y482600D01*
X1214120Y457200D02*
X1198880Y457200D01*
X1198880Y431800D02*
X1214120Y431800D01*
X1214120Y406400D02*
X1198880Y406400D01*
X1198880Y381000D02*
X1214120Y381000D01*
X1214120Y355600D02*
X1198880Y355600D01*
X1036320Y355600D02*
X1021080Y355600D01*
X1021080Y381000D02*
X1036320Y381000D01*
X1036320Y406400D02*
X1021080Y406400D01*
X1021080Y431800D02*
X1036320Y431800D01*
X1036320Y457200D02*
X1021080Y457200D01*
X1021080Y482600D02*
X1036320Y482600D01*
X1036320Y508000D02*
X1021080Y508000D01*
X1021080Y533400D02*
X1036320Y533400D01*
D13*
X1562100Y265700D03*
D14*
X1562100Y240700D03*
X1562100Y215700D03*
X1562100Y190700D03*
X1562100Y165700D03*
X1562100Y140700D03*
D10*
X762000Y45720D02*
X762000Y30480D01*
X787400Y30480D02*
X787400Y45720D01*
X812800Y45720D02*
X812800Y30480D01*
X838200Y30480D02*
X838200Y45720D01*
D15*
X1562100Y787400D03*
X1562100Y812400D03*
D16*
X1417250Y762000D03*
D15*
X1503750Y762000D03*
D17*
X1206500Y228600D03*
D18*
X1193800Y228600D01*
X1181100Y241300D01*
X1181100Y304800D01*
D17*
X1181100Y304800D03*
X647700Y622300D03*
D18*
X685800Y660400D01*
X685800Y736600D01*
X685800Y812800D01*
D17*
X685800Y736600D03*
X685800Y812800D03*
X1003300Y584200D03*
D18*
X977900Y558800D01*
X977900Y546100D01*
D17*
X977900Y546100D03*
X660400Y571500D03*
X711200Y571500D03*
D18*
X711200Y546100D01*
D17*
X711200Y546100D03*
X863600Y546100D03*
D18*
X863600Y431800D01*
X838200Y406400D01*
X800100Y444500D01*
X774700Y444500D01*
D17*
X774700Y444500D03*
X812800Y304800D03*
D18*
X787400Y304800D01*
X774700Y317500D01*
D17*
X774700Y317500D03*
X558800Y596900D03*
D18*
X622300Y533400D01*
X635000Y533400D01*
D17*
X635000Y533400D03*
X342900Y736600D03*
D18*
X342900Y698500D01*
D17*
X342900Y698500D03*
X698500Y584200D03*
D18*
X685800Y571500D01*
X685800Y444500D01*
X673100Y431800D01*
D17*
X673100Y431800D03*
X292100Y673100D03*
D18*
X330200Y673100D01*
D17*
X330200Y673100D03*
X838200Y571500D03*
D18*
X850900Y558800D01*
X850900Y494030D01*
D17*
X850900Y494030D03*
X1168400Y342900D03*
D18*
X1231900Y406400D02*
X1257300Y406400D01*
X1194040Y392684D02*
X1187196Y385840D01*
X1194040Y392684D02*
X1218184Y392684D01*
X1231900Y406400D01*
X1187196Y361696D02*
X1168400Y342900D01*
X1187196Y361696D02*
X1187196Y385840D01*
X1257300Y635000D02*
X1270000Y647700D01*
X1257300Y635000D02*
X1257300Y406400D01*
D17*
X1270000Y647700D03*
X1168400Y876300D03*
D18*
X1104900Y812800D01*
X711200Y812800D01*
D17*
X711200Y812800D03*
X520700Y685800D03*
D18*
X520700Y711200D01*
X609600Y800100D01*
D17*
X609600Y800100D03*
X876300Y571500D03*
D18*
X876300Y546100D01*
D17*
X876300Y546100D03*
X1536700Y469900D03*
D18*
X1485900Y469900D01*
D17*
X1485900Y469900D03*
X685800Y317500D03*
D18*
X723900Y317500D01*
D17*
X723900Y317500D03*
X1155700Y571500D03*
D18*
X1155700Y546100D01*
D17*
X1155700Y546100D03*
X292100Y635000D03*
D18*
X644450Y614454D02*
X650950Y614454D01*
X623904Y635000D02*
X292100Y635000D01*
X650950Y614454D02*
X653942Y617446D01*
X644450Y614454D02*
X623904Y635000D01*
D17*
X1079500Y609600D03*
D18*
X1071654Y617446D02*
X653942Y617446D01*
X1071654Y617446D02*
X1079500Y609600D01*
X1168400Y520700D01*
X1168400Y469900D01*
D17*
X1168400Y469900D03*
X673100Y190500D03*
D18*
X736600Y190500D01*
D17*
X736600Y190500D03*
X1524000Y266700D03*
D18*
X1435100Y266700D01*
X1320800Y381000D01*
D17*
X1320800Y381000D03*
X825500Y482600D03*
D18*
X825500Y533400D01*
D17*
X825500Y533400D03*
X838200Y482600D03*
D18*
X838200Y520700D01*
D17*
X838200Y520700D03*
X850900Y381000D03*
D18*
X809440Y381000D01*
X703354Y401546D02*
X698500Y406400D01*
X788894Y401546D02*
X809440Y381000D01*
X788894Y401546D02*
X703354Y401546D01*
D17*
X698500Y406400D03*
X1054100Y406400D03*
D18*
X1092200Y406400D01*
X1143000Y355600D01*
X1143000Y342900D01*
X1150846Y335054D01*
X1531846Y269950D02*
X1531846Y225350D01*
X1412950Y388846D02*
X1317550Y388846D01*
X1412950Y388846D02*
X1531846Y269950D01*
X1263758Y335054D02*
X1150846Y335054D01*
X1263758Y335054D02*
X1317550Y388846D01*
X1522396Y215900D02*
X1531846Y225350D01*
X231850Y208054D02*
X225350Y208054D01*
X220754Y212650D01*
X220754Y219150D01*
X292100Y290496D02*
X292100Y381000D01*
X239696Y215900D02*
X231850Y208054D01*
X220754Y219150D02*
X292100Y290496D01*
X573104Y381000D02*
X580950Y373154D01*
X617446Y373154D02*
X646430Y344170D01*
X617446Y373154D02*
X580950Y373154D01*
X646430Y344170D02*
X683260Y344170D01*
X239696Y215900D02*
X1522396Y215900D01*
X573104Y381000D02*
X292100Y381000D01*
D17*
X683260Y344170D03*
X838200Y457200D03*
D18*
X800100Y457200D01*
X774700Y482600D01*
X711200Y482600D01*
X699008Y470408D01*
X699008Y437273D01*
X685800Y424065D02*
X685800Y419100D01*
X685800Y424065D02*
X699008Y437273D01*
D17*
X685800Y419100D03*
X674370Y317500D03*
D18*
X665254Y244550D02*
X665254Y238050D01*
X669850Y233454D01*
X676350Y233454D01*
X674370Y253666D02*
X674370Y317500D01*
X734996Y292100D02*
X825500Y292100D01*
X674370Y253666D02*
X665254Y244550D01*
X676350Y233454D02*
X734996Y292100D01*
D17*
X825500Y292100D03*
X838200Y469900D03*
D18*
X812800Y495300D02*
X711200Y495300D01*
X692404Y476504D01*
X673100Y420704D02*
X673100Y419100D01*
X692404Y440008D02*
X692404Y476504D01*
X692404Y440008D02*
X673100Y420704D01*
D17*
X673100Y419100D03*
D19*
X816610Y469900D02*
X838200Y469900D01*
X816610Y469900D02*
X812800Y473710D01*
X812800Y495300D01*
D17*
X584200Y381000D03*
D18*
X609600Y406400D01*
X622300Y406400D01*
D17*
X622300Y406400D03*
X685800Y609600D03*
D18*
X685800Y580840D01*
X679196Y574236D01*
X679196Y564896D02*
X660400Y546100D01*
X679196Y564896D02*
X679196Y574236D01*
D17*
X660400Y546100D03*
X1498600Y711200D03*
D18*
X1485900Y698500D01*
X1422400Y698500D01*
D17*
X1422400Y698500D03*
X1511300Y254000D03*
D18*
X1298650Y350746D02*
X1292150Y350746D01*
X1395396Y254000D02*
X1511300Y254000D01*
X1395396Y254000D02*
X1298650Y350746D01*
X1292150Y350746D02*
X1265508Y324104D01*
X806196Y324104D02*
X787400Y342900D01*
X806196Y324104D02*
X1265508Y324104D01*
D17*
X787400Y342900D03*
X1524000Y228600D03*
D18*
X1511300Y241300D01*
X1435100Y241300D01*
D17*
X1435100Y241300D03*
X1295400Y342900D03*
D18*
X1270000Y317500D01*
X800100Y317500D02*
X774700Y342900D01*
X800100Y317500D02*
X1270000Y317500D01*
D17*
X774700Y342900D03*
X673100Y241300D03*
D18*
X759234Y327434D01*
X759234Y341070D01*
X787400Y369236D02*
X787400Y393700D01*
X787400Y369236D02*
X759234Y341070D01*
X762000Y393700D02*
X787400Y393700D01*
D17*
X762000Y393700D03*
X228600Y215900D03*
D18*
X736600Y330200D02*
X749300Y342900D01*
X736600Y330200D02*
X417844Y330200D01*
X393460Y354584D01*
X367284Y354584D02*
X228600Y215900D01*
X367284Y354584D02*
X393460Y354584D01*
D17*
X749300Y342900D03*
M02*
