M48
;GenerationSoftware,Autodesk,EAGLE,9.6.2*%
;CreationDate,2025-11-22T00:11:24Z*%
FMAT,2
ICI,OFF
METRIC,TZ,000.000
T6C0.350
T5C0.900
T4C1.000
T3C1.016
T2C1.100
T1C2.800
%
G90
M71
T1
X15240Y90170
X15240Y10160
X144780Y90170
X144780Y11430
X25400Y50800
T2
X78510Y95960
X75970Y95960
X78510Y93420
X75970Y93420
T3
X120650Y45720
X120650Y43180
X38100Y49530
X38100Y52070
X76200Y3810
X102870Y53340
X102870Y50800
X102870Y48260
X102870Y45720
X102870Y43180
X102870Y40640
X102870Y38100
X102870Y35560
X120650Y35560
X120650Y38100
X120650Y40640
X38100Y46990
X83820Y3810
X120650Y48260
X120650Y50800
X120650Y53340
X81280Y3810
X78740Y3810
X38100Y34290
X38100Y36830
X38100Y39370
X38100Y41910
X38100Y44450
T4
X156210Y78740
X156210Y81240
X141725Y76200
X150375Y76200
T5
X156210Y14070
X3810Y14070
X3810Y16570
X3810Y19070
X3810Y21570
X156210Y19070
X3810Y26570
X156210Y16570
X156210Y26570
X156210Y24070
X156210Y21570
X3810Y24070
T6
X83820Y45720
X68580Y41910
X67437Y31750
X82550Y29210
X83820Y46990
X67310Y41910
X58420Y38100
X62230Y40640
X68580Y60960
X66040Y54610
X149860Y71120
X120650Y22860
X151130Y25400
X78740Y34290
X152400Y22860
X143510Y24130
X129540Y34290
X77470Y34290
X67310Y24130
X76200Y39370
X22860Y21590
X74930Y34290
X68326Y34417
X105410Y40640
X69850Y40640
X85090Y38100
X83820Y52070
X83820Y48260
X82550Y53340
X82550Y48260
X132080Y38100
X152400Y26670
X73660Y19050
X67310Y19050
X116840Y46990
X107950Y60960
X29210Y63500
X115570Y54610
X115570Y57150
X72390Y31750
X68580Y31750
X148590Y46990
X153670Y46990
X87630Y54610
X87630Y57150
X60960Y80010
X52070Y68580
X71120Y81280
X116840Y87630
X127000Y64770
X116840Y34290
X85090Y49403
X83820Y57150
X33020Y67310
X29210Y67310
X67310Y43180
X69850Y58420
X34290Y69850
X34290Y73660
X63500Y53340
X55880Y59690
X77470Y31750
X81280Y30480
X77470Y44450
X86360Y54610
X71120Y54610
X71120Y57150
X66040Y57150
X97790Y54610
X100330Y58420
X68580Y81280
X68580Y73660
X64770Y62230
X118110Y30480
X142240Y69850
M30