G04 EAGLE Gerber RS-274X export*
G75*
%MOMM*%
%FSLAX34Y34*%
%LPD*%
%IN*%
%IPPOS*%
%AMOC8*
5,1,8,0,0,1.08239X$1,22.5*%
G01*
%ADD10C,0.254000*%


D10*
X0Y0D02*
X1600000Y0D01*
X1600000Y1000000D01*
X0Y1000000D01*
X0Y0D01*
X166400Y901200D02*
X166329Y900203D01*
X166186Y899213D01*
X165974Y898236D01*
X165692Y897276D01*
X165343Y896339D01*
X164927Y895429D01*
X164448Y894552D01*
X163907Y893710D01*
X163308Y892910D01*
X162653Y892154D01*
X161946Y891447D01*
X161190Y890792D01*
X160390Y890193D01*
X159548Y889652D01*
X158671Y889173D01*
X157761Y888757D01*
X156824Y888408D01*
X155865Y888126D01*
X154887Y887914D01*
X153898Y887771D01*
X152900Y887700D01*
X151900Y887700D01*
X150903Y887771D01*
X149913Y887914D01*
X148936Y888126D01*
X147976Y888408D01*
X147039Y888757D01*
X146129Y889173D01*
X145252Y889652D01*
X144410Y890193D01*
X143610Y890792D01*
X142854Y891447D01*
X142147Y892154D01*
X141492Y892910D01*
X140893Y893710D01*
X140352Y894552D01*
X139873Y895429D01*
X139457Y896339D01*
X139108Y897276D01*
X138826Y898236D01*
X138614Y899213D01*
X138471Y900203D01*
X138400Y901200D01*
X138400Y902200D01*
X138471Y903198D01*
X138614Y904187D01*
X138826Y905165D01*
X139108Y906124D01*
X139457Y907061D01*
X139873Y907971D01*
X140352Y908848D01*
X140893Y909690D01*
X141492Y910490D01*
X142147Y911246D01*
X142854Y911953D01*
X143610Y912608D01*
X144410Y913207D01*
X145252Y913748D01*
X146129Y914227D01*
X147039Y914643D01*
X147976Y914992D01*
X148936Y915274D01*
X149913Y915486D01*
X150903Y915629D01*
X151900Y915700D01*
X152900Y915700D01*
X153898Y915629D01*
X154887Y915486D01*
X155865Y915274D01*
X156824Y914992D01*
X157761Y914643D01*
X158671Y914227D01*
X159548Y913748D01*
X160390Y913207D01*
X161190Y912608D01*
X161946Y911953D01*
X162653Y911246D01*
X163308Y910490D01*
X163907Y909690D01*
X164448Y908848D01*
X164927Y907971D01*
X165343Y907061D01*
X165692Y906124D01*
X165974Y905165D01*
X166186Y904187D01*
X166329Y903198D01*
X166400Y902200D01*
X166400Y901200D01*
X166400Y101100D02*
X166329Y100103D01*
X166186Y99113D01*
X165974Y98136D01*
X165692Y97176D01*
X165343Y96239D01*
X164927Y95329D01*
X164448Y94452D01*
X163907Y93610D01*
X163308Y92810D01*
X162653Y92054D01*
X161946Y91347D01*
X161190Y90692D01*
X160390Y90093D01*
X159548Y89552D01*
X158671Y89073D01*
X157761Y88657D01*
X156824Y88308D01*
X155865Y88026D01*
X154887Y87814D01*
X153898Y87671D01*
X152900Y87600D01*
X151900Y87600D01*
X150903Y87671D01*
X149913Y87814D01*
X148936Y88026D01*
X147976Y88308D01*
X147039Y88657D01*
X146129Y89073D01*
X145252Y89552D01*
X144410Y90093D01*
X143610Y90692D01*
X142854Y91347D01*
X142147Y92054D01*
X141492Y92810D01*
X140893Y93610D01*
X140352Y94452D01*
X139873Y95329D01*
X139457Y96239D01*
X139108Y97176D01*
X138826Y98136D01*
X138614Y99113D01*
X138471Y100103D01*
X138400Y101100D01*
X138400Y102100D01*
X138471Y103098D01*
X138614Y104087D01*
X138826Y105065D01*
X139108Y106024D01*
X139457Y106961D01*
X139873Y107871D01*
X140352Y108748D01*
X140893Y109590D01*
X141492Y110390D01*
X142147Y111146D01*
X142854Y111853D01*
X143610Y112508D01*
X144410Y113107D01*
X145252Y113648D01*
X146129Y114127D01*
X147039Y114543D01*
X147976Y114892D01*
X148936Y115174D01*
X149913Y115386D01*
X150903Y115529D01*
X151900Y115600D01*
X152900Y115600D01*
X153898Y115529D01*
X154887Y115386D01*
X155865Y115174D01*
X156824Y114892D01*
X157761Y114543D01*
X158671Y114127D01*
X159548Y113648D01*
X160390Y113107D01*
X161190Y112508D01*
X161946Y111853D01*
X162653Y111146D01*
X163308Y110390D01*
X163907Y109590D01*
X164448Y108748D01*
X164927Y107871D01*
X165343Y106961D01*
X165692Y106024D01*
X165974Y105065D01*
X166186Y104087D01*
X166329Y103098D01*
X166400Y102100D01*
X166400Y101100D01*
X1461800Y901200D02*
X1461729Y900203D01*
X1461586Y899213D01*
X1461374Y898236D01*
X1461092Y897276D01*
X1460743Y896339D01*
X1460327Y895429D01*
X1459848Y894552D01*
X1459307Y893710D01*
X1458708Y892910D01*
X1458053Y892154D01*
X1457346Y891447D01*
X1456590Y890792D01*
X1455790Y890193D01*
X1454948Y889652D01*
X1454071Y889173D01*
X1453161Y888757D01*
X1452224Y888408D01*
X1451265Y888126D01*
X1450287Y887914D01*
X1449298Y887771D01*
X1448300Y887700D01*
X1447300Y887700D01*
X1446303Y887771D01*
X1445313Y887914D01*
X1444336Y888126D01*
X1443376Y888408D01*
X1442439Y888757D01*
X1441529Y889173D01*
X1440652Y889652D01*
X1439810Y890193D01*
X1439010Y890792D01*
X1438254Y891447D01*
X1437547Y892154D01*
X1436892Y892910D01*
X1436293Y893710D01*
X1435752Y894552D01*
X1435273Y895429D01*
X1434857Y896339D01*
X1434508Y897276D01*
X1434226Y898236D01*
X1434014Y899213D01*
X1433871Y900203D01*
X1433800Y901200D01*
X1433800Y902200D01*
X1433871Y903198D01*
X1434014Y904187D01*
X1434226Y905165D01*
X1434508Y906124D01*
X1434857Y907061D01*
X1435273Y907971D01*
X1435752Y908848D01*
X1436293Y909690D01*
X1436892Y910490D01*
X1437547Y911246D01*
X1438254Y911953D01*
X1439010Y912608D01*
X1439810Y913207D01*
X1440652Y913748D01*
X1441529Y914227D01*
X1442439Y914643D01*
X1443376Y914992D01*
X1444336Y915274D01*
X1445313Y915486D01*
X1446303Y915629D01*
X1447300Y915700D01*
X1448300Y915700D01*
X1449298Y915629D01*
X1450287Y915486D01*
X1451265Y915274D01*
X1452224Y914992D01*
X1453161Y914643D01*
X1454071Y914227D01*
X1454948Y913748D01*
X1455790Y913207D01*
X1456590Y912608D01*
X1457346Y911953D01*
X1458053Y911246D01*
X1458708Y910490D01*
X1459307Y909690D01*
X1459848Y908848D01*
X1460327Y907971D01*
X1460743Y907061D01*
X1461092Y906124D01*
X1461374Y905165D01*
X1461586Y904187D01*
X1461729Y903198D01*
X1461800Y902200D01*
X1461800Y901200D01*
X1461800Y113800D02*
X1461729Y112803D01*
X1461586Y111813D01*
X1461374Y110836D01*
X1461092Y109876D01*
X1460743Y108939D01*
X1460327Y108029D01*
X1459848Y107152D01*
X1459307Y106310D01*
X1458708Y105510D01*
X1458053Y104754D01*
X1457346Y104047D01*
X1456590Y103392D01*
X1455790Y102793D01*
X1454948Y102252D01*
X1454071Y101773D01*
X1453161Y101357D01*
X1452224Y101008D01*
X1451265Y100726D01*
X1450287Y100514D01*
X1449298Y100371D01*
X1448300Y100300D01*
X1447300Y100300D01*
X1446303Y100371D01*
X1445313Y100514D01*
X1444336Y100726D01*
X1443376Y101008D01*
X1442439Y101357D01*
X1441529Y101773D01*
X1440652Y102252D01*
X1439810Y102793D01*
X1439010Y103392D01*
X1438254Y104047D01*
X1437547Y104754D01*
X1436892Y105510D01*
X1436293Y106310D01*
X1435752Y107152D01*
X1435273Y108029D01*
X1434857Y108939D01*
X1434508Y109876D01*
X1434226Y110836D01*
X1434014Y111813D01*
X1433871Y112803D01*
X1433800Y113800D01*
X1433800Y114800D01*
X1433871Y115798D01*
X1434014Y116787D01*
X1434226Y117765D01*
X1434508Y118724D01*
X1434857Y119661D01*
X1435273Y120571D01*
X1435752Y121448D01*
X1436293Y122290D01*
X1436892Y123090D01*
X1437547Y123846D01*
X1438254Y124553D01*
X1439010Y125208D01*
X1439810Y125807D01*
X1440652Y126348D01*
X1441529Y126827D01*
X1442439Y127243D01*
X1443376Y127592D01*
X1444336Y127874D01*
X1445313Y128086D01*
X1446303Y128229D01*
X1447300Y128300D01*
X1448300Y128300D01*
X1449298Y128229D01*
X1450287Y128086D01*
X1451265Y127874D01*
X1452224Y127592D01*
X1453161Y127243D01*
X1454071Y126827D01*
X1454948Y126348D01*
X1455790Y125807D01*
X1456590Y125208D01*
X1457346Y124553D01*
X1458053Y123846D01*
X1458708Y123090D01*
X1459307Y122290D01*
X1459848Y121448D01*
X1460327Y120571D01*
X1460743Y119661D01*
X1461092Y118724D01*
X1461374Y117765D01*
X1461586Y116787D01*
X1461729Y115798D01*
X1461800Y114800D01*
X1461800Y113800D01*
X779600Y959909D02*
X779669Y960523D01*
X779807Y961125D01*
X780011Y961708D01*
X780279Y962265D01*
X780607Y962788D01*
X780993Y963271D01*
X781429Y963708D01*
X781912Y964093D01*
X782435Y964421D01*
X782992Y964689D01*
X783575Y964893D01*
X784177Y965031D01*
X784791Y965100D01*
X785409Y965100D01*
X786023Y965031D01*
X786625Y964893D01*
X787208Y964689D01*
X787765Y964421D01*
X788288Y964093D01*
X788771Y963708D01*
X789208Y963271D01*
X789593Y962788D01*
X789921Y962265D01*
X790189Y961708D01*
X790393Y961125D01*
X790531Y960523D01*
X790600Y959909D01*
X790600Y959291D01*
X790531Y958677D01*
X790393Y958075D01*
X790189Y957492D01*
X789921Y956935D01*
X789593Y956412D01*
X789208Y955929D01*
X788771Y955493D01*
X788288Y955107D01*
X787765Y954779D01*
X787208Y954511D01*
X786625Y954307D01*
X786023Y954169D01*
X785409Y954100D01*
X784791Y954100D01*
X784177Y954169D01*
X783575Y954307D01*
X782992Y954511D01*
X782435Y954779D01*
X781912Y955107D01*
X781429Y955493D01*
X780993Y955929D01*
X780607Y956412D01*
X780279Y956935D01*
X780011Y957492D01*
X779807Y958075D01*
X779669Y958677D01*
X779600Y959291D01*
X779600Y959909D01*
X754200Y959909D02*
X754269Y960523D01*
X754407Y961125D01*
X754611Y961708D01*
X754879Y962265D01*
X755207Y962788D01*
X755593Y963271D01*
X756029Y963708D01*
X756512Y964093D01*
X757035Y964421D01*
X757592Y964689D01*
X758175Y964893D01*
X758777Y965031D01*
X759391Y965100D01*
X760009Y965100D01*
X760623Y965031D01*
X761225Y964893D01*
X761808Y964689D01*
X762365Y964421D01*
X762888Y964093D01*
X763371Y963708D01*
X763808Y963271D01*
X764193Y962788D01*
X764521Y962265D01*
X764789Y961708D01*
X764993Y961125D01*
X765131Y960523D01*
X765200Y959909D01*
X765200Y959291D01*
X765131Y958677D01*
X764993Y958075D01*
X764789Y957492D01*
X764521Y956935D01*
X764193Y956412D01*
X763808Y955929D01*
X763371Y955493D01*
X762888Y955107D01*
X762365Y954779D01*
X761808Y954511D01*
X761225Y954307D01*
X760623Y954169D01*
X760009Y954100D01*
X759391Y954100D01*
X758777Y954169D01*
X758175Y954307D01*
X757592Y954511D01*
X757035Y954779D01*
X756512Y955107D01*
X756029Y955493D01*
X755593Y955929D01*
X755207Y956412D01*
X754879Y956935D01*
X754611Y957492D01*
X754407Y958075D01*
X754269Y958677D01*
X754200Y959291D01*
X754200Y959909D01*
X268000Y507500D02*
X267929Y506503D01*
X267786Y505513D01*
X267574Y504536D01*
X267292Y503576D01*
X266943Y502639D01*
X266527Y501729D01*
X266048Y500852D01*
X265507Y500010D01*
X264908Y499210D01*
X264253Y498454D01*
X263546Y497747D01*
X262790Y497092D01*
X261990Y496493D01*
X261148Y495952D01*
X260271Y495473D01*
X259361Y495057D01*
X258424Y494708D01*
X257465Y494426D01*
X256487Y494214D01*
X255498Y494071D01*
X254500Y494000D01*
X253500Y494000D01*
X252503Y494071D01*
X251513Y494214D01*
X250536Y494426D01*
X249576Y494708D01*
X248639Y495057D01*
X247729Y495473D01*
X246852Y495952D01*
X246010Y496493D01*
X245210Y497092D01*
X244454Y497747D01*
X243747Y498454D01*
X243092Y499210D01*
X242493Y500010D01*
X241952Y500852D01*
X241473Y501729D01*
X241057Y502639D01*
X240708Y503576D01*
X240426Y504536D01*
X240214Y505513D01*
X240071Y506503D01*
X240000Y507500D01*
X240000Y508500D01*
X240071Y509498D01*
X240214Y510487D01*
X240426Y511465D01*
X240708Y512424D01*
X241057Y513361D01*
X241473Y514271D01*
X241952Y515148D01*
X242493Y515990D01*
X243092Y516790D01*
X243747Y517546D01*
X244454Y518253D01*
X245210Y518908D01*
X246010Y519507D01*
X246852Y520048D01*
X247729Y520527D01*
X248639Y520943D01*
X249576Y521292D01*
X250536Y521574D01*
X251513Y521786D01*
X252503Y521929D01*
X253500Y522000D01*
X254500Y522000D01*
X255498Y521929D01*
X256487Y521786D01*
X257465Y521574D01*
X258424Y521292D01*
X259361Y520943D01*
X260271Y520527D01*
X261148Y520048D01*
X261990Y519507D01*
X262790Y518908D01*
X263546Y518253D01*
X264253Y517546D01*
X264908Y516790D01*
X265507Y515990D01*
X266048Y515148D01*
X266527Y514271D01*
X266943Y513361D01*
X267292Y512424D01*
X267574Y511465D01*
X267786Y510487D01*
X267929Y509498D01*
X268000Y508500D01*
X268000Y507500D01*
M02*
