G04 EAGLE Gerber RS-274X export*
G75*
%MOMM*%
%FSLAX34Y34*%
%LPD*%
%INSoldermask Top*%
%IPPOS*%
%AMOC8*
5,1,8,0,0,1.08239X$1,22.5*%
G01*
%ADD10C,1.727200*%
%ADD11R,1.803200X2.003200*%
%ADD12R,1.603200X2.003200*%
%ADD13C,3.003200*%
%ADD14R,0.503200X1.703200*%
%ADD15R,1.703200X0.503200*%
%ADD16R,1.853200X1.853200*%
%ADD17C,1.853200*%
%ADD18C,1.303200*%
%ADD19R,1.403200X1.203200*%
%ADD20R,1.403200X1.603200*%
%ADD21R,1.611200X1.611200*%
%ADD22C,1.611200*%
%ADD23R,1.603200X1.403200*%
%ADD24R,1.803200X2.006200*%
%ADD25R,2.006200X1.803200*%
%ADD26R,1.219200X0.762000*%
%ADD27R,0.762000X1.219200*%
%ADD28C,0.353406*%
%ADD29R,2.103200X0.603200*%
%ADD30C,1.711200*%
%ADD31R,1.711200X1.711200*%
%ADD32C,0.339959*%
%ADD33C,0.393431*%
%ADD34R,2.003200X1.803200*%
%ADD35R,3.703200X1.803200*%
%ADD36R,2.503200X1.803200*%
%ADD37R,1.003200X1.103200*%
%ADD38C,0.959600*%


D10*
X388620Y342900D02*
X373380Y342900D01*
X373380Y368300D02*
X388620Y368300D01*
X388620Y393700D02*
X373380Y393700D01*
X373380Y419100D02*
X388620Y419100D01*
X388620Y444500D02*
X373380Y444500D01*
X373380Y469900D02*
X388620Y469900D01*
X388620Y495300D02*
X373380Y495300D01*
X373380Y520700D02*
X388620Y520700D01*
D11*
X976600Y914400D03*
X1004600Y914400D03*
X455900Y825500D03*
X483900Y825500D03*
X699800Y698500D03*
X671800Y698500D03*
X976600Y850900D03*
X1004600Y850900D03*
X976600Y787400D03*
X1004600Y787400D03*
X811500Y622300D03*
X839500Y622300D03*
X976600Y723900D03*
X1004600Y723900D03*
X1217900Y800100D03*
X1245900Y800100D03*
X1268700Y177800D03*
X1296700Y177800D03*
X1167100Y177800D03*
X1195100Y177800D03*
X1052800Y177800D03*
X1080800Y177800D03*
D12*
X1248900Y876300D03*
X1214900Y876300D03*
D13*
X152400Y901700D03*
X152400Y101600D03*
X1447800Y901700D03*
X1447800Y114300D03*
D14*
X783900Y524500D03*
X778900Y524500D03*
X773900Y524500D03*
X768900Y524500D03*
X763900Y524500D03*
X758900Y524500D03*
X753900Y524500D03*
X748900Y524500D03*
X743900Y524500D03*
X738900Y524500D03*
X733900Y524500D03*
X728900Y524500D03*
X723900Y524500D03*
X718900Y524500D03*
X713900Y524500D03*
X708900Y524500D03*
X703900Y524500D03*
X698900Y524500D03*
X693900Y524500D03*
X688900Y524500D03*
X683900Y524500D03*
X678900Y524500D03*
X673900Y524500D03*
X668900Y524500D03*
X663900Y524500D03*
D15*
X643900Y504500D03*
X643900Y499500D03*
X643900Y494500D03*
X643900Y489500D03*
X643900Y484500D03*
X643900Y479500D03*
X643900Y474500D03*
X643900Y469500D03*
X643900Y464500D03*
X643900Y459500D03*
X643900Y454500D03*
X643900Y449500D03*
X643900Y444500D03*
X643900Y439500D03*
X643900Y434500D03*
X643900Y429500D03*
X643900Y424500D03*
X643900Y419500D03*
X643900Y414500D03*
X643900Y409500D03*
X643900Y404500D03*
X643900Y399500D03*
X643900Y394500D03*
X643900Y389500D03*
X643900Y384500D03*
D14*
X663900Y364500D03*
X668900Y364500D03*
X673900Y364500D03*
X678900Y364500D03*
X683900Y364500D03*
X688900Y364500D03*
X693900Y364500D03*
X698900Y364500D03*
X703900Y364500D03*
X708900Y364500D03*
X713900Y364500D03*
X718900Y364500D03*
X723900Y364500D03*
X728900Y364500D03*
X733900Y364500D03*
X738900Y364500D03*
X743900Y364500D03*
X748900Y364500D03*
X753900Y364500D03*
X758900Y364500D03*
X763900Y364500D03*
X768900Y364500D03*
X773900Y364500D03*
X778900Y364500D03*
X783900Y364500D03*
D15*
X803900Y384500D03*
X803900Y389500D03*
X803900Y394500D03*
X803900Y399500D03*
X803900Y404500D03*
X803900Y409500D03*
X803900Y414500D03*
X803900Y419500D03*
X803900Y424500D03*
X803900Y429500D03*
X803900Y434500D03*
X803900Y439500D03*
X803900Y444500D03*
X803900Y449500D03*
X803900Y454500D03*
X803900Y459500D03*
X803900Y464500D03*
X803900Y469500D03*
X803900Y474500D03*
X803900Y479500D03*
X803900Y484500D03*
X803900Y489500D03*
X803900Y494500D03*
X803900Y499500D03*
X803900Y504500D03*
D16*
X785100Y934200D03*
D17*
X759700Y934200D03*
D18*
X785100Y959600D03*
X759700Y959600D03*
D19*
X1043100Y723900D03*
X1065100Y723900D03*
D20*
X607300Y584200D03*
X637300Y584200D03*
D21*
X38100Y140700D03*
D22*
X38100Y165700D03*
X38100Y190700D03*
X38100Y215700D03*
X38100Y240700D03*
X38100Y265700D03*
D10*
X1198880Y533400D02*
X1214120Y533400D01*
X1214120Y508000D02*
X1198880Y508000D01*
X1198880Y482600D02*
X1214120Y482600D01*
X1214120Y457200D02*
X1198880Y457200D01*
X1198880Y431800D02*
X1214120Y431800D01*
X1214120Y406400D02*
X1198880Y406400D01*
X1198880Y381000D02*
X1214120Y381000D01*
X1214120Y355600D02*
X1198880Y355600D01*
X1036320Y355600D02*
X1021080Y355600D01*
X1021080Y381000D02*
X1036320Y381000D01*
X1036320Y406400D02*
X1021080Y406400D01*
X1021080Y431800D02*
X1036320Y431800D01*
X1036320Y457200D02*
X1021080Y457200D01*
X1021080Y482600D02*
X1036320Y482600D01*
X1036320Y508000D02*
X1021080Y508000D01*
X1021080Y533400D02*
X1036320Y533400D01*
D23*
X431800Y708900D03*
X431800Y738900D03*
D24*
X569980Y698500D03*
X598420Y698500D03*
X738120Y774700D03*
X709680Y774700D03*
D25*
X228600Y696980D03*
X228600Y725420D03*
D21*
X1562100Y265700D03*
D22*
X1562100Y240700D03*
X1562100Y215700D03*
X1562100Y190700D03*
X1562100Y165700D03*
X1562100Y140700D03*
D26*
X1260659Y698626D03*
X1260596Y689876D03*
X1260570Y681178D03*
X1260583Y672581D03*
X1278744Y672619D03*
X1278769Y681279D03*
X1278769Y690003D03*
X1278833Y698692D03*
D27*
X495175Y587559D03*
X503924Y587496D03*
X512622Y587470D03*
X521219Y587483D03*
X521181Y605644D03*
X512521Y605669D03*
X503797Y605669D03*
X495108Y605733D03*
D28*
X575801Y816901D02*
X593999Y816901D01*
X575801Y816901D02*
X575801Y821399D01*
X593999Y821399D01*
X593999Y816901D01*
X593999Y820258D02*
X575801Y820258D01*
X575801Y804201D02*
X593999Y804201D01*
X575801Y804201D02*
X575801Y808699D01*
X593999Y808699D01*
X593999Y804201D01*
X593999Y807558D02*
X575801Y807558D01*
X575801Y791501D02*
X593999Y791501D01*
X575801Y791501D02*
X575801Y795999D01*
X593999Y795999D01*
X593999Y791501D01*
X593999Y794858D02*
X575801Y794858D01*
X575801Y778801D02*
X593999Y778801D01*
X575801Y778801D02*
X575801Y783299D01*
X593999Y783299D01*
X593999Y778801D01*
X593999Y782158D02*
X575801Y782158D01*
X625201Y778801D02*
X643399Y778801D01*
X625201Y778801D02*
X625201Y783299D01*
X643399Y783299D01*
X643399Y778801D01*
X643399Y782158D02*
X625201Y782158D01*
X625201Y791501D02*
X643399Y791501D01*
X625201Y791501D02*
X625201Y795999D01*
X643399Y795999D01*
X643399Y791501D01*
X643399Y794858D02*
X625201Y794858D01*
X625201Y804201D02*
X643399Y804201D01*
X625201Y804201D02*
X625201Y808699D01*
X643399Y808699D01*
X643399Y804201D01*
X643399Y807558D02*
X625201Y807558D01*
X625201Y816901D02*
X643399Y816901D01*
X625201Y816901D02*
X625201Y821399D01*
X643399Y821399D01*
X643399Y816901D01*
X643399Y820258D02*
X625201Y820258D01*
D10*
X762000Y45720D02*
X762000Y30480D01*
X787400Y30480D02*
X787400Y45720D01*
X812800Y45720D02*
X812800Y30480D01*
X838200Y30480D02*
X838200Y45720D01*
D29*
X292100Y723200D03*
X292100Y711200D03*
X292100Y699200D03*
D30*
X1562100Y787400D03*
X1562100Y812400D03*
D31*
X1417250Y762000D03*
D30*
X1503750Y762000D03*
D11*
X1497300Y673100D03*
X1525300Y673100D03*
D32*
X1390766Y570284D02*
X1382834Y570284D01*
X1382834Y582016D01*
X1390766Y582016D01*
X1390766Y570284D01*
X1390766Y573514D02*
X1382834Y573514D01*
X1382834Y576744D02*
X1390766Y576744D01*
X1390766Y579974D02*
X1382834Y579974D01*
X1405734Y570284D02*
X1413666Y570284D01*
X1405734Y570284D02*
X1405734Y582016D01*
X1413666Y582016D01*
X1413666Y570284D01*
X1413666Y573514D02*
X1405734Y573514D01*
X1405734Y576744D02*
X1413666Y576744D01*
X1413666Y579974D02*
X1405734Y579974D01*
X1428634Y570284D02*
X1436566Y570284D01*
X1428634Y570284D02*
X1428634Y582016D01*
X1436566Y582016D01*
X1436566Y570284D01*
X1436566Y573514D02*
X1428634Y573514D01*
X1428634Y576744D02*
X1436566Y576744D01*
X1436566Y579974D02*
X1428634Y579974D01*
D33*
X1424949Y637451D02*
X1394451Y637451D01*
X1394451Y648649D01*
X1424949Y648649D01*
X1424949Y637451D01*
X1424949Y641188D02*
X1394451Y641188D01*
X1394451Y644925D02*
X1424949Y644925D01*
D34*
X1511300Y506700D03*
X1511300Y534700D03*
D35*
X1496000Y393700D03*
X1552000Y393700D03*
D36*
X1200400Y952500D03*
X1263400Y952500D03*
D37*
X1358900Y477838D03*
X1358900Y461962D03*
D24*
X1357380Y393700D03*
X1385820Y393700D03*
D13*
X254000Y508000D03*
D38*
X1206500Y228600D03*
X1181100Y304800D03*
X647700Y622300D03*
X685800Y736600D03*
X685800Y812800D03*
X1003300Y584200D03*
X977900Y546100D03*
X660400Y571500D03*
X711200Y571500D03*
X711200Y546100D03*
X863600Y546100D03*
X774700Y444500D03*
X812800Y304800D03*
X774700Y317500D03*
X558800Y596900D03*
X635000Y533400D03*
X342900Y736600D03*
X342900Y698500D03*
X698500Y584200D03*
X673100Y431800D03*
X292100Y673100D03*
X330200Y673100D03*
X838200Y571500D03*
X850900Y494030D03*
X1168400Y342900D03*
X1270000Y647700D03*
X1168400Y876300D03*
X711200Y812800D03*
X520700Y685800D03*
X609600Y800100D03*
X876300Y571500D03*
X876300Y546100D03*
X1536700Y469900D03*
X1485900Y469900D03*
X685800Y317500D03*
X723900Y317500D03*
X1155700Y571500D03*
X1155700Y546100D03*
X292100Y635000D03*
X1079500Y609600D03*
X1168400Y469900D03*
X673100Y190500D03*
X736600Y190500D03*
X1524000Y266700D03*
X1320800Y381000D03*
X825500Y482600D03*
X825500Y533400D03*
X838200Y482600D03*
X838200Y520700D03*
X850900Y381000D03*
X698500Y406400D03*
X1054100Y406400D03*
X683260Y344170D03*
X838200Y457200D03*
X685800Y419100D03*
X674370Y317500D03*
X825500Y292100D03*
X838200Y469900D03*
X673100Y419100D03*
X584200Y381000D03*
X622300Y406400D03*
X685800Y609600D03*
X660400Y546100D03*
X1498600Y711200D03*
X1422400Y698500D03*
X1511300Y254000D03*
X787400Y342900D03*
X1524000Y228600D03*
X1435100Y241300D03*
X1295400Y342900D03*
X774700Y342900D03*
X673100Y241300D03*
X762000Y393700D03*
X228600Y215900D03*
X749300Y342900D03*
M02*
