G04 EAGLE Gerber RS-274X export*
G75*
%MOMM*%
%FSLAX34Y34*%
%LPD*%
%INSoldermask Bottom*%
%IPPOS*%
%AMOC8*
5,1,8,0,0,1.08239X$1,22.5*%
G01*
%ADD10C,1.727200*%
%ADD11C,3.003200*%
%ADD12R,1.853200X1.853200*%
%ADD13C,1.853200*%
%ADD14C,1.303200*%
%ADD15R,1.611200X1.611200*%
%ADD16C,1.611200*%
%ADD17C,1.711200*%
%ADD18R,1.711200X1.711200*%
%ADD19C,0.959600*%


D10*
X388620Y342900D02*
X373380Y342900D01*
X373380Y368300D02*
X388620Y368300D01*
X388620Y393700D02*
X373380Y393700D01*
X373380Y419100D02*
X388620Y419100D01*
X388620Y444500D02*
X373380Y444500D01*
X373380Y469900D02*
X388620Y469900D01*
X388620Y495300D02*
X373380Y495300D01*
X373380Y520700D02*
X388620Y520700D01*
D11*
X152400Y901700D03*
X152400Y101600D03*
X1447800Y901700D03*
X1447800Y114300D03*
D12*
X785100Y934200D03*
D13*
X759700Y934200D03*
D14*
X785100Y959600D03*
X759700Y959600D03*
D15*
X38100Y140700D03*
D16*
X38100Y165700D03*
X38100Y190700D03*
X38100Y215700D03*
X38100Y240700D03*
X38100Y265700D03*
D10*
X1198880Y533400D02*
X1214120Y533400D01*
X1214120Y508000D02*
X1198880Y508000D01*
X1198880Y482600D02*
X1214120Y482600D01*
X1214120Y457200D02*
X1198880Y457200D01*
X1198880Y431800D02*
X1214120Y431800D01*
X1214120Y406400D02*
X1198880Y406400D01*
X1198880Y381000D02*
X1214120Y381000D01*
X1214120Y355600D02*
X1198880Y355600D01*
X1036320Y355600D02*
X1021080Y355600D01*
X1021080Y381000D02*
X1036320Y381000D01*
X1036320Y406400D02*
X1021080Y406400D01*
X1021080Y431800D02*
X1036320Y431800D01*
X1036320Y457200D02*
X1021080Y457200D01*
X1021080Y482600D02*
X1036320Y482600D01*
X1036320Y508000D02*
X1021080Y508000D01*
X1021080Y533400D02*
X1036320Y533400D01*
D15*
X1562100Y265700D03*
D16*
X1562100Y240700D03*
X1562100Y215700D03*
X1562100Y190700D03*
X1562100Y165700D03*
X1562100Y140700D03*
D10*
X762000Y45720D02*
X762000Y30480D01*
X787400Y30480D02*
X787400Y45720D01*
X812800Y45720D02*
X812800Y30480D01*
X838200Y30480D02*
X838200Y45720D01*
D17*
X1562100Y787400D03*
X1562100Y812400D03*
D18*
X1417250Y762000D03*
D17*
X1503750Y762000D03*
D11*
X254000Y508000D03*
D19*
X1206500Y228600D03*
X1181100Y304800D03*
X647700Y622300D03*
X685800Y736600D03*
X685800Y812800D03*
X1003300Y584200D03*
X977900Y546100D03*
X660400Y571500D03*
X711200Y571500D03*
X711200Y546100D03*
X863600Y546100D03*
X774700Y444500D03*
X812800Y304800D03*
X774700Y317500D03*
X558800Y596900D03*
X635000Y533400D03*
X342900Y736600D03*
X342900Y698500D03*
X698500Y584200D03*
X673100Y431800D03*
X292100Y673100D03*
X330200Y673100D03*
X838200Y571500D03*
X850900Y494030D03*
X1168400Y342900D03*
X1270000Y647700D03*
X1168400Y876300D03*
X711200Y812800D03*
X520700Y685800D03*
X609600Y800100D03*
X876300Y571500D03*
X876300Y546100D03*
X1536700Y469900D03*
X1485900Y469900D03*
X685800Y317500D03*
X723900Y317500D03*
X1155700Y571500D03*
X1155700Y546100D03*
X292100Y635000D03*
X1079500Y609600D03*
X1168400Y469900D03*
X673100Y190500D03*
X736600Y190500D03*
X1524000Y266700D03*
X1320800Y381000D03*
X825500Y482600D03*
X825500Y533400D03*
X838200Y482600D03*
X838200Y520700D03*
X850900Y381000D03*
X698500Y406400D03*
X1054100Y406400D03*
X683260Y344170D03*
X838200Y457200D03*
X685800Y419100D03*
X674370Y317500D03*
X825500Y292100D03*
X838200Y469900D03*
X673100Y419100D03*
X584200Y381000D03*
X622300Y406400D03*
X685800Y609600D03*
X660400Y546100D03*
X1498600Y711200D03*
X1422400Y698500D03*
X1511300Y254000D03*
X787400Y342900D03*
X1524000Y228600D03*
X1435100Y241300D03*
X1295400Y342900D03*
X774700Y342900D03*
X673100Y241300D03*
X762000Y393700D03*
X228600Y215900D03*
X749300Y342900D03*
M02*
