G04 EAGLE Gerber RS-274X export*
G75*
%MOMM*%
%FSLAX34Y34*%
%LPD*%
%INSolderpaste Top*%
%IPPOS*%
%AMOC8*
5,1,8,0,0,1.08239X$1,22.5*%
G01*
%ADD10R,1.600000X1.800000*%
%ADD11R,1.400000X1.800000*%
%ADD12R,0.300000X1.500000*%
%ADD13R,1.500000X0.300000*%
%ADD14R,1.200000X1.000000*%
%ADD15R,1.200000X1.400000*%
%ADD16R,1.400000X1.200000*%
%ADD17R,1.600000X1.803000*%
%ADD18R,1.803000X1.600000*%
%ADD19R,1.016000X0.558800*%
%ADD20R,0.558800X1.016000*%
%ADD21C,0.150000*%
%ADD22R,1.900000X0.400000*%
%ADD23C,0.139500*%
%ADD24C,0.196500*%
%ADD25R,1.800000X1.600000*%
%ADD26R,3.500000X1.600000*%
%ADD27R,2.300000X1.600000*%
%ADD28R,0.800000X0.900000*%


D10*
X976600Y914400D03*
X1004600Y914400D03*
X455900Y825500D03*
X483900Y825500D03*
X699800Y698500D03*
X671800Y698500D03*
X976600Y850900D03*
X1004600Y850900D03*
X976600Y787400D03*
X1004600Y787400D03*
X811500Y622300D03*
X839500Y622300D03*
X976600Y723900D03*
X1004600Y723900D03*
X1217900Y800100D03*
X1245900Y800100D03*
X1268700Y177800D03*
X1296700Y177800D03*
X1167100Y177800D03*
X1195100Y177800D03*
X1052800Y177800D03*
X1080800Y177800D03*
D11*
X1248900Y876300D03*
X1214900Y876300D03*
D12*
X783900Y524500D03*
X778900Y524500D03*
X773900Y524500D03*
X768900Y524500D03*
X763900Y524500D03*
X758900Y524500D03*
X753900Y524500D03*
X748900Y524500D03*
X743900Y524500D03*
X738900Y524500D03*
X733900Y524500D03*
X728900Y524500D03*
X723900Y524500D03*
X718900Y524500D03*
X713900Y524500D03*
X708900Y524500D03*
X703900Y524500D03*
X698900Y524500D03*
X693900Y524500D03*
X688900Y524500D03*
X683900Y524500D03*
X678900Y524500D03*
X673900Y524500D03*
X668900Y524500D03*
X663900Y524500D03*
D13*
X643900Y504500D03*
X643900Y499500D03*
X643900Y494500D03*
X643900Y489500D03*
X643900Y484500D03*
X643900Y479500D03*
X643900Y474500D03*
X643900Y469500D03*
X643900Y464500D03*
X643900Y459500D03*
X643900Y454500D03*
X643900Y449500D03*
X643900Y444500D03*
X643900Y439500D03*
X643900Y434500D03*
X643900Y429500D03*
X643900Y424500D03*
X643900Y419500D03*
X643900Y414500D03*
X643900Y409500D03*
X643900Y404500D03*
X643900Y399500D03*
X643900Y394500D03*
X643900Y389500D03*
X643900Y384500D03*
D12*
X663900Y364500D03*
X668900Y364500D03*
X673900Y364500D03*
X678900Y364500D03*
X683900Y364500D03*
X688900Y364500D03*
X693900Y364500D03*
X698900Y364500D03*
X703900Y364500D03*
X708900Y364500D03*
X713900Y364500D03*
X718900Y364500D03*
X723900Y364500D03*
X728900Y364500D03*
X733900Y364500D03*
X738900Y364500D03*
X743900Y364500D03*
X748900Y364500D03*
X753900Y364500D03*
X758900Y364500D03*
X763900Y364500D03*
X768900Y364500D03*
X773900Y364500D03*
X778900Y364500D03*
X783900Y364500D03*
D13*
X803900Y384500D03*
X803900Y389500D03*
X803900Y394500D03*
X803900Y399500D03*
X803900Y404500D03*
X803900Y409500D03*
X803900Y414500D03*
X803900Y419500D03*
X803900Y424500D03*
X803900Y429500D03*
X803900Y434500D03*
X803900Y439500D03*
X803900Y444500D03*
X803900Y449500D03*
X803900Y454500D03*
X803900Y459500D03*
X803900Y464500D03*
X803900Y469500D03*
X803900Y474500D03*
X803900Y479500D03*
X803900Y484500D03*
X803900Y489500D03*
X803900Y494500D03*
X803900Y499500D03*
X803900Y504500D03*
D14*
X1043100Y723900D03*
X1065100Y723900D03*
D15*
X607300Y584200D03*
X637300Y584200D03*
D16*
X431800Y708900D03*
X431800Y738900D03*
D17*
X569980Y698500D03*
X598420Y698500D03*
X738120Y774700D03*
X709680Y774700D03*
D18*
X228600Y696980D03*
X228600Y725420D03*
D19*
X1260659Y698626D03*
X1260596Y689876D03*
X1260570Y681178D03*
X1260583Y672581D03*
X1278744Y672619D03*
X1278769Y681279D03*
X1278769Y690003D03*
X1278833Y698692D03*
D20*
X495175Y587559D03*
X503924Y587496D03*
X512622Y587470D03*
X521219Y587483D03*
X521181Y605644D03*
X512521Y605669D03*
X503797Y605669D03*
X495108Y605733D03*
D21*
X575800Y816900D02*
X594000Y816900D01*
X575800Y816900D02*
X575800Y821400D01*
X594000Y821400D01*
X594000Y816900D01*
X594000Y818325D02*
X575800Y818325D01*
X575800Y819750D02*
X594000Y819750D01*
X594000Y821175D02*
X575800Y821175D01*
X575800Y804200D02*
X594000Y804200D01*
X575800Y804200D02*
X575800Y808700D01*
X594000Y808700D01*
X594000Y804200D01*
X594000Y805625D02*
X575800Y805625D01*
X575800Y807050D02*
X594000Y807050D01*
X594000Y808475D02*
X575800Y808475D01*
X575800Y791500D02*
X594000Y791500D01*
X575800Y791500D02*
X575800Y796000D01*
X594000Y796000D01*
X594000Y791500D01*
X594000Y792925D02*
X575800Y792925D01*
X575800Y794350D02*
X594000Y794350D01*
X594000Y795775D02*
X575800Y795775D01*
X575800Y778800D02*
X594000Y778800D01*
X575800Y778800D02*
X575800Y783300D01*
X594000Y783300D01*
X594000Y778800D01*
X594000Y780225D02*
X575800Y780225D01*
X575800Y781650D02*
X594000Y781650D01*
X594000Y783075D02*
X575800Y783075D01*
X625200Y778800D02*
X643400Y778800D01*
X625200Y778800D02*
X625200Y783300D01*
X643400Y783300D01*
X643400Y778800D01*
X643400Y780225D02*
X625200Y780225D01*
X625200Y781650D02*
X643400Y781650D01*
X643400Y783075D02*
X625200Y783075D01*
X625200Y791500D02*
X643400Y791500D01*
X625200Y791500D02*
X625200Y796000D01*
X643400Y796000D01*
X643400Y791500D01*
X643400Y792925D02*
X625200Y792925D01*
X625200Y794350D02*
X643400Y794350D01*
X643400Y795775D02*
X625200Y795775D01*
X625200Y804200D02*
X643400Y804200D01*
X625200Y804200D02*
X625200Y808700D01*
X643400Y808700D01*
X643400Y804200D01*
X643400Y805625D02*
X625200Y805625D01*
X625200Y807050D02*
X643400Y807050D01*
X643400Y808475D02*
X625200Y808475D01*
X625200Y816900D02*
X643400Y816900D01*
X625200Y816900D02*
X625200Y821400D01*
X643400Y821400D01*
X643400Y816900D01*
X643400Y818325D02*
X625200Y818325D01*
X625200Y819750D02*
X643400Y819750D01*
X643400Y821175D02*
X625200Y821175D01*
D22*
X292100Y723200D03*
X292100Y711200D03*
X292100Y699200D03*
D10*
X1497300Y673100D03*
X1525300Y673100D03*
D23*
X1390753Y570297D02*
X1382847Y570297D01*
X1382847Y582003D01*
X1390753Y582003D01*
X1390753Y570297D01*
X1390753Y571622D02*
X1382847Y571622D01*
X1382847Y572947D02*
X1390753Y572947D01*
X1390753Y574272D02*
X1382847Y574272D01*
X1382847Y575597D02*
X1390753Y575597D01*
X1390753Y576922D02*
X1382847Y576922D01*
X1382847Y578247D02*
X1390753Y578247D01*
X1390753Y579572D02*
X1382847Y579572D01*
X1382847Y580897D02*
X1390753Y580897D01*
X1405747Y570297D02*
X1413653Y570297D01*
X1405747Y570297D02*
X1405747Y582003D01*
X1413653Y582003D01*
X1413653Y570297D01*
X1413653Y571622D02*
X1405747Y571622D01*
X1405747Y572947D02*
X1413653Y572947D01*
X1413653Y574272D02*
X1405747Y574272D01*
X1405747Y575597D02*
X1413653Y575597D01*
X1413653Y576922D02*
X1405747Y576922D01*
X1405747Y578247D02*
X1413653Y578247D01*
X1413653Y579572D02*
X1405747Y579572D01*
X1405747Y580897D02*
X1413653Y580897D01*
X1428647Y570297D02*
X1436553Y570297D01*
X1428647Y570297D02*
X1428647Y582003D01*
X1436553Y582003D01*
X1436553Y570297D01*
X1436553Y571622D02*
X1428647Y571622D01*
X1428647Y572947D02*
X1436553Y572947D01*
X1436553Y574272D02*
X1428647Y574272D01*
X1428647Y575597D02*
X1436553Y575597D01*
X1436553Y576922D02*
X1428647Y576922D01*
X1428647Y578247D02*
X1436553Y578247D01*
X1436553Y579572D02*
X1428647Y579572D01*
X1428647Y580897D02*
X1436553Y580897D01*
D24*
X1424918Y637482D02*
X1394482Y637482D01*
X1394482Y648618D01*
X1424918Y648618D01*
X1424918Y637482D01*
X1424918Y639349D02*
X1394482Y639349D01*
X1394482Y641216D02*
X1424918Y641216D01*
X1424918Y643083D02*
X1394482Y643083D01*
X1394482Y644950D02*
X1424918Y644950D01*
X1424918Y646817D02*
X1394482Y646817D01*
D25*
X1511300Y506700D03*
X1511300Y534700D03*
D26*
X1496000Y393700D03*
X1552000Y393700D03*
D27*
X1200400Y952500D03*
X1263400Y952500D03*
D28*
X1358900Y477838D03*
X1358900Y461962D03*
D17*
X1357380Y393700D03*
X1385820Y393700D03*
M02*
